<?xml version="1.0" encoding="UTF-8" standalone="no"?>
<!DOCTYPE svg PUBLIC "-//W3C//DTD SVG 1.1//EN"
 "http://www.w3.org/Graphics/SVG/1.1/DTD/svg11.dtd">
<!-- Generated by graphviz version 2.30.1 (20180420.1509)
 -->
<!-- Title: fv_surf_map_mod Pages: 1 -->
<svg width="330pt" height="376pt"
 viewBox="0.00 0.00 330.00 376.00" xmlns="http://www.w3.org/2000/svg" xmlns:xlink="http://www.w3.org/1999/xlink">
<g id="graph0" class="graph" transform="scale(1 1) rotate(0) translate(4 372)">
<title>fv_surf_map_mod</title>
<polygon fill="white" stroke="white" points="-4,5 -4,-372 327,-372 327,5 -4,5"/>
<!-- Node1 -->
<g id="node1" class="node"><title>Node1</title>
<polygon fill="#bfbfbf" stroke="black" points="218,-227.5 218,-246.5 322,-246.5 322,-227.5 218,-227.5"/>
<text text-anchor="middle" x="270" y="-234.5" font-family="Helvetica,sans-Serif" font-size="10.00">fv_surf_map_mod</text>
</g>
<!-- Node2 -->
<g id="node2" class="node"><title>Node2</title>
<polygon fill="white" stroke="#bfbfbf" points="31.5,-337.5 31.5,-356.5 80.5,-356.5 80.5,-337.5 31.5,-337.5"/>
<text text-anchor="middle" x="56" y="-344.5" font-family="Helvetica,sans-Serif" font-size="10.00">logical</text>
</g>
<!-- Node2&#45;&gt;Node1 -->
<g id="edge1" class="edge"><title>Node2&#45;&gt;Node1</title>
<path fill="none" stroke="#9a32cd" stroke-dasharray="5,2" d="M90.6084,-343.313C120.925,-338.813 165.864,-329.148 200,-309 227.732,-292.632 251.591,-262.04 262.565,-246.534"/>
<polygon fill="#9a32cd" stroke="#9a32cd" points="89.9666,-339.868 80.5366,-344.698 90.9201,-346.803 89.9666,-339.868"/>
<text text-anchor="middle" x="165" y="-360" font-family="Helvetica,sans-Serif" font-size="10.00"> zs_filter</text>
<text text-anchor="middle" x="165" y="-349" font-family="Helvetica,sans-Serif" font-size="10.00">namelist_read</text>
<text text-anchor="middle" x="165" y="-338" font-family="Helvetica,sans-Serif" font-size="10.00">zero_ocean</text>
</g>
<!-- Node3 -->
<g id="node3" class="node"><title>Node3</title>
<polygon fill="white" stroke="#bfbfbf" points="6.5,-299.5 6.5,-318.5 105.5,-318.5 105.5,-299.5 6.5,-299.5"/>
<text text-anchor="middle" x="56" y="-306.5" font-family="Helvetica,sans-Serif" font-size="10.00">character(len=3)</text>
</g>
<!-- Node3&#45;&gt;Node1 -->
<g id="edge2" class="edge"><title>Node3&#45;&gt;Node1</title>
<path fill="none" stroke="#9a32cd" stroke-dasharray="5,2" d="M115.419,-298.193C141.735,-292.442 172.913,-284.385 200,-274 219.419,-266.555 240.272,-254.793 253.909,-246.533"/>
<polygon fill="#9a32cd" stroke="#9a32cd" points="114.642,-294.78 105.589,-300.284 116.099,-301.626 114.642,-294.78"/>
<text text-anchor="middle" x="165" y="-297" font-family="Helvetica,sans-Serif" font-size="10.00"> grid_string</text>
</g>
<!-- Node4 -->
<g id="node4" class="node"><title>Node4</title>
<polygon fill="white" stroke="#bfbfbf" points="0.5,-261.5 0.5,-280.5 111.5,-280.5 111.5,-261.5 0.5,-261.5"/>
<text text-anchor="middle" x="56" y="-268.5" font-family="Helvetica,sans-Serif" font-size="10.00">character(len=128)</text>
</g>
<!-- Node4&#45;&gt;Node1 -->
<g id="edge3" class="edge"><title>Node4&#45;&gt;Node1</title>
<path fill="none" stroke="#9a32cd" stroke-dasharray="5,2" d="M121.628,-261.331C146.185,-257.585 174.401,-253.195 200,-249 205.759,-248.056 211.785,-247.044 217.774,-246.023"/>
<polygon fill="#9a32cd" stroke="#9a32cd" points="121.063,-257.877 111.703,-262.84 122.116,-264.797 121.063,-257.877"/>
<text text-anchor="middle" x="165" y="-262" font-family="Helvetica,sans-Serif" font-size="10.00"> surf_file</text>
</g>
<!-- Node5 -->
<g id="node5" class="node"><title>Node5</title>
<polygon fill="white" stroke="#bfbfbf" points="6.5,-223.5 6.5,-242.5 105.5,-242.5 105.5,-223.5 6.5,-223.5"/>
<text text-anchor="middle" x="56" y="-230.5" font-family="Helvetica,sans-Serif" font-size="10.00">character(len=6)</text>
</g>
<!-- Node5&#45;&gt;Node1 -->
<g id="edge4" class="edge"><title>Node5&#45;&gt;Node1</title>
<path fill="none" stroke="#9a32cd" stroke-dasharray="5,2" d="M115.743,-234.108C147.711,-234.712 186.89,-235.451 217.632,-236.031"/>
<polygon fill="#9a32cd" stroke="#9a32cd" points="115.701,-230.607 105.637,-233.918 115.569,-237.606 115.701,-230.607"/>
<text text-anchor="middle" x="165" y="-238" font-family="Helvetica,sans-Serif" font-size="10.00"> surf_format</text>
</g>
<!-- Node6 -->
<g id="node6" class="node"><title>Node6</title>
<polygon fill="white" stroke="#bfbfbf" points="38.5,-116.5 38.5,-135.5 73.5,-135.5 73.5,-116.5 38.5,-116.5"/>
<text text-anchor="middle" x="56" y="-123.5" font-family="Helvetica,sans-Serif" font-size="10.00">real</text>
</g>
<!-- Node6&#45;&gt;Node1 -->
<g id="edge5" class="edge"><title>Node6&#45;&gt;Node1</title>
<path fill="none" stroke="#9a32cd" stroke-dasharray="5,2" d="M84.0063,-122.83C114.345,-120.604 164.04,-121.074 200,-142 234.708,-162.198 256.859,-207.567 265.225,-227.406"/>
<polygon fill="#9a32cd" stroke="#9a32cd" points="83.4171,-119.369 73.7659,-123.74 84.0363,-126.341 83.4171,-119.369"/>
<text text-anchor="middle" x="165" y="-222" font-family="Helvetica,sans-Serif" font-size="10.00"> cd4</text>
<text text-anchor="middle" x="165" y="-211" font-family="Helvetica,sans-Serif" font-size="10.00">zs_g</text>
<text text-anchor="middle" x="165" y="-200" font-family="Helvetica,sans-Serif" font-size="10.00">cos_grid</text>
<text text-anchor="middle" x="165" y="-189" font-family="Helvetica,sans-Serif" font-size="10.00">sgh_g</text>
<text text-anchor="middle" x="165" y="-178" font-family="Helvetica,sans-Serif" font-size="10.00">max_slope</text>
<text text-anchor="middle" x="165" y="-167" font-family="Helvetica,sans-Serif" font-size="10.00">peak_fac</text>
<text text-anchor="middle" x="165" y="-156" font-family="Helvetica,sans-Serif" font-size="10.00">oro_g</text>
<text text-anchor="middle" x="165" y="-145" font-family="Helvetica,sans-Serif" font-size="10.00">cd2</text>
</g>
<!-- Node7 -->
<g id="node7" class="node"><title>Node7</title>
<polygon fill="white" stroke="#bfbfbf" points="30.5,-38.5 30.5,-57.5 81.5,-57.5 81.5,-38.5 30.5,-38.5"/>
<text text-anchor="middle" x="56" y="-45.5" font-family="Helvetica,sans-Serif" font-size="10.00">integer</text>
</g>
<!-- Node7&#45;&gt;Node1 -->
<g id="edge6" class="edge"><title>Node7&#45;&gt;Node1</title>
<path fill="none" stroke="#9a32cd" stroke-dasharray="5,2" d="M91.5719,-42.5687C123.025,-39.6062 169.121,-40.4597 200,-64 254.516,-105.56 266.06,-196.928 268.417,-227.108"/>
<polygon fill="#9a32cd" stroke="#9a32cd" points="91.0596,-39.104 81.5098,-43.6924 91.8365,-46.0608 91.0596,-39.104"/>
<text text-anchor="middle" x="165" y="-111" font-family="Helvetica,sans-Serif" font-size="10.00"> nlat</text>
<text text-anchor="middle" x="165" y="-100" font-family="Helvetica,sans-Serif" font-size="10.00">n_del2_weak</text>
<text text-anchor="middle" x="165" y="-89" font-family="Helvetica,sans-Serif" font-size="10.00">n_del2_strong</text>
<text text-anchor="middle" x="165" y="-78" font-family="Helvetica,sans-Serif" font-size="10.00">nlon</text>
<text text-anchor="middle" x="165" y="-67" font-family="Helvetica,sans-Serif" font-size="10.00">n_del4</text>
</g>
<!-- Node8 -->
<g id="node8" class="node"><title>Node8</title>
<polygon fill="white" stroke="#bfbfbf" points="6,-0.5 6,-19.5 106,-19.5 106,-0.5 6,-0.5"/>
<text text-anchor="middle" x="56" y="-7.5" font-family="Helvetica,sans-Serif" font-size="10.00">real(kind=r_grid)</text>
</g>
<!-- Node8&#45;&gt;Node1 -->
<g id="edge7" class="edge"><title>Node8&#45;&gt;Node1</title>
<path fill="none" stroke="#9a32cd" stroke-dasharray="5,2" d="M116.29,-2.72028C144.477,-2.46775 176.962,-7.25221 200,-26 264.869,-78.7886 269.343,-193.692 269.2,-227.476"/>
<polygon fill="#9a32cd" stroke="#9a32cd" points="116.016,0.773183 106.125,-3.02468 116.226,-6.22368 116.016,0.773183"/>
<text text-anchor="middle" x="165" y="-29" font-family="Helvetica,sans-Serif" font-size="10.00"> da_min</text>
</g>
</g>
</svg>
