<?xml version="1.0" encoding="UTF-8" standalone="no"?>
<!DOCTYPE svg PUBLIC "-//W3C//DTD SVG 1.1//EN"
 "http://www.w3.org/Graphics/SVG/1.1/DTD/svg11.dtd">
<!-- Generated by graphviz version 2.30.1 (20180420.1509)
 -->
<!-- Title: fv_mp_mod Pages: 1 -->
<svg width="101pt" height="118pt"
 viewBox="0.00 0.00 101.00 118.00" xmlns="http://www.w3.org/2000/svg" xmlns:xlink="http://www.w3.org/1999/xlink">
<g id="graph0" class="graph" transform="scale(1 1) rotate(0) translate(4 114)">
<title>fv_mp_mod</title>
<polygon fill="white" stroke="white" points="-4,5 -4,-114 98,-114 98,5 -4,5"/>
<!-- Node1 -->
<g id="node1" class="node"><title>Node1</title>
<polygon fill="#bfbfbf" stroke="black" points="0,-0.5 0,-19.5 74,-19.5 74,-0.5 0,-0.5"/>
<text text-anchor="middle" x="37" y="-7.5" font-family="Helvetica,sans-Serif" font-size="10.00">fv_mp_mod</text>
</g>
<!-- Node2 -->
<g id="node2" class="node"><title>Node2</title>
<polygon fill="white" stroke="#bfbfbf" points="11.5,-90.5 11.5,-109.5 62.5,-109.5 62.5,-90.5 11.5,-90.5"/>
<text text-anchor="middle" x="37" y="-97.5" font-family="Helvetica,sans-Serif" font-size="10.00">integer</text>
</g>
<!-- Node2&#45;&gt;Node1 -->
<g id="edge1" class="edge"><title>Node2&#45;&gt;Node1</title>
<path fill="none" stroke="#9a32cd" stroke-dasharray="5,2" d="M37,-79.9784C37,-61.3096 37,-33.6696 37,-19.7241"/>
<polygon fill="#9a32cd" stroke="#9a32cd" points="33.5001,-80.2405 37,-90.2405 40.5001,-80.2405 33.5001,-80.2405"/>
<text text-anchor="middle" x="65" y="-63.5" font-family="Helvetica,sans-Serif" font-size="10.00"> ng</text>
<text text-anchor="middle" x="65" y="-52.5" font-family="Helvetica,sans-Serif" font-size="10.00">gid</text>
<text text-anchor="middle" x="65" y="-41.5" font-family="Helvetica,sans-Serif" font-size="10.00">masterproc</text>
</g>
</g>
</svg>
