<?xml version="1.0" encoding="UTF-8" standalone="no"?>
<!DOCTYPE svg PUBLIC "-//W3C//DTD SVG 1.1//EN"
 "http://www.w3.org/Graphics/SVG/1.1/DTD/svg11.dtd">
<!-- Generated by graphviz version 2.30.1 (20180420.1509)
 -->
<!-- Title: dyn_core_mod Pages: 1 -->
<svg width="312pt" height="206pt"
 viewBox="0.00 0.00 312.00 206.00" xmlns="http://www.w3.org/2000/svg" xmlns:xlink="http://www.w3.org/1999/xlink">
<g id="graph0" class="graph" transform="scale(1 1) rotate(0) translate(4 202)">
<title>dyn_core_mod</title>
<polygon fill="white" stroke="white" points="-4,5 -4,-202 309,-202 309,5 -4,5"/>
<!-- Node1 -->
<g id="node1" class="node"><title>Node1</title>
<polygon fill="#bfbfbf" stroke="black" points="95,-0.5 95,-19.5 183,-19.5 183,-0.5 95,-0.5"/>
<text text-anchor="middle" x="139" y="-7.5" font-family="Helvetica,sans-Serif" font-size="10.00">dyn_core_mod</text>
</g>
<!-- Node2 -->
<g id="node2" class="node"><title>Node2</title>
<polygon fill="white" stroke="#bfbfbf" points="-0.5,-178.5 -0.5,-197.5 48.5,-197.5 48.5,-178.5 -0.5,-178.5"/>
<text text-anchor="middle" x="24" y="-185.5" font-family="Helvetica,sans-Serif" font-size="10.00">logical</text>
</g>
<!-- Node2&#45;&gt;Node1 -->
<g id="edge1" class="edge"><title>Node2&#45;&gt;Node1</title>
<path fill="none" stroke="#9a32cd" stroke-dasharray="5,2" d="M18.4086,-168.554C10.309,-137.75 -0.601074,-75.525 30,-38 38.3474,-27.7639 68.3952,-20.7995 94.8329,-16.511"/>
<polygon fill="#9a32cd" stroke="#9a32cd" points="15.0968,-169.705 21.1834,-178.377 21.8332,-167.803 15.0968,-169.705"/>
<text text-anchor="middle" x="62" y="-102" font-family="Helvetica,sans-Serif" font-size="10.00"> first_call</text>
<text text-anchor="middle" x="62" y="-91" font-family="Helvetica,sans-Serif" font-size="10.00">rff_initialized</text>
</g>
<!-- Node3 -->
<g id="node3" class="node"><title>Node3</title>
<polygon fill="white" stroke="#bfbfbf" points="81.5,-178.5 81.5,-197.5 132.5,-197.5 132.5,-178.5 81.5,-178.5"/>
<text text-anchor="middle" x="107" y="-185.5" font-family="Helvetica,sans-Serif" font-size="10.00">integer</text>
</g>
<!-- Node3&#45;&gt;Node1 -->
<g id="edge2" class="edge"><title>Node3&#45;&gt;Node1</title>
<path fill="none" stroke="#9a32cd" stroke-dasharray="5,2" d="M103.182,-168.432C98.1041,-139.245 91.8324,-81.4799 111,-38 114.214,-30.7085 120.414,-24.4024 126.165,-19.7224"/>
<polygon fill="#9a32cd" stroke="#9a32cd" points="99.7788,-169.27 105.079,-178.444 106.656,-167.967 99.7788,-169.27"/>
<text text-anchor="middle" x="126.5" y="-102" font-family="Helvetica,sans-Serif" font-size="10.00"> kmax</text>
<text text-anchor="middle" x="126.5" y="-91" font-family="Helvetica,sans-Serif" font-size="10.00">k_rf</text>
</g>
<!-- Node4 -->
<g id="node4" class="node"><title>Node4</title>
<polygon fill="white" stroke="#bfbfbf" points="150.5,-178.5 150.5,-197.5 185.5,-197.5 185.5,-178.5 150.5,-178.5"/>
<text text-anchor="middle" x="168" y="-185.5" font-family="Helvetica,sans-Serif" font-size="10.00">real</text>
</g>
<!-- Node4&#45;&gt;Node1 -->
<g id="edge3" class="edge"><title>Node4&#45;&gt;Node1</title>
<path fill="none" stroke="#9a32cd" stroke-dasharray="5,2" d="M165.867,-168.096C162.515,-139.696 155.412,-84.3981 146,-38 144.768,-31.9254 143.018,-25.1754 141.576,-19.944"/>
<polygon fill="#9a32cd" stroke="#9a32cd" points="162.411,-168.678 167.036,-178.21 169.365,-167.874 162.411,-168.678"/>
<text text-anchor="middle" x="174" y="-151.5" font-family="Helvetica,sans-Serif" font-size="10.00"> du</text>
<text text-anchor="middle" x="174" y="-140.5" font-family="Helvetica,sans-Serif" font-size="10.00">dv</text>
<text text-anchor="middle" x="174" y="-129.5" font-family="Helvetica,sans-Serif" font-size="10.00">ptk</text>
<text text-anchor="middle" x="174" y="-118.5" font-family="Helvetica,sans-Serif" font-size="10.00">gz</text>
<text text-anchor="middle" x="174" y="-107.5" font-family="Helvetica,sans-Serif" font-size="10.00">pkc</text>
<text text-anchor="middle" x="174" y="-96.5" font-family="Helvetica,sans-Serif" font-size="10.00">xfx</text>
<text text-anchor="middle" x="174" y="-85.5" font-family="Helvetica,sans-Serif" font-size="10.00">yfx</text>
<text text-anchor="middle" x="174" y="-74.5" font-family="Helvetica,sans-Serif" font-size="10.00">crx</text>
<text text-anchor="middle" x="174" y="-63.5" font-family="Helvetica,sans-Serif" font-size="10.00">cry</text>
<text text-anchor="middle" x="174" y="-52.5" font-family="Helvetica,sans-Serif" font-size="10.00">rf</text>
<text text-anchor="middle" x="174" y="-41.5" font-family="Helvetica,sans-Serif" font-size="10.00">...</text>
</g>
<!-- Node5 -->
<g id="node5" class="node"><title>Node5</title>
<polygon fill="white" stroke="#bfbfbf" points="204,-178.5 204,-197.5 304,-197.5 304,-178.5 204,-178.5"/>
<text text-anchor="middle" x="254" y="-185.5" font-family="Helvetica,sans-Serif" font-size="10.00">real(kind=r_grid)</text>
</g>
<!-- Node5&#45;&gt;Node1 -->
<g id="edge4" class="edge"><title>Node5&#45;&gt;Node1</title>
<path fill="none" stroke="#9a32cd" stroke-dasharray="5,2" d="M249.712,-168.475C241.862,-138.044 222.618,-76.97 187,-38 179.775,-30.0956 169.685,-23.9396 160.619,-19.5151"/>
<polygon fill="#9a32cd" stroke="#9a32cd" points="246.317,-169.324 252.098,-178.202 253.115,-167.656 246.317,-169.324"/>
<text text-anchor="middle" x="274.5" y="-96.5" font-family="Helvetica,sans-Serif" font-size="10.00"> cnst_0p20</text>
</g>
</g>
</svg>
