<?xml version="1.0" encoding="UTF-8" standalone="no"?>
<!DOCTYPE svg PUBLIC "-//W3C//DTD SVG 1.1//EN"
 "http://www.w3.org/Graphics/SVG/1.1/DTD/svg11.dtd">
<!-- Generated by graphviz version 2.30.1 (20180420.1509)
 -->
<!-- Title: fv_timing_mod Pages: 1 -->
<!--zoomable 206 -->
<svg id="main" version="1.1" xmlns="http://www.w3.org/2000/svg" xmlns:xlink="http://www.w3.org/1999/xlink" xml:space="preserve" onload="init(evt)">
<style type="text/css"><![CDATA[
.edge:hover path { stroke: red; }
.edge:hover polygon { stroke: red; fill: red; }
]]></style>
<script type="text/javascript"><![CDATA[
var edges = document.getElementsByTagName('g');
if (edges && edges.length) {
  for (var i=0;i<edges.length;i++) {
    if (edges[i].id.substr(0,4)=='edge') {
      edges[i].setAttribute('class','edge');
    }
  }
}
]]></script>
        <defs>
                <circle id="rim" cx="0" cy="0" r="7"/>
                <circle id="rim2" cx="0" cy="0" r="3.5"/>
                <g id="zoomPlus">
                        <use xlink:href="#rim" fill="#404040">
                                <set attributeName="fill" to="#808080" begin="zoomplus.mouseover" end="zoomplus.mouseout"/>
                        </use>
                        <path d="M-4,0h8M0,-4v8" fill="none" stroke="white" stroke-width="1.5" pointer-events="none"/>
                </g>
                <g id="zoomMin">
                        <use xlink:href="#rim" fill="#404040">
                                <set attributeName="fill" to="#808080" begin="zoomminus.mouseover" end="zoomminus.mouseout"/>
                        </use>
                        <path d="M-4,0h8" fill="none" stroke="white" stroke-width="1.5" pointer-events="none"/>
                </g>
                <g id="dirArrow">
                        <path fill="none" stroke="white" stroke-width="1.5" d="M0,-3.0v7 M-2.5,-0.5L0,-3.0L2.5,-0.5"/>
                </g>
               <g id="resetDef">
                       <use xlink:href="#rim2" fill="#404040">
                               <set attributeName="fill" to="#808080" begin="reset.mouseover" end="reset.mouseout"/>
                       </use>
               </g>
        </defs>

<script type="text/javascript">
var viewWidth = 506;
var viewHeight = 206;
var sectionId = 'dynsection-0';
</script>
<script xlink:href="svgpan.js"/>
<svg id="graph" class="graph">
<g id="viewport">
<title>fv_timing_mod</title>
<polygon fill="white" stroke="white" points="-4,5 -4,-202 503,-202 503,5 -4,5"/>
<!-- Node1 -->
<g id="node1" class="node"><title>Node1</title>
<polygon fill="#bfbfbf" stroke="black" points="223,-0.5 223,-19.5 313,-19.5 313,-0.5 223,-0.5"/>
<text text-anchor="middle" x="268" y="-7.5" font-family="Helvetica,sans-Serif" font-size="10.00">fv_timing_mod</text>
</g>
<!-- Node2 -->
<g id="node2" class="node"><title>Node2</title>
<polygon fill="white" stroke="#bfbfbf" points="-0.5,-100.5 -0.5,-119.5 48.5,-119.5 48.5,-100.5 -0.5,-100.5"/>
<text text-anchor="middle" x="24" y="-107.5" font-family="Helvetica,sans-Serif" font-size="10.00">logical</text>
</g>
<!-- Node2&#45;&gt;Node1 -->
<g id="edge1" class="edge"><title>Node2&#45;&gt;Node1</title>
<path fill="none" stroke="#9a32cd" stroke-dasharray="5,2" d="M21.8228,-90.056C21.106,-73.8368 23.0339,-51.09 37,-38 63.0353,-13.5979 163.236,-10.0209 222.779,-10.1449"/>
<polygon fill="#9a32cd" stroke="#9a32cd" points="18.3355,-90.3557 22.626,-100.043 25.3129,-89.7945 18.3355,-90.3557"/>
<text text-anchor="middle" x="84" y="-57.5" font-family="Helvetica,sans-Serif" font-size="10.00"> module_initialized</text>
</g>
<!-- Node3 -->
<g id="node3" class="node"><title>Node3</title>
<g id="a_node3"><a xlink:href="structfv__timing__mod_1_1tms.html" target="_top" xlink:title="fv_timing_mod::tms">
<polygon fill="white" stroke="black" points="66.5,-100.5 66.5,-119.5 181.5,-119.5 181.5,-100.5 66.5,-100.5"/>
<text text-anchor="middle" x="124" y="-107.5" font-family="Helvetica,sans-Serif" font-size="10.00">fv_timing_mod::tms</text>
</a>
</g>
</g>
<!-- Node3&#45;&gt;Node1 -->
<g id="edge2" class="edge"><title>Node3&#45;&gt;Node1</title>
<path fill="none" stroke="#9a32cd" stroke-dasharray="5,2" d="M130.828,-90.5871C137.767,-74.3843 150.06,-51.3531 168,-38 183.796,-26.2428 204.375,-19.6037 222.755,-15.8553"/>
<polygon fill="#9a32cd" stroke="#9a32cd" points="127.496,-89.4935 127.035,-100.078 133.996,-92.0909 127.496,-89.4935"/>
<text text-anchor="middle" x="186" y="-63" font-family="Helvetica,sans-Serif" font-size="10.00"> accum</text>
<text text-anchor="middle" x="186" y="-52" font-family="Helvetica,sans-Serif" font-size="10.00">last</text>
</g>
<!-- Node4 -->
<g id="node4" class="node"><title>Node4</title>
<polygon fill="white" stroke="#bfbfbf" points="147,-178.5 147,-197.5 225,-197.5 225,-178.5 147,-178.5"/>
<text text-anchor="middle" x="186" y="-185.5" font-family="Helvetica,sans-Serif" font-size="10.00">real(kind=8)</text>
</g>
<!-- Node4&#45;&gt;Node3 -->
<g id="edge3" class="edge"><title>Node4&#45;&gt;Node3</title>
<path fill="none" stroke="#9a32cd" stroke-dasharray="5,2" d="M172.492,-170.442C159.725,-154.792 141.073,-131.928 131.029,-119.616"/>
<polygon fill="#9a32cd" stroke="#9a32cd" points="169.854,-172.746 178.888,-178.282 175.279,-168.321 169.854,-172.746"/>
<text text-anchor="middle" x="173" y="-152" font-family="Helvetica,sans-Serif" font-size="10.00"> sys</text>
<text text-anchor="middle" x="173" y="-141" font-family="Helvetica,sans-Serif" font-size="10.00">usr</text>
</g>
<!-- Node4&#45;&gt;Node1 -->
<g id="edge5" class="edge"><title>Node4&#45;&gt;Node1</title>
<path fill="none" stroke="#9a32cd" stroke-dasharray="5,2" d="M194.474,-168.812C211.9,-131.41 251.185,-47.0911 263.927,-19.7429"/>
<polygon fill="#9a32cd" stroke="#9a32cd" points="191.23,-167.488 190.179,-178.03 197.575,-170.444 191.23,-167.488"/>
<text text-anchor="middle" x="241" y="-107.5" font-family="Helvetica,sans-Serif" font-size="10.00"> totim</text>
</g>
<!-- Node5 -->
<g id="node5" class="node"><title>Node5</title>
<polygon fill="white" stroke="#bfbfbf" points="266.5,-100.5 266.5,-119.5 371.5,-119.5 371.5,-100.5 266.5,-100.5"/>
<text text-anchor="middle" x="319" y="-107.5" font-family="Helvetica,sans-Serif" font-size="10.00">character(len=20)</text>
</g>
<!-- Node5&#45;&gt;Node1 -->
<g id="edge4" class="edge"><title>Node5&#45;&gt;Node1</title>
<path fill="none" stroke="#9a32cd" stroke-dasharray="5,2" d="M309.832,-91.3836C298.809,-70.2011 280.755,-35.5087 272.443,-19.5374"/>
<polygon fill="#9a32cd" stroke="#9a32cd" points="306.753,-93.0482 314.474,-100.303 312.962,-89.8167 306.753,-93.0482"/>
<text text-anchor="middle" x="327" y="-57.5" font-family="Helvetica,sans-Serif" font-size="10.00"> blkname</text>
</g>
<!-- Node6 -->
<g id="node6" class="node"><title>Node6</title>
<polygon fill="white" stroke="#bfbfbf" points="389.5,-100.5 389.5,-119.5 424.5,-119.5 424.5,-100.5 389.5,-100.5"/>
<text text-anchor="middle" x="407" y="-107.5" font-family="Helvetica,sans-Serif" font-size="10.00">real</text>
</g>
<!-- Node6&#45;&gt;Node1 -->
<g id="edge6" class="edge"><title>Node6&#45;&gt;Node1</title>
<path fill="none" stroke="#9a32cd" stroke-dasharray="5,2" d="M397.962,-91.2202C388.911,-75.1165 373.534,-51.8537 354,-38 342.001,-29.4903 327.219,-23.5896 313.315,-19.5292"/>
<polygon fill="#9a32cd" stroke="#9a32cd" points="394.952,-93.0134 402.761,-100.174 401.122,-89.7065 394.952,-93.0134"/>
<text text-anchor="middle" x="415" y="-74" font-family="Helvetica,sans-Serif" font-size="10.00"> us_tmp2</text>
<text text-anchor="middle" x="415" y="-63" font-family="Helvetica,sans-Serif" font-size="10.00">tarray</text>
<text text-anchor="middle" x="415" y="-52" font-family="Helvetica,sans-Serif" font-size="10.00">etime</text>
<text text-anchor="middle" x="415" y="-41" font-family="Helvetica,sans-Serif" font-size="10.00">us_tmp1</text>
</g>
<!-- Node7 -->
<g id="node7" class="node"><title>Node7</title>
<polygon fill="white" stroke="#bfbfbf" points="446.5,-100.5 446.5,-119.5 497.5,-119.5 497.5,-100.5 446.5,-100.5"/>
<text text-anchor="middle" x="472" y="-107.5" font-family="Helvetica,sans-Serif" font-size="10.00">integer</text>
</g>
<!-- Node7&#45;&gt;Node1 -->
<g id="edge7" class="edge"><title>Node7&#45;&gt;Node1</title>
<path fill="none" stroke="#9a32cd" stroke-dasharray="5,2" d="M469.271,-90.3241C465.841,-73.9065 458.288,-50.7061 442,-38 422.476,-22.7698 357.984,-16.0031 313.254,-13.0873"/>
<polygon fill="#9a32cd" stroke="#9a32cd" points="465.863,-91.1523 471.043,-100.394 472.757,-89.9387 465.863,-91.1523"/>
<text text-anchor="middle" x="483" y="-63" font-family="Helvetica,sans-Serif" font-size="10.00"> nblks</text>
<text text-anchor="middle" x="483" y="-52" font-family="Helvetica,sans-Serif" font-size="10.00">tblk</text>
</g>
</g>
</svg>
        <g id="navigator" transform="translate(0 0)" fill="#404254">
                <rect fill="#f2f5e9" fill-opacity="0.5" stroke="#606060" stroke-width=".5" x="0" y="0" width="60" height="60"/>
                <use id="zoomplus" xlink:href="#zoomPlus" x="17" y="9" onmousedown="handleZoom(evt,'in')"/>
                <use id="zoomminus" xlink:href="#zoomMin" x="42" y="9" onmousedown="handleZoom(evt,'out')"/>
                <use id="reset" xlink:href="#resetDef" x="30" y="36" onmousedown="handleReset()"/>
                <g id="arrowUp" xlink:href="#dirArrow" transform="translate(30 24)" onmousedown="handlePan(0,-1)">
                  <use xlink:href="#rim" fill="#404040">
                        <set attributeName="fill" to="#808080" begin="arrowUp.mouseover" end="arrowUp.mouseout"/>
                  </use>
                  <path fill="none" stroke="white" stroke-width="1.5" d="M0,-3.0v7 M-2.5,-0.5L0,-3.0L2.5,-0.5"/>
                </g>
                <g id="arrowRight" xlink:href="#dirArrow" transform="rotate(90) translate(36 -43)" onmousedown="handlePan(1,0)">
                  <use xlink:href="#rim" fill="#404040">
                        <set attributeName="fill" to="#808080" begin="arrowRight.mouseover" end="arrowRight.mouseout"/>
                  </use>
                  <path fill="none" stroke="white" stroke-width="1.5" d="M0,-3.0v7 M-2.5,-0.5L0,-3.0L2.5,-0.5"/>
                </g>
                <g id="arrowDown" xlink:href="#dirArrow" transform="rotate(180) translate(-30 -48)" onmousedown="handlePan(0,1)">
                  <use xlink:href="#rim" fill="#404040">
                        <set attributeName="fill" to="#808080" begin="arrowDown.mouseover" end="arrowDown.mouseout"/>
                  </use>
                  <path fill="none" stroke="white" stroke-width="1.5" d="M0,-3.0v7 M-2.5,-0.5L0,-3.0L2.5,-0.5"/>
                </g>
                <g id="arrowLeft" xlink:href="#dirArrow" transform="rotate(270) translate(-36 17)" onmousedown="handlePan(-1,0)">
                  <use xlink:href="#rim" fill="#404040">
                        <set attributeName="fill" to="#808080" begin="arrowLeft.mouseover" end="arrowLeft.mouseout"/>
                  </use>
                  <path fill="none" stroke="white" stroke-width="1.5" d="M0,-3.0v7 M-2.5,-0.5L0,-3.0L2.5,-0.5"/>
                </g>
        </g>
        <svg viewBox="0 0 15 15" width="100%" height="30px" preserveAspectRatio="xMaxYMin meet">
         <g id="arrow_out" transform="scale(0.3 0.3)">
          <a xlink:href="classfv__timing__mod__coll__graph_org.svg" target="_base">
           <rect id="button" ry="5" rx="5" y="6" x="6" height="38" width="38"
                fill="#f2f5e9" fill-opacity="0.5" stroke="#606060" stroke-width="1.0"/>
           <path id="arrow"
             d="M 11.500037,31.436501 C 11.940474,20.09759 22.043105,11.32322 32.158766,21.979434 L 37.068811,17.246167 C 37.068811,17.246167 37.088388,32 37.088388,32 L 22.160133,31.978069 C 22.160133,31.978069 26.997745,27.140456 26.997745,27.140456 C 18.528582,18.264221 13.291696,25.230495 11.500037,31.436501 z"
             style="fill:#404040;"/>
          </a>
         </g>
        </svg>
</svg>
