<?xml version="1.0" encoding="UTF-8" standalone="no"?>
<!DOCTYPE svg PUBLIC "-//W3C//DTD SVG 1.1//EN"
 "http://www.w3.org/Graphics/SVG/1.1/DTD/svg11.dtd">
<!-- Generated by graphviz version 2.30.1 (20180420.1509)
 -->
<!-- Title: fv_nesting_mod Pages: 1 -->
<svg width="372pt" height="367pt"
 viewBox="0.00 0.00 372.00 367.09" xmlns="http://www.w3.org/2000/svg" xmlns:xlink="http://www.w3.org/1999/xlink">
<g id="graph0" class="graph" transform="scale(1 1) rotate(0) translate(4 363.089)">
<title>fv_nesting_mod</title>
<polygon fill="white" stroke="white" points="-4,5 -4,-363.089 369,-363.089 369,5 -4,5"/>
<!-- Node1 -->
<g id="node1" class="node"><title>Node1</title>
<polygon fill="#bfbfbf" stroke="black" points="268.5,-256.589 268.5,-275.589 363.5,-275.589 363.5,-256.589 268.5,-256.589"/>
<text text-anchor="middle" x="316" y="-263.589" font-family="Helvetica,sans-Serif" font-size="10.00">fv_nesting_mod</text>
</g>
<!-- Node2 -->
<g id="node2" class="node"><title>Node2</title>
<polygon fill="white" stroke="#bfbfbf" points="58.5,-339.589 58.5,-358.589 107.5,-358.589 107.5,-339.589 58.5,-339.589"/>
<text text-anchor="middle" x="83" y="-346.589" font-family="Helvetica,sans-Serif" font-size="10.00">logical</text>
</g>
<!-- Node2&#45;&gt;Node1 -->
<g id="edge1" class="edge"><title>Node2&#45;&gt;Node1</title>
<path fill="none" stroke="#9a32cd" stroke-dasharray="5,2" d="M117.482,-342.98C151.703,-336.059 205.933,-323.197 250,-304.089 268.229,-296.184 287.726,-284.27 300.559,-275.894"/>
<polygon fill="#9a32cd" stroke="#9a32cd" points="116.673,-339.572 107.537,-344.938 118.025,-346.44 116.673,-339.572"/>
<text text-anchor="middle" x="217" y="-339.089" font-family="Helvetica,sans-Serif" font-size="10.00"> bad_range</text>
<text text-anchor="middle" x="217" y="-328.089" font-family="Helvetica,sans-Serif" font-size="10.00">rf_initialized</text>
</g>
<!-- Node3 -->
<g id="node3" class="node"><title>Node3</title>
<polygon fill="white" stroke="#bfbfbf" points="0.5,-290.089 0.5,-320.089 165.5,-320.089 165.5,-290.089 0.5,-290.089"/>
<text text-anchor="start" x="8.5" y="-308.089" font-family="Helvetica,sans-Serif" font-size="10.00">type(fv_nest_bc_type</text>
<text text-anchor="middle" x="83" y="-297.089" font-family="Helvetica,sans-Serif" font-size="10.00">_3d), dimension(:), allocatable</text>
</g>
<!-- Node3&#45;&gt;Node1 -->
<g id="edge2" class="edge"><title>Node3&#45;&gt;Node1</title>
<path fill="none" stroke="#9a32cd" stroke-dasharray="5,2" d="M175.498,-291.463C199.752,-287.659 225.895,-283.385 250,-279.089 256.005,-278.018 262.309,-276.834 268.532,-275.629"/>
<polygon fill="#9a32cd" stroke="#9a32cd" points="174.933,-288.009 165.591,-293.008 176.011,-294.926 174.933,-288.009"/>
<text text-anchor="middle" x="217" y="-292.089" font-family="Helvetica,sans-Serif" font-size="10.00"> q_buf</text>
</g>
<!-- Node4 -->
<g id="node4" class="node"><title>Node4</title>
<polygon fill="white" stroke="#bfbfbf" points="57.5,-251.589 57.5,-270.589 108.5,-270.589 108.5,-251.589 57.5,-251.589"/>
<text text-anchor="middle" x="83" y="-258.589" font-family="Helvetica,sans-Serif" font-size="10.00">integer</text>
</g>
<!-- Node4&#45;&gt;Node1 -->
<g id="edge3" class="edge"><title>Node4&#45;&gt;Node1</title>
<path fill="none" stroke="#9a32cd" stroke-dasharray="5,2" d="M118.738,-261.841C158.514,-262.701 223.872,-264.116 268.132,-265.074"/>
<polygon fill="#9a32cd" stroke="#9a32cd" points="118.794,-258.341 108.721,-261.624 118.643,-265.339 118.794,-258.341"/>
<text text-anchor="middle" x="217" y="-267.089" font-family="Helvetica,sans-Serif" font-size="10.00"> kmax</text>
</g>
<!-- Node5 -->
<g id="node5" class="node"><title>Node5</title>
<polygon fill="white" stroke="#bfbfbf" points="65.5,-145.589 65.5,-164.589 100.5,-164.589 100.5,-145.589 65.5,-145.589"/>
<text text-anchor="middle" x="83" y="-152.589" font-family="Helvetica,sans-Serif" font-size="10.00">real</text>
</g>
<!-- Node5&#45;&gt;Node1 -->
<g id="edge4" class="edge"><title>Node5&#45;&gt;Node1</title>
<path fill="none" stroke="#9a32cd" stroke-dasharray="5,2" d="M111.282,-151.028C146.049,-147.271 206.808,-145.583 250,-171.089 283.899,-191.107 304.117,-236.573 311.636,-256.466"/>
<polygon fill="#9a32cd" stroke="#9a32cd" points="110.464,-147.602 100.962,-152.289 111.313,-154.55 110.464,-147.602"/>
<text text-anchor="middle" x="217" y="-251.089" font-family="Helvetica,sans-Serif" font-size="10.00"> dum_east</text>
<text text-anchor="middle" x="217" y="-240.089" font-family="Helvetica,sans-Serif" font-size="10.00">te_2d_coarse</text>
<text text-anchor="middle" x="217" y="-229.089" font-family="Helvetica,sans-Serif" font-size="10.00">rw</text>
<text text-anchor="middle" x="217" y="-218.089" font-family="Helvetica,sans-Serif" font-size="10.00">rf</text>
<text text-anchor="middle" x="217" y="-207.089" font-family="Helvetica,sans-Serif" font-size="10.00">dum_north</text>
<text text-anchor="middle" x="217" y="-196.089" font-family="Helvetica,sans-Serif" font-size="10.00">dp1_coarse</text>
<text text-anchor="middle" x="217" y="-185.089" font-family="Helvetica,sans-Serif" font-size="10.00">dum_west</text>
<text text-anchor="middle" x="217" y="-174.089" font-family="Helvetica,sans-Serif" font-size="10.00">dum_south</text>
</g>
<!-- Node6 -->
<g id="node6" class="node"><title>Node6</title>
<polygon fill="white" stroke="#bfbfbf" points="11.5,-1.58864 11.5,-20.5886 154.5,-20.5886 154.5,-1.58864 11.5,-1.58864"/>
<text text-anchor="middle" x="83" y="-8.58864" font-family="Helvetica,sans-Serif" font-size="10.00">type(fv_nest_bc_type_3d)</text>
</g>
<!-- Node6&#45;&gt;Node1 -->
<g id="edge5" class="edge"><title>Node6&#45;&gt;Node1</title>
<path fill="none" stroke="#9a32cd" stroke-dasharray="5,2" d="M145.454,-0.747943C179.913,1.49129 221.555,-2.21626 250,-26.0886 286.786,-56.9609 308.729,-215.466 313.842,-256.421"/>
<polygon fill="#9a32cd" stroke="#9a32cd" points="145.157,2.73955 135.478,-1.57123 145.733,-4.23673 145.157,2.73955"/>
<text text-anchor="middle" x="217" y="-139.089" font-family="Helvetica,sans-Serif" font-size="10.00"> divg_buf</text>
<text text-anchor="middle" x="217" y="-128.089" font-family="Helvetica,sans-Serif" font-size="10.00">pkz_buf</text>
<text text-anchor="middle" x="217" y="-117.089" font-family="Helvetica,sans-Serif" font-size="10.00">vc_buf</text>
<text text-anchor="middle" x="217" y="-106.089" font-family="Helvetica,sans-Serif" font-size="10.00">u_buf</text>
<text text-anchor="middle" x="217" y="-95.0886" font-family="Helvetica,sans-Serif" font-size="10.00">uc_buf</text>
<text text-anchor="middle" x="217" y="-84.0886" font-family="Helvetica,sans-Serif" font-size="10.00">v_buf</text>
<text text-anchor="middle" x="217" y="-73.0886" font-family="Helvetica,sans-Serif" font-size="10.00">w_buf</text>
<text text-anchor="middle" x="217" y="-62.0886" font-family="Helvetica,sans-Serif" font-size="10.00">delz_buf</text>
<text text-anchor="middle" x="217" y="-51.0886" font-family="Helvetica,sans-Serif" font-size="10.00">pt_buf</text>
<text text-anchor="middle" x="217" y="-40.0886" font-family="Helvetica,sans-Serif" font-size="10.00">delp_buf</text>
<text text-anchor="middle" x="217" y="-29.0886" font-family="Helvetica,sans-Serif" font-size="10.00">...</text>
</g>
</g>
</svg>
