<?xml version="1.0" encoding="UTF-8" standalone="no"?>
<!DOCTYPE svg PUBLIC "-//W3C//DTD SVG 1.1//EN"
 "http://www.w3.org/Graphics/SVG/1.1/DTD/svg11.dtd">
<!-- Generated by graphviz version 2.30.1 (20180420.1509)
 -->
<!-- Title: fv_grid_tools_mod Pages: 1 -->
<svg width="213pt" height="140pt"
 viewBox="0.00 0.00 213.00 140.00" xmlns="http://www.w3.org/2000/svg" xmlns:xlink="http://www.w3.org/1999/xlink">
<g id="graph0" class="graph" transform="scale(1 1) rotate(0) translate(4 136)">
<title>fv_grid_tools_mod</title>
<polygon fill="white" stroke="white" points="-4,5 -4,-136 210,-136 210,5 -4,5"/>
<!-- Node1 -->
<g id="node1" class="node"><title>Node1</title>
<polygon fill="#bfbfbf" stroke="black" points="35.5,-0.5 35.5,-19.5 142.5,-19.5 142.5,-0.5 35.5,-0.5"/>
<text text-anchor="middle" x="89" y="-7.5" font-family="Helvetica,sans-Serif" font-size="10.00">fv_grid_tools_mod</text>
</g>
<!-- Node2 -->
<g id="node2" class="node"><title>Node2</title>
<polygon fill="white" stroke="#bfbfbf" points="-0.5,-112.5 -0.5,-131.5 48.5,-131.5 48.5,-112.5 -0.5,-112.5"/>
<text text-anchor="middle" x="24" y="-119.5" font-family="Helvetica,sans-Serif" font-size="10.00">logical</text>
</g>
<!-- Node2&#45;&gt;Node1 -->
<g id="edge1" class="edge"><title>Node2&#45;&gt;Node1</title>
<path fill="none" stroke="#9a32cd" stroke-dasharray="5,2" d="M18.8164,-102.472C14.9276,-84.4287 12.2176,-57.0163 25,-38 30.7857,-29.3927 39.9068,-23.5214 49.4693,-19.5192"/>
<polygon fill="#9a32cd" stroke="#9a32cd" points="15.4585,-103.473 21.2621,-112.337 22.2528,-101.788 15.4585,-103.473"/>
<text text-anchor="middle" x="79" y="-69" font-family="Helvetica,sans-Serif" font-size="10.00"> debug_message_size</text>
<text text-anchor="middle" x="79" y="-58" font-family="Helvetica,sans-Serif" font-size="10.00">write_grid_char_file</text>
</g>
<!-- Node3 -->
<g id="node3" class="node"><title>Node3</title>
<polygon fill="white" stroke="#bfbfbf" points="105,-112.5 105,-131.5 205,-131.5 205,-112.5 105,-112.5"/>
<text text-anchor="middle" x="155" y="-119.5" font-family="Helvetica,sans-Serif" font-size="10.00">real(kind=r_grid)</text>
</g>
<!-- Node3&#45;&gt;Node1 -->
<g id="edge2" class="edge"><title>Node3&#45;&gt;Node1</title>
<path fill="none" stroke="#9a32cd" stroke-dasharray="5,2" d="M153.987,-102.216C152.162,-84.1694 147.084,-56.9255 133,-38 127.114,-30.091 118.163,-23.9937 109.867,-19.6115"/>
<polygon fill="#9a32cd" stroke="#9a32cd" points="150.509,-102.635 154.766,-112.337 157.488,-102.097 150.509,-102.635"/>
<text text-anchor="middle" x="172.5" y="-85.5" font-family="Helvetica,sans-Serif" font-size="10.00"> csfac</text>
<text text-anchor="middle" x="172.5" y="-74.5" font-family="Helvetica,sans-Serif" font-size="10.00">torad</text>
<text text-anchor="middle" x="172.5" y="-63.5" font-family="Helvetica,sans-Serif" font-size="10.00">radius</text>
<text text-anchor="middle" x="172.5" y="-52.5" font-family="Helvetica,sans-Serif" font-size="10.00">todeg</text>
<text text-anchor="middle" x="172.5" y="-41.5" font-family="Helvetica,sans-Serif" font-size="10.00">missing</text>
</g>
</g>
</svg>
