<?xml version="1.0" encoding="UTF-8" standalone="no"?>
<!DOCTYPE svg PUBLIC "-//W3C//DTD SVG 1.1//EN"
 "http://www.w3.org/Graphics/SVG/1.1/DTD/svg11.dtd">
<!-- Generated by graphviz version 2.30.1 (20180420.1509)
 -->
<!-- Title: sw_core_mod Pages: 1 -->
<svg width="98pt" height="206pt"
 viewBox="0.00 0.00 98.00 206.00" xmlns="http://www.w3.org/2000/svg" xmlns:xlink="http://www.w3.org/1999/xlink">
<g id="graph0" class="graph" transform="scale(1 1) rotate(0) translate(4 202)">
<title>sw_core_mod</title>
<polygon fill="white" stroke="white" points="-4,5 -4,-202 95,-202 95,5 -4,5"/>
<!-- Node1 -->
<g id="node1" class="node"><title>Node1</title>
<polygon fill="#bfbfbf" stroke="black" points="-0.5,-0.5 -0.5,-19.5 82.5,-19.5 82.5,-0.5 -0.5,-0.5"/>
<text text-anchor="middle" x="41" y="-7.5" font-family="Helvetica,sans-Serif" font-size="10.00">sw_core_mod</text>
</g>
<!-- Node2 -->
<g id="node2" class="node"><title>Node2</title>
<polygon fill="white" stroke="#bfbfbf" points="23.5,-178.5 23.5,-197.5 58.5,-197.5 58.5,-178.5 23.5,-178.5"/>
<text text-anchor="middle" x="41" y="-185.5" font-family="Helvetica,sans-Serif" font-size="10.00">real</text>
</g>
<!-- Node2&#45;&gt;Node1 -->
<g id="edge1" class="edge"><title>Node2&#45;&gt;Node1</title>
<path fill="none" stroke="#9a32cd" stroke-dasharray="5,2" d="M41,-167.842C41,-129.973 41,-46.8574 41,-19.7429"/>
<polygon fill="#9a32cd" stroke="#9a32cd" points="37.5001,-168.03 41,-178.03 44.5001,-168.03 37.5001,-168.03"/>
<text text-anchor="middle" x="65.5" y="-151.5" font-family="Helvetica,sans-Serif" font-size="10.00"> s15</text>
<text text-anchor="middle" x="65.5" y="-140.5" font-family="Helvetica,sans-Serif" font-size="10.00">t14</text>
<text text-anchor="middle" x="65.5" y="-129.5" font-family="Helvetica,sans-Serif" font-size="10.00">c1</text>
<text text-anchor="middle" x="65.5" y="-118.5" font-family="Helvetica,sans-Serif" font-size="10.00">t15</text>
<text text-anchor="middle" x="65.5" y="-107.5" font-family="Helvetica,sans-Serif" font-size="10.00">b1</text>
<text text-anchor="middle" x="65.5" y="-96.5" font-family="Helvetica,sans-Serif" font-size="10.00">c2</text>
<text text-anchor="middle" x="65.5" y="-85.5" font-family="Helvetica,sans-Serif" font-size="10.00">b2</text>
<text text-anchor="middle" x="65.5" y="-74.5" font-family="Helvetica,sans-Serif" font-size="10.00">c3</text>
<text text-anchor="middle" x="65.5" y="-63.5" font-family="Helvetica,sans-Serif" font-size="10.00">a1</text>
<text text-anchor="middle" x="65.5" y="-52.5" font-family="Helvetica,sans-Serif" font-size="10.00">near_zero</text>
<text text-anchor="middle" x="65.5" y="-41.5" font-family="Helvetica,sans-Serif" font-size="10.00">...</text>
</g>
</g>
</svg>
