<?xml version="1.0" encoding="UTF-8" standalone="no"?>
<!DOCTYPE svg PUBLIC "-//W3C//DTD SVG 1.1//EN"
 "http://www.w3.org/Graphics/SVG/1.1/DTD/svg11.dtd">
<!-- Generated by graphviz version 2.30.1 (20180420.1509)
 -->
<!-- Title: multi_gases_mod Pages: 1 -->
<svg width="129pt" height="140pt"
 viewBox="0.00 0.00 129.00 140.00" xmlns="http://www.w3.org/2000/svg" xmlns:xlink="http://www.w3.org/1999/xlink">
<g id="graph0" class="graph" transform="scale(1 1) rotate(0) translate(4 136)">
<title>multi_gases_mod</title>
<polygon fill="white" stroke="white" points="-4,5 -4,-136 126,-136 126,5 -4,5"/>
<!-- Node1 -->
<g id="node1" class="node"><title>Node1</title>
<polygon fill="#bfbfbf" stroke="black" points="-0.5,-0.5 -0.5,-19.5 102.5,-19.5 102.5,-0.5 -0.5,-0.5"/>
<text text-anchor="middle" x="51" y="-7.5" font-family="Helvetica,sans-Serif" font-size="10.00">multi_gases_mod</text>
</g>
<!-- Node2 -->
<g id="node2" class="node"><title>Node2</title>
<polygon fill="white" stroke="#bfbfbf" points="3.5,-112.5 3.5,-131.5 38.5,-131.5 38.5,-112.5 3.5,-112.5"/>
<text text-anchor="middle" x="21" y="-119.5" font-family="Helvetica,sans-Serif" font-size="10.00">real</text>
</g>
<!-- Node2&#45;&gt;Node1 -->
<g id="edge1" class="edge"><title>Node2&#45;&gt;Node1</title>
<path fill="none" stroke="#9a32cd" stroke-dasharray="5,2" d="M22.6814,-101.666C24.5926,-84.542 28.4787,-59.0649 36,-38 38.308,-31.5359 42.058,-24.7859 45.231,-19.652"/>
<polygon fill="#9a32cd" stroke="#9a32cd" points="19.1576,-101.734 21.6534,-112.03 26.1234,-102.425 19.1576,-101.734"/>
<text text-anchor="middle" x="48" y="-85.5" font-family="Helvetica,sans-Serif" font-size="10.00"> vicp</text>
<text text-anchor="middle" x="48" y="-74.5" font-family="Helvetica,sans-Serif" font-size="10.00">vicv</text>
<text text-anchor="middle" x="48" y="-63.5" font-family="Helvetica,sans-Serif" font-size="10.00">cpi</text>
<text text-anchor="middle" x="48" y="-52.5" font-family="Helvetica,sans-Serif" font-size="10.00">vir</text>
<text text-anchor="middle" x="48" y="-41.5" font-family="Helvetica,sans-Serif" font-size="10.00">ri</text>
</g>
<!-- Node3 -->
<g id="node3" class="node"><title>Node3</title>
<polygon fill="white" stroke="#bfbfbf" points="56.5,-112.5 56.5,-131.5 107.5,-131.5 107.5,-112.5 56.5,-112.5"/>
<text text-anchor="middle" x="82" y="-119.5" font-family="Helvetica,sans-Serif" font-size="10.00">integer</text>
</g>
<!-- Node3&#45;&gt;Node1 -->
<g id="edge2" class="edge"><title>Node3&#45;&gt;Node1</title>
<path fill="none" stroke="#9a32cd" stroke-dasharray="5,2" d="M77.4545,-102.518C73.2188,-85.6364 66.5834,-60.0271 60,-38 58.1889,-31.9403 55.9389,-25.1903 54.1417,-19.9552"/>
<polygon fill="#9a32cd" stroke="#9a32cd" points="74.0584,-103.365 79.8666,-112.226 80.8519,-101.677 74.0584,-103.365"/>
<text text-anchor="middle" x="98" y="-85.5" font-family="Helvetica,sans-Serif" font-size="10.00"> ind_gas</text>
<text text-anchor="middle" x="98" y="-74.5" font-family="Helvetica,sans-Serif" font-size="10.00">sphump1</text>
<text text-anchor="middle" x="98" y="-63.5" font-family="Helvetica,sans-Serif" font-size="10.00">num_wat</text>
<text text-anchor="middle" x="98" y="-52.5" font-family="Helvetica,sans-Serif" font-size="10.00">num_gas</text>
<text text-anchor="middle" x="98" y="-41.5" font-family="Helvetica,sans-Serif" font-size="10.00">sphum</text>
</g>
</g>
</svg>
