<?xml version="1.0" encoding="UTF-8" standalone="no"?>
<!DOCTYPE svg PUBLIC "-//W3C//DTD SVG 1.1//EN"
 "http://www.w3.org/Graphics/SVG/1.1/DTD/svg11.dtd">
<!-- Generated by graphviz version 2.30.1 (20180420.1509)
 -->
<!-- Title: fv_mapz_mod Pages: 1 -->
<svg width="209pt" height="206pt"
 viewBox="0.00 0.00 209.00 206.00" xmlns="http://www.w3.org/2000/svg" xmlns:xlink="http://www.w3.org/1999/xlink">
<g id="graph0" class="graph" transform="scale(1 1) rotate(0) translate(4 202)">
<title>fv_mapz_mod</title>
<polygon fill="white" stroke="white" points="-4,5 -4,-202 206,-202 206,5 -4,5"/>
<!-- Node1 -->
<g id="node1" class="node"><title>Node1</title>
<polygon fill="#bfbfbf" stroke="black" points="59,-0.5 59,-19.5 145,-19.5 145,-0.5 59,-0.5"/>
<text text-anchor="middle" x="102" y="-7.5" font-family="Helvetica,sans-Serif" font-size="10.00">fv_mapz_mod</text>
</g>
<!-- Node2 -->
<g id="node2" class="node"><title>Node2</title>
<polygon fill="white" stroke="#bfbfbf" points="-0.5,-178.5 -0.5,-197.5 112.5,-197.5 112.5,-178.5 -0.5,-178.5"/>
<text text-anchor="middle" x="56" y="-185.5" font-family="Helvetica,sans-Serif" font-size="10.00">real(kind=4), public</text>
</g>
<!-- Node2&#45;&gt;Node1 -->
<g id="edge1" class="edge"><title>Node2&#45;&gt;Node1</title>
<path fill="none" stroke="#9a32cd" stroke-dasharray="5,2" d="M60.1969,-168.082C66.6143,-139.664 79.5443,-84.3439 93,-38 94.7635,-31.9263 97.0135,-25.1763 98.8226,-19.9447"/>
<polygon fill="#9a32cd" stroke="#9a32cd" points="56.7005,-167.68 57.9309,-178.203 63.5314,-169.209 56.7005,-167.68"/>
<text text-anchor="middle" x="109.5" y="-96.5" font-family="Helvetica,sans-Serif" font-size="10.00"> e_flux</text>
</g>
<!-- Node3 -->
<g id="node3" class="node"><title>Node3</title>
<polygon fill="white" stroke="#bfbfbf" points="130.5,-178.5 130.5,-197.5 165.5,-197.5 165.5,-178.5 130.5,-178.5"/>
<text text-anchor="middle" x="148" y="-185.5" font-family="Helvetica,sans-Serif" font-size="10.00">real</text>
</g>
<!-- Node3&#45;&gt;Node1 -->
<g id="edge2" class="edge"><title>Node3&#45;&gt;Node1</title>
<path fill="none" stroke="#9a32cd" stroke-dasharray="5,2" d="M148.588,-168.439C148.8,-139.262 146.304,-81.5108 126,-38 122.711,-30.9527 116.978,-24.3978 111.939,-19.5116"/>
<polygon fill="#9a32cd" stroke="#9a32cd" points="145.088,-168.382 148.395,-178.448 152.087,-168.517 145.088,-168.382"/>
<text text-anchor="middle" x="174.5" y="-151.5" font-family="Helvetica,sans-Serif" font-size="10.00"> cp_vap</text>
<text text-anchor="middle" x="174.5" y="-140.5" font-family="Helvetica,sans-Serif" font-size="10.00">consv_min</text>
<text text-anchor="middle" x="174.5" y="-129.5" font-family="Helvetica,sans-Serif" font-size="10.00">c_liq</text>
<text text-anchor="middle" x="174.5" y="-118.5" font-family="Helvetica,sans-Serif" font-size="10.00">r3</text>
<text text-anchor="middle" x="174.5" y="-107.5" font-family="Helvetica,sans-Serif" font-size="10.00">cv_vap</text>
<text text-anchor="middle" x="174.5" y="-96.5" font-family="Helvetica,sans-Serif" font-size="10.00">tice</text>
<text text-anchor="middle" x="174.5" y="-85.5" font-family="Helvetica,sans-Serif" font-size="10.00">c_ice</text>
<text text-anchor="middle" x="174.5" y="-74.5" font-family="Helvetica,sans-Serif" font-size="10.00">cv_air</text>
<text text-anchor="middle" x="174.5" y="-63.5" font-family="Helvetica,sans-Serif" font-size="10.00">r12</text>
<text text-anchor="middle" x="174.5" y="-52.5" font-family="Helvetica,sans-Serif" font-size="10.00">r23</text>
<text text-anchor="middle" x="174.5" y="-41.5" font-family="Helvetica,sans-Serif" font-size="10.00">...</text>
</g>
</g>
</svg>
