<?xml version="1.0" encoding="UTF-8" standalone="no"?>
<!DOCTYPE svg PUBLIC "-//W3C//DTD SVG 1.1//EN"
 "http://www.w3.org/Graphics/SVG/1.1/DTD/svg11.dtd">
<!-- Generated by graphviz version 2.30.1 (20180420.1509)
 -->
<!-- Title: fv_diagnostics_mod Pages: 1 -->
<!--zoomable 530 -->
<svg id="main" version="1.1" xmlns="http://www.w3.org/2000/svg" xmlns:xlink="http://www.w3.org/1999/xlink" xml:space="preserve" onload="init(evt)">
<style type="text/css"><![CDATA[
.edge:hover path { stroke: red; }
.edge:hover polygon { stroke: red; fill: red; }
]]></style>
<script type="text/javascript"><![CDATA[
var edges = document.getElementsByTagName('g');
if (edges && edges.length) {
  for (var i=0;i<edges.length;i++) {
    if (edges[i].id.substr(0,4)=='edge') {
      edges[i].setAttribute('class','edge');
    }
  }
}
]]></script>
        <defs>
                <circle id="rim" cx="0" cy="0" r="7"/>
                <circle id="rim2" cx="0" cy="0" r="3.5"/>
                <g id="zoomPlus">
                        <use xlink:href="#rim" fill="#404040">
                                <set attributeName="fill" to="#808080" begin="zoomplus.mouseover" end="zoomplus.mouseout"/>
                        </use>
                        <path d="M-4,0h8M0,-4v8" fill="none" stroke="white" stroke-width="1.5" pointer-events="none"/>
                </g>
                <g id="zoomMin">
                        <use xlink:href="#rim" fill="#404040">
                                <set attributeName="fill" to="#808080" begin="zoomminus.mouseover" end="zoomminus.mouseout"/>
                        </use>
                        <path d="M-4,0h8" fill="none" stroke="white" stroke-width="1.5" pointer-events="none"/>
                </g>
                <g id="dirArrow">
                        <path fill="none" stroke="white" stroke-width="1.5" d="M0,-3.0v7 M-2.5,-0.5L0,-3.0L2.5,-0.5"/>
                </g>
               <g id="resetDef">
                       <use xlink:href="#rim2" fill="#404040">
                               <set attributeName="fill" to="#808080" begin="reset.mouseover" end="reset.mouseout"/>
                       </use>
               </g>
        </defs>

<script type="text/javascript">
var viewWidth = 394;
var viewHeight = 530;
var sectionId = 'dynsection-0';
</script>
<script xlink:href="svgpan.js"/>
<svg id="graph" class="graph">
<g id="viewport">
<title>fv_diagnostics_mod</title>
<polygon fill="white" stroke="white" points="-4,5 -4,-526.33 391,-526.33 391,5 -4,5"/>
<!-- Node1 -->
<g id="node1" class="node"><title>Node1</title>
<polygon fill="#bfbfbf" stroke="black" points="272,-324.83 272,-343.83 386,-343.83 386,-324.83 272,-324.83"/>
<text text-anchor="middle" x="329" y="-331.83" font-family="Helvetica,sans-Serif" font-size="10.00">fv_diagnostics_mod</text>
</g>
<!-- Node2 -->
<g id="node2" class="node"><title>Node2</title>
<polygon fill="white" stroke="#bfbfbf" points="41.5,-468.83 41.5,-487.83 90.5,-487.83 90.5,-468.83 41.5,-468.83"/>
<text text-anchor="middle" x="66" y="-475.83" font-family="Helvetica,sans-Serif" font-size="10.00">logical</text>
</g>
<!-- Node2&#45;&gt;Node1 -->
<g id="edge1" class="edge"><title>Node2&#45;&gt;Node1</title>
<path fill="none" stroke="#9a32cd" stroke-dasharray="5,2" d="M100.711,-480.539C140.549,-481.497 207.308,-477.764 254,-447.33 293.684,-421.464 316.816,-366.062 324.808,-343.84"/>
<polygon fill="#9a32cd" stroke="#9a32cd" points="100.828,-477.041 90.71,-480.185 100.58,-484.036 100.828,-477.041"/>
<text text-anchor="middle" x="202" y="-514.33" font-family="Helvetica,sans-Serif" font-size="10.00"> master</text>
<text text-anchor="middle" x="202" y="-503.33" font-family="Helvetica,sans-Serif" font-size="10.00">prt_minmax</text>
<text text-anchor="middle" x="202" y="-492.33" font-family="Helvetica,sans-Serif" font-size="10.00">m_calendar</text>
<text text-anchor="middle" x="202" y="-481.33" font-family="Helvetica,sans-Serif" font-size="10.00">module_is_initialized</text>
</g>
<!-- Node3 -->
<g id="node3" class="node"><title>Node3</title>
<polygon fill="white" stroke="#bfbfbf" points="10,-419.33 10,-449.33 122,-449.33 122,-419.33 10,-419.33"/>
<text text-anchor="start" x="18" y="-437.33" font-family="Helvetica,sans-Serif" font-size="10.00">type(fv_diag_type),</text>
<text text-anchor="middle" x="66" y="-426.33" font-family="Helvetica,sans-Serif" font-size="10.00"> pointer</text>
</g>
<!-- Node3&#45;&gt;Node1 -->
<g id="edge2" class="edge"><title>Node3&#45;&gt;Node1</title>
<path fill="none" stroke="#9a32cd" stroke-dasharray="5,2" d="M132.291,-434.324C169.625,-431.987 216.361,-424.986 254,-406.33 284.033,-391.444 309.675,-359.887 321.316,-343.958"/>
<polygon fill="#9a32cd" stroke="#9a32cd" points="131.828,-430.843 122.026,-434.865 132.197,-437.833 131.828,-430.843"/>
<text text-anchor="middle" x="202" y="-435.33" font-family="Helvetica,sans-Serif" font-size="10.00"> idiag</text>
</g>
<!-- Node4 -->
<g id="node4" class="node"><title>Node4</title>
<polygon fill="white" stroke="#bfbfbf" points="10.5,-380.83 10.5,-399.83 121.5,-399.83 121.5,-380.83 10.5,-380.83"/>
<text text-anchor="middle" x="66" y="-387.83" font-family="Helvetica,sans-Serif" font-size="10.00">character(len=256)</text>
</g>
<!-- Node4&#45;&gt;Node1 -->
<g id="edge3" class="edge"><title>Node4&#45;&gt;Node1</title>
<path fill="none" stroke="#9a32cd" stroke-dasharray="5,2" d="M131.556,-383.486C167.881,-378.848 213.866,-371.657 254,-361.33 271.615,-356.797 290.9,-349.687 305.366,-343.9"/>
<polygon fill="#9a32cd" stroke="#9a32cd" points="131.071,-380.019 121.579,-384.727 131.935,-386.966 131.071,-380.019"/>
<text text-anchor="middle" x="202" y="-394.33" font-family="Helvetica,sans-Serif" font-size="10.00"> tunits</text>
<text text-anchor="middle" x="202" y="-383.33" font-family="Helvetica,sans-Serif" font-size="10.00">tlongname</text>
</g>
<!-- Node5 -->
<g id="node5" class="node"><title>Node5</title>
<polygon fill="white" stroke="#bfbfbf" points="16.5,-342.83 16.5,-361.83 115.5,-361.83 115.5,-342.83 16.5,-342.83"/>
<text text-anchor="middle" x="66" y="-349.83" font-family="Helvetica,sans-Serif" font-size="10.00">character(len=3)</text>
</g>
<!-- Node5&#45;&gt;Node1 -->
<g id="edge4" class="edge"><title>Node5&#45;&gt;Node1</title>
<path fill="none" stroke="#9a32cd" stroke-dasharray="5,2" d="M125.972,-348.263C169.631,-345.252 228.747,-341.175 271.746,-338.21"/>
<polygon fill="#9a32cd" stroke="#9a32cd" points="125.521,-344.786 115.786,-348.965 126.003,-351.769 125.521,-344.786"/>
<text text-anchor="middle" x="202" y="-349.33" font-family="Helvetica,sans-Serif" font-size="10.00"> gn</text>
</g>
<!-- Node6 -->
<g id="node6" class="node"><title>Node6</title>
<polygon fill="white" stroke="#bfbfbf" points="10.5,-304.83 10.5,-323.83 121.5,-323.83 121.5,-304.83 10.5,-304.83"/>
<text text-anchor="middle" x="66" y="-311.83" font-family="Helvetica,sans-Serif" font-size="10.00">character(len=128)</text>
</g>
<!-- Node6&#45;&gt;Node1 -->
<g id="edge5" class="edge"><title>Node6&#45;&gt;Node1</title>
<path fill="none" stroke="#9a32cd" stroke-dasharray="5,2" d="M131.875,-316.508C167.9,-318.041 213.492,-320.516 254,-324.33 259.808,-324.877 265.861,-325.54 271.893,-326.263"/>
<polygon fill="#9a32cd" stroke="#9a32cd" points="131.636,-312.995 121.501,-316.081 131.348,-319.989 131.636,-312.995"/>
<text text-anchor="middle" x="202" y="-327.33" font-family="Helvetica,sans-Serif" font-size="10.00"> tname</text>
</g>
<!-- Node7 -->
<g id="node7" class="node"><title>Node7</title>
<polygon fill="white" stroke="#bfbfbf" points="0.5,-266.83 0.5,-285.83 131.5,-285.83 131.5,-266.83 0.5,-266.83"/>
<text text-anchor="middle" x="66" y="-273.83" font-family="Helvetica,sans-Serif" font-size="10.00">type(time_type), public</text>
</g>
<!-- Node7&#45;&gt;Node1 -->
<g id="edge6" class="edge"><title>Node7&#45;&gt;Node1</title>
<path fill="none" stroke="#9a32cd" stroke-dasharray="5,2" d="M141.952,-282.081C176.511,-285.917 217.804,-292.19 254,-302.33 273.678,-307.843 294.98,-317.476 309.653,-324.736"/>
<polygon fill="#9a32cd" stroke="#9a32cd" points="142.239,-278.592 131.925,-281.016 141.499,-285.553 142.239,-278.592"/>
<text text-anchor="middle" x="202" y="-305.33" font-family="Helvetica,sans-Serif" font-size="10.00"> fv_time</text>
</g>
<!-- Node8 -->
<g id="node8" class="node"><title>Node8</title>
<polygon fill="white" stroke="#bfbfbf" points="40.5,-128.83 40.5,-147.83 91.5,-147.83 91.5,-128.83 40.5,-128.83"/>
<text text-anchor="middle" x="66" y="-135.83" font-family="Helvetica,sans-Serif" font-size="10.00">integer</text>
</g>
<!-- Node8&#45;&gt;Node1 -->
<g id="edge7" class="edge"><title>Node8&#45;&gt;Node1</title>
<path fill="none" stroke="#9a32cd" stroke-dasharray="5,2" d="M101.592,-132.536C142.222,-127.733 209.688,-126.249 254,-159.33 310.302,-201.362 324.142,-294.598 327.203,-324.734"/>
<polygon fill="#9a32cd" stroke="#9a32cd" points="101.084,-129.073 91.6247,-133.845 101.995,-136.013 101.084,-129.073"/>
<text text-anchor="middle" x="202" y="-272.33" font-family="Helvetica,sans-Serif" font-size="10.00"> nplev</text>
<text text-anchor="middle" x="202" y="-261.33" font-family="Helvetica,sans-Serif" font-size="10.00">cld_amt</text>
<text text-anchor="middle" x="202" y="-250.33" font-family="Helvetica,sans-Serif" font-size="10.00">liq_wat</text>
<text text-anchor="middle" x="202" y="-239.33" font-family="Helvetica,sans-Serif" font-size="10.00">levs</text>
<text text-anchor="middle" x="202" y="-228.33" font-family="Helvetica,sans-Serif" font-size="10.00">graupel</text>
<text text-anchor="middle" x="202" y="-217.33" font-family="Helvetica,sans-Serif" font-size="10.00">mp_top</text>
<text text-anchor="middle" x="202" y="-206.33" font-family="Helvetica,sans-Serif" font-size="10.00">rainwat</text>
<text text-anchor="middle" x="202" y="-195.33" font-family="Helvetica,sans-Serif" font-size="10.00">ice_wat</text>
<text text-anchor="middle" x="202" y="-184.33" font-family="Helvetica,sans-Serif" font-size="10.00">sphum</text>
<text text-anchor="middle" x="202" y="-173.33" font-family="Helvetica,sans-Serif" font-size="10.00">istep</text>
<text text-anchor="middle" x="202" y="-162.33" font-family="Helvetica,sans-Serif" font-size="10.00">...</text>
</g>
<!-- Node9 -->
<g id="node9" class="node"><title>Node9</title>
<polygon fill="white" stroke="#bfbfbf" points="48.5,-6.82999 48.5,-25.83 83.5,-25.83 83.5,-6.82999 48.5,-6.82999"/>
<text text-anchor="middle" x="66" y="-13.83" font-family="Helvetica,sans-Serif" font-size="10.00">real</text>
</g>
<!-- Node9&#45;&gt;Node1 -->
<g id="edge8" class="edge"><title>Node9&#45;&gt;Node1</title>
<path fill="none" stroke="#9a32cd" stroke-dasharray="5,2" d="M93.319,-9.07036C133.056,0.157561 208.543,10.6876 254,-27.33 301.628,-67.1632 322.905,-276.833 327.176,-324.626"/>
<polygon fill="#9a32cd" stroke="#9a32cd" points="92.439,-5.68244 83.5695,-11.4775 94.117,-12.4784 92.439,-5.68244"/>
<text text-anchor="middle" x="202" y="-118.33" font-family="Helvetica,sans-Serif" font-size="10.00"> pk0</text>
<text text-anchor="middle" x="202" y="-107.33" font-family="Helvetica,sans-Serif" font-size="10.00">missing_value2</text>
<text text-anchor="middle" x="202" y="-96.33" font-family="Helvetica,sans-Serif" font-size="10.00">missing_value3</text>
<text text-anchor="middle" x="202" y="-85.33" font-family="Helvetica,sans-Serif" font-size="10.00">rad2deg</text>
<text text-anchor="middle" x="202" y="-74.33" font-family="Helvetica,sans-Serif" font-size="10.00">ptop</text>
<text text-anchor="middle" x="202" y="-63.33" font-family="Helvetica,sans-Serif" font-size="10.00">ginv</text>
<text text-anchor="middle" x="202" y="-52.33" font-family="Helvetica,sans-Serif" font-size="10.00">missing_value</text>
<text text-anchor="middle" x="202" y="-41.33" font-family="Helvetica,sans-Serif" font-size="10.00">qcly0</text>
<text text-anchor="middle" x="202" y="-30.33" font-family="Helvetica,sans-Serif" font-size="10.00">sphum_ll_fix</text>
</g>
</g>
</svg>
        <g id="navigator" transform="translate(0 0)" fill="#404254">
                <rect fill="#f2f5e9" fill-opacity="0.5" stroke="#606060" stroke-width=".5" x="0" y="0" width="60" height="60"/>
                <use id="zoomplus" xlink:href="#zoomPlus" x="17" y="9" onmousedown="handleZoom(evt,'in')"/>
                <use id="zoomminus" xlink:href="#zoomMin" x="42" y="9" onmousedown="handleZoom(evt,'out')"/>
                <use id="reset" xlink:href="#resetDef" x="30" y="36" onmousedown="handleReset()"/>
                <g id="arrowUp" xlink:href="#dirArrow" transform="translate(30 24)" onmousedown="handlePan(0,-1)">
                  <use xlink:href="#rim" fill="#404040">
                        <set attributeName="fill" to="#808080" begin="arrowUp.mouseover" end="arrowUp.mouseout"/>
                  </use>
                  <path fill="none" stroke="white" stroke-width="1.5" d="M0,-3.0v7 M-2.5,-0.5L0,-3.0L2.5,-0.5"/>
                </g>
                <g id="arrowRight" xlink:href="#dirArrow" transform="rotate(90) translate(36 -43)" onmousedown="handlePan(1,0)">
                  <use xlink:href="#rim" fill="#404040">
                        <set attributeName="fill" to="#808080" begin="arrowRight.mouseover" end="arrowRight.mouseout"/>
                  </use>
                  <path fill="none" stroke="white" stroke-width="1.5" d="M0,-3.0v7 M-2.5,-0.5L0,-3.0L2.5,-0.5"/>
                </g>
                <g id="arrowDown" xlink:href="#dirArrow" transform="rotate(180) translate(-30 -48)" onmousedown="handlePan(0,1)">
                  <use xlink:href="#rim" fill="#404040">
                        <set attributeName="fill" to="#808080" begin="arrowDown.mouseover" end="arrowDown.mouseout"/>
                  </use>
                  <path fill="none" stroke="white" stroke-width="1.5" d="M0,-3.0v7 M-2.5,-0.5L0,-3.0L2.5,-0.5"/>
                </g>
                <g id="arrowLeft" xlink:href="#dirArrow" transform="rotate(270) translate(-36 17)" onmousedown="handlePan(-1,0)">
                  <use xlink:href="#rim" fill="#404040">
                        <set attributeName="fill" to="#808080" begin="arrowLeft.mouseover" end="arrowLeft.mouseout"/>
                  </use>
                  <path fill="none" stroke="white" stroke-width="1.5" d="M0,-3.0v7 M-2.5,-0.5L0,-3.0L2.5,-0.5"/>
                </g>
        </g>
        <svg viewBox="0 0 15 15" width="100%" height="30px" preserveAspectRatio="xMaxYMin meet">
         <g id="arrow_out" transform="scale(0.3 0.3)">
          <a xlink:href="classfv__diagnostics__mod__coll__graph_org.svg" target="_base">
           <rect id="button" ry="5" rx="5" y="6" x="6" height="38" width="38"
                fill="#f2f5e9" fill-opacity="0.5" stroke="#606060" stroke-width="1.0"/>
           <path id="arrow"
             d="M 11.500037,31.436501 C 11.940474,20.09759 22.043105,11.32322 32.158766,21.979434 L 37.068811,17.246167 C 37.068811,17.246167 37.088388,32 37.088388,32 L 22.160133,31.978069 C 22.160133,31.978069 26.997745,27.140456 26.997745,27.140456 C 18.528582,18.264221 13.291696,25.230495 11.500037,31.436501 z"
             style="fill:#404040;"/>
          </a>
         </g>
        </svg>
</svg>
