<?xml version="1.0" encoding="UTF-8" standalone="no"?>
<!DOCTYPE svg PUBLIC "-//W3C//DTD SVG 1.1//EN"
 "http://www.w3.org/Graphics/SVG/1.1/DTD/svg11.dtd">
<!-- Generated by graphviz version 2.30.1 (20180420.1509)
 -->
<!-- Title: fv_iau_mod Pages: 1 -->
<!--zoomable 330 -->
<svg id="main" version="1.1" xmlns="http://www.w3.org/2000/svg" xmlns:xlink="http://www.w3.org/1999/xlink" xml:space="preserve" onload="init(evt)">
<style type="text/css"><![CDATA[
.edge:hover path { stroke: red; }
.edge:hover polygon { stroke: red; fill: red; }
]]></style>
<script type="text/javascript"><![CDATA[
var edges = document.getElementsByTagName('g');
if (edges && edges.length) {
  for (var i=0;i<edges.length;i++) {
    if (edges[i].id.substr(0,4)=='edge') {
      edges[i].setAttribute('class','edge');
    }
  }
}
]]></script>
        <defs>
                <circle id="rim" cx="0" cy="0" r="7"/>
                <circle id="rim2" cx="0" cy="0" r="3.5"/>
                <g id="zoomPlus">
                        <use xlink:href="#rim" fill="#404040">
                                <set attributeName="fill" to="#808080" begin="zoomplus.mouseover" end="zoomplus.mouseout"/>
                        </use>
                        <path d="M-4,0h8M0,-4v8" fill="none" stroke="white" stroke-width="1.5" pointer-events="none"/>
                </g>
                <g id="zoomMin">
                        <use xlink:href="#rim" fill="#404040">
                                <set attributeName="fill" to="#808080" begin="zoomminus.mouseover" end="zoomminus.mouseout"/>
                        </use>
                        <path d="M-4,0h8" fill="none" stroke="white" stroke-width="1.5" pointer-events="none"/>
                </g>
                <g id="dirArrow">
                        <path fill="none" stroke="white" stroke-width="1.5" d="M0,-3.0v7 M-2.5,-0.5L0,-3.0L2.5,-0.5"/>
                </g>
               <g id="resetDef">
                       <use xlink:href="#rim2" fill="#404040">
                               <set attributeName="fill" to="#808080" begin="reset.mouseover" end="reset.mouseout"/>
                       </use>
               </g>
        </defs>

<script type="text/javascript">
var viewWidth = 702;
var viewHeight = 330;
var sectionId = 'dynsection-0';
</script>
<script xlink:href="svgpan.js"/>
<svg id="graph" class="graph">
<g id="viewport">
<title>fv_iau_mod</title>
<polygon fill="white" stroke="white" points="-4,5 -4,-326 699,-326 699,5 -4,5"/>
<!-- Node1 -->
<g id="node1" class="node"><title>Node1</title>
<polygon fill="#bfbfbf" stroke="black" points="620,-185.5 620,-204.5 694,-204.5 694,-185.5 620,-185.5"/>
<text text-anchor="middle" x="657" y="-192.5" font-family="Helvetica,sans-Serif" font-size="10.00">fv_iau_mod</text>
</g>
<!-- Node2 -->
<g id="node2" class="node"><title>Node2</title>
<g id="a_node2"><a xlink:href="structfv__iau__mod_1_1iau__state__type.html" target="_top" xlink:title="fv_iau_mod::iau_state_type">
<polygon fill="white" stroke="black" points="362,-229.5 362,-248.5 514,-248.5 514,-229.5 362,-229.5"/>
<text text-anchor="middle" x="438" y="-236.5" font-family="Helvetica,sans-Serif" font-size="10.00">fv_iau_mod::iau_state_type</text>
</a>
</g>
</g>
<!-- Node2&#45;&gt;Node1 -->
<g id="edge1" class="edge"><title>Node2&#45;&gt;Node1</title>
<path fill="none" stroke="#9a32cd" stroke-dasharray="5,2" d="M510.342,-227.816C538.958,-222.938 572.164,-216.782 602,-210 609.021,-208.404 616.495,-206.477 623.574,-204.545"/>
<polygon fill="#9a32cd" stroke="#9a32cd" points="509.705,-224.374 500.425,-229.487 510.868,-231.277 509.705,-224.374"/>
<text text-anchor="middle" x="567" y="-227" font-family="Helvetica,sans-Serif" font-size="10.00"> iau_state</text>
</g>
<!-- Node3 -->
<g id="node3" class="node"><title>Node3</title>
<g id="a_node3"><a xlink:href="structfv__iau__mod_1_1iau__internal__data__type.html" target="_top" xlink:title="fv_iau_mod::iau_internal\l_data_type">
<polygon fill="white" stroke="black" points="122.5,-212 122.5,-242 259.5,-242 259.5,-212 122.5,-212"/>
<text text-anchor="start" x="130.5" y="-230" font-family="Helvetica,sans-Serif" font-size="10.00">fv_iau_mod::iau_internal</text>
<text text-anchor="middle" x="191" y="-219" font-family="Helvetica,sans-Serif" font-size="10.00">_data_type</text>
</a>
</g>
</g>
<!-- Node3&#45;&gt;Node2 -->
<g id="edge2" class="edge"><title>Node3&#45;&gt;Node2</title>
<path fill="none" stroke="#9a32cd" stroke-dasharray="5,2" d="M269.828,-230.812C299.263,-232.254 332.686,-233.891 361.869,-235.32"/>
<polygon fill="#9a32cd" stroke="#9a32cd" points="269.755,-227.304 259.596,-230.311 269.413,-234.296 269.755,-227.304"/>
<text text-anchor="middle" x="311" y="-248" font-family="Helvetica,sans-Serif" font-size="10.00"> inc1</text>
<text text-anchor="middle" x="311" y="-237" font-family="Helvetica,sans-Serif" font-size="10.00">inc2</text>
</g>
<!-- Node4 -->
<g id="node4" class="node"><title>Node4</title>
<polygon fill="white" stroke="#bfbfbf" points="0.5,-245.5 0.5,-264.5 35.5,-264.5 35.5,-245.5 0.5,-245.5"/>
<text text-anchor="middle" x="18" y="-252.5" font-family="Helvetica,sans-Serif" font-size="10.00">real</text>
</g>
<!-- Node4&#45;&gt;Node3 -->
<g id="edge3" class="edge"><title>Node4&#45;&gt;Node3</title>
<path fill="none" stroke="#9a32cd" stroke-dasharray="5,2" d="M30.2684,-236.675C36.238,-228.747 44.3419,-220.31 54,-216 81.2568,-203.838 114.628,-206.312 141.493,-211.962"/>
<polygon fill="#9a32cd" stroke="#9a32cd" points="27.2206,-234.932 24.4663,-245.162 32.9993,-238.882 27.2206,-234.932"/>
<text text-anchor="middle" x="79" y="-274" font-family="Helvetica,sans-Serif" font-size="10.00"> delz_inc</text>
<text text-anchor="middle" x="79" y="-263" font-family="Helvetica,sans-Serif" font-size="10.00">temp_inc</text>
<text text-anchor="middle" x="79" y="-252" font-family="Helvetica,sans-Serif" font-size="10.00">tracer_inc</text>
<text text-anchor="middle" x="79" y="-241" font-family="Helvetica,sans-Serif" font-size="10.00">delp_inc</text>
<text text-anchor="middle" x="79" y="-230" font-family="Helvetica,sans-Serif" font-size="10.00">va_inc</text>
<text text-anchor="middle" x="79" y="-219" font-family="Helvetica,sans-Serif" font-size="10.00">ua_inc</text>
</g>
<!-- Node4&#45;&gt;Node1 -->
<g id="edge8" class="edge"><title>Node4&#45;&gt;Node1</title>
<path fill="none" stroke="#9a32cd" stroke-dasharray="5,2" d="M35.7168,-271.444C41.1175,-275.723 47.4217,-279.758 54,-282 75.0337,-289.17 81.7873,-282.65 104,-282 286.456,-276.664 333.14,-282.668 514,-258 553.645,-252.593 565.939,-256.338 602,-239 619.874,-230.406 637.009,-214.765 647.016,-204.634"/>
<polygon fill="#9a32cd" stroke="#9a32cd" points="37.8932,-268.698 28.0641,-264.743 33.2817,-273.964 37.8932,-268.698"/>
<text text-anchor="middle" x="311" y="-314" font-family="Helvetica,sans-Serif" font-size="10.00"> rdt</text>
<text text-anchor="middle" x="311" y="-303" font-family="Helvetica,sans-Serif" font-size="10.00">deg2rad</text>
<text text-anchor="middle" x="311" y="-292" font-family="Helvetica,sans-Serif" font-size="10.00">s2c</text>
<text text-anchor="middle" x="311" y="-281" font-family="Helvetica,sans-Serif" font-size="10.00">dt</text>
</g>
<!-- Node5 -->
<g id="node5" class="node"><title>Node5</title>
<polygon fill="white" stroke="#bfbfbf" points="130,-162.5 130,-181.5 252,-181.5 252,-162.5 130,-162.5"/>
<text text-anchor="middle" x="191" y="-169.5" font-family="Helvetica,sans-Serif" font-size="10.00">real(kind=kind_phys)</text>
</g>
<!-- Node5&#45;&gt;Node2 -->
<g id="edge4" class="edge"><title>Node5&#45;&gt;Node2</title>
<path fill="none" stroke="#9a32cd" stroke-dasharray="5,2" d="M262.689,-163.514C290.085,-163.648 320.455,-168.328 344,-184 358.561,-193.692 348.379,-208.026 362,-219 367.352,-223.312 373.548,-226.699 380.039,-229.36"/>
<polygon fill="#9a32cd" stroke="#9a32cd" points="262.3,-160.019 252.355,-163.672 262.407,-167.019 262.3,-160.019"/>
<text text-anchor="middle" x="311" y="-220" font-family="Helvetica,sans-Serif" font-size="10.00"> wt_normfact</text>
<text text-anchor="middle" x="311" y="-209" font-family="Helvetica,sans-Serif" font-size="10.00">hr1</text>
<text text-anchor="middle" x="311" y="-198" font-family="Helvetica,sans-Serif" font-size="10.00">hr2</text>
<text text-anchor="middle" x="311" y="-187" font-family="Helvetica,sans-Serif" font-size="10.00">wt</text>
</g>
<!-- Node6 -->
<g id="node6" class="node"><title>Node6</title>
<polygon fill="white" stroke="#bfbfbf" points="370.5,-180 370.5,-210 505.5,-210 505.5,-180 370.5,-180"/>
<text text-anchor="start" x="378.5" y="-198" font-family="Helvetica,sans-Serif" font-size="10.00">real(kind=4), dimension</text>
<text text-anchor="middle" x="438" y="-187" font-family="Helvetica,sans-Serif" font-size="10.00">(:,:,:), allocatable</text>
</g>
<!-- Node6&#45;&gt;Node1 -->
<g id="edge5" class="edge"><title>Node6&#45;&gt;Node1</title>
<path fill="none" stroke="#9a32cd" stroke-dasharray="5,2" d="M515.899,-195C551.278,-195 591.569,-195 619.833,-195"/>
<polygon fill="#9a32cd" stroke="#9a32cd" points="515.582,-191.5 505.582,-195 515.582,-198.5 515.582,-191.5"/>
<text text-anchor="middle" x="567" y="-198" font-family="Helvetica,sans-Serif" font-size="10.00"> wk3</text>
</g>
<!-- Node7 -->
<g id="node7" class="node"><title>Node7</title>
<polygon fill="white" stroke="#bfbfbf" points="367.5,-131 367.5,-161 508.5,-161 508.5,-131 367.5,-131"/>
<text text-anchor="start" x="375.5" y="-149" font-family="Helvetica,sans-Serif" font-size="10.00">character(len=32),</text>
<text text-anchor="middle" x="438" y="-138" font-family="Helvetica,sans-Serif" font-size="10.00"> dimension(:), allocatable</text>
</g>
<!-- Node7&#45;&gt;Node1 -->
<g id="edge6" class="edge"><title>Node7&#45;&gt;Node1</title>
<path fill="none" stroke="#9a32cd" stroke-dasharray="5,2" d="M518.65,-161.53C545.24,-167.003 574.974,-173.435 602,-180 608.808,-181.654 616.057,-183.564 622.962,-185.455"/>
<polygon fill="#9a32cd" stroke="#9a32cd" points="519.124,-158.055 508.626,-159.481 517.722,-164.913 519.124,-158.055"/>
<text text-anchor="middle" x="567" y="-183" font-family="Helvetica,sans-Serif" font-size="10.00"> tracer_names</text>
</g>
<!-- Node8 -->
<g id="node8" class="node"><title>Node8</title>
<polygon fill="white" stroke="#bfbfbf" points="412.5,-0.5 412.5,-19.5 463.5,-19.5 463.5,-0.5 412.5,-0.5"/>
<text text-anchor="middle" x="438" y="-7.5" font-family="Helvetica,sans-Serif" font-size="10.00">integer</text>
</g>
<!-- Node8&#45;&gt;Node1 -->
<g id="edge7" class="edge"><title>Node8&#45;&gt;Node1</title>
<path fill="none" stroke="#9a32cd" stroke-dasharray="5,2" d="M473.863,-6.91216C510.105,-5.66048 566.413,-9.48661 602,-40 647.213,-78.7662 654.594,-157.545 655.78,-185.165"/>
<polygon fill="#9a32cd" stroke="#9a32cd" points="473.572,-3.42217 463.756,-7.41048 473.917,-10.4137 473.572,-3.42217"/>
<text text-anchor="middle" x="567" y="-153" font-family="Helvetica,sans-Serif" font-size="10.00"> npz</text>
<text text-anchor="middle" x="567" y="-142" font-family="Helvetica,sans-Serif" font-size="10.00">ncid</text>
<text text-anchor="middle" x="567" y="-131" font-family="Helvetica,sans-Serif" font-size="10.00">km</text>
<text text-anchor="middle" x="567" y="-120" font-family="Helvetica,sans-Serif" font-size="10.00">ntracers</text>
<text text-anchor="middle" x="567" y="-109" font-family="Helvetica,sans-Serif" font-size="10.00">jm</text>
<text text-anchor="middle" x="567" y="-98" font-family="Helvetica,sans-Serif" font-size="10.00">jdc</text>
<text text-anchor="middle" x="567" y="-87" font-family="Helvetica,sans-Serif" font-size="10.00">id1</text>
<text text-anchor="middle" x="567" y="-76" font-family="Helvetica,sans-Serif" font-size="10.00">im</text>
<text text-anchor="middle" x="567" y="-65" font-family="Helvetica,sans-Serif" font-size="10.00">id2</text>
<text text-anchor="middle" x="567" y="-54" font-family="Helvetica,sans-Serif" font-size="10.00">js</text>
<text text-anchor="middle" x="567" y="-43" font-family="Helvetica,sans-Serif" font-size="10.00">...</text>
</g>
</g>
</svg>
        <g id="navigator" transform="translate(0 0)" fill="#404254">
                <rect fill="#f2f5e9" fill-opacity="0.5" stroke="#606060" stroke-width=".5" x="0" y="0" width="60" height="60"/>
                <use id="zoomplus" xlink:href="#zoomPlus" x="17" y="9" onmousedown="handleZoom(evt,'in')"/>
                <use id="zoomminus" xlink:href="#zoomMin" x="42" y="9" onmousedown="handleZoom(evt,'out')"/>
                <use id="reset" xlink:href="#resetDef" x="30" y="36" onmousedown="handleReset()"/>
                <g id="arrowUp" xlink:href="#dirArrow" transform="translate(30 24)" onmousedown="handlePan(0,-1)">
                  <use xlink:href="#rim" fill="#404040">
                        <set attributeName="fill" to="#808080" begin="arrowUp.mouseover" end="arrowUp.mouseout"/>
                  </use>
                  <path fill="none" stroke="white" stroke-width="1.5" d="M0,-3.0v7 M-2.5,-0.5L0,-3.0L2.5,-0.5"/>
                </g>
                <g id="arrowRight" xlink:href="#dirArrow" transform="rotate(90) translate(36 -43)" onmousedown="handlePan(1,0)">
                  <use xlink:href="#rim" fill="#404040">
                        <set attributeName="fill" to="#808080" begin="arrowRight.mouseover" end="arrowRight.mouseout"/>
                  </use>
                  <path fill="none" stroke="white" stroke-width="1.5" d="M0,-3.0v7 M-2.5,-0.5L0,-3.0L2.5,-0.5"/>
                </g>
                <g id="arrowDown" xlink:href="#dirArrow" transform="rotate(180) translate(-30 -48)" onmousedown="handlePan(0,1)">
                  <use xlink:href="#rim" fill="#404040">
                        <set attributeName="fill" to="#808080" begin="arrowDown.mouseover" end="arrowDown.mouseout"/>
                  </use>
                  <path fill="none" stroke="white" stroke-width="1.5" d="M0,-3.0v7 M-2.5,-0.5L0,-3.0L2.5,-0.5"/>
                </g>
                <g id="arrowLeft" xlink:href="#dirArrow" transform="rotate(270) translate(-36 17)" onmousedown="handlePan(-1,0)">
                  <use xlink:href="#rim" fill="#404040">
                        <set attributeName="fill" to="#808080" begin="arrowLeft.mouseover" end="arrowLeft.mouseout"/>
                  </use>
                  <path fill="none" stroke="white" stroke-width="1.5" d="M0,-3.0v7 M-2.5,-0.5L0,-3.0L2.5,-0.5"/>
                </g>
        </g>
        <svg viewBox="0 0 15 15" width="100%" height="30px" preserveAspectRatio="xMaxYMin meet">
         <g id="arrow_out" transform="scale(0.3 0.3)">
          <a xlink:href="classfv__iau__mod__coll__graph_org.svg" target="_base">
           <rect id="button" ry="5" rx="5" y="6" x="6" height="38" width="38"
                fill="#f2f5e9" fill-opacity="0.5" stroke="#606060" stroke-width="1.0"/>
           <path id="arrow"
             d="M 11.500037,31.436501 C 11.940474,20.09759 22.043105,11.32322 32.158766,21.979434 L 37.068811,17.246167 C 37.068811,17.246167 37.088388,32 37.088388,32 L 22.160133,31.978069 C 22.160133,31.978069 26.997745,27.140456 26.997745,27.140456 C 18.528582,18.264221 13.291696,25.230495 11.500037,31.436501 z"
             style="fill:#404040;"/>
          </a>
         </g>
        </svg>
</svg>
