<?xml version="1.0" encoding="UTF-8" standalone="no"?>
<!DOCTYPE svg PUBLIC "-//W3C//DTD SVG 1.1//EN"
 "http://www.w3.org/Graphics/SVG/1.1/DTD/svg11.dtd">
<!-- Generated by graphviz version 2.30.1 (20180420.1509)
 -->
<!-- Title: test_cases_mod Pages: 1 -->
<svg width="348pt" height="206pt"
 viewBox="0.00 0.00 348.00 206.00" xmlns="http://www.w3.org/2000/svg" xmlns:xlink="http://www.w3.org/1999/xlink">
<g id="graph0" class="graph" transform="scale(1 1) rotate(0) translate(4 202)">
<title>test_cases_mod</title>
<polygon fill="white" stroke="white" points="-4,5 -4,-202 345,-202 345,5 -4,5"/>
<!-- Node1 -->
<g id="node1" class="node"><title>Node1</title>
<polygon fill="#bfbfbf" stroke="black" points="107.5,-0.5 107.5,-19.5 202.5,-19.5 202.5,-0.5 107.5,-0.5"/>
<text text-anchor="middle" x="155" y="-7.5" font-family="Helvetica,sans-Serif" font-size="10.00">test_cases_mod</text>
</g>
<!-- Node2 -->
<g id="node2" class="node"><title>Node2</title>
<polygon fill="white" stroke="#bfbfbf" points="-0.5,-178.5 -0.5,-197.5 48.5,-197.5 48.5,-178.5 -0.5,-178.5"/>
<text text-anchor="middle" x="24" y="-185.5" font-family="Helvetica,sans-Serif" font-size="10.00">logical</text>
</g>
<!-- Node2&#45;&gt;Node1 -->
<g id="edge1" class="edge"><title>Node2&#45;&gt;Node1</title>
<path fill="none" stroke="#9a32cd" stroke-dasharray="5,2" d="M18.4428,-168.438C10.4178,-137.463 -0.264433,-74.9927 31,-38 40.9196,-26.2629 76.849,-19.3 107.496,-15.3934"/>
<polygon fill="#9a32cd" stroke="#9a32cd" points="15.1405,-169.626 21.1966,-178.32 21.8835,-167.747 15.1405,-169.626"/>
<text text-anchor="middle" x="65.5" y="-102" font-family="Helvetica,sans-Serif" font-size="10.00"> gh_initialized</text>
<text text-anchor="middle" x="65.5" y="-91" font-family="Helvetica,sans-Serif" font-size="10.00">bubble_do</text>
</g>
<!-- Node3 -->
<g id="node3" class="node"><title>Node3</title>
<polygon fill="white" stroke="#bfbfbf" points="98.5,-178.5 98.5,-197.5 133.5,-197.5 133.5,-178.5 98.5,-178.5"/>
<text text-anchor="middle" x="116" y="-185.5" font-family="Helvetica,sans-Serif" font-size="10.00">real</text>
</g>
<!-- Node3&#45;&gt;Node1 -->
<g id="edge2" class="edge"><title>Node3&#45;&gt;Node1</title>
<path fill="none" stroke="#9a32cd" stroke-dasharray="5,2" d="M111.027,-168.501C104.166,-139.002 94.9731,-80.3226 117,-38 121.11,-30.1032 128.704,-24.0077 136.029,-19.6235"/>
<polygon fill="#9a32cd" stroke="#9a32cd" points="107.652,-169.431 113.472,-178.283 114.443,-167.733 107.652,-169.431"/>
<text text-anchor="middle" x="144.5" y="-151.5" font-family="Helvetica,sans-Serif" font-size="10.00"> ua0</text>
<text text-anchor="middle" x="144.5" y="-140.5" font-family="Helvetica,sans-Serif" font-size="10.00">va0</text>
<text text-anchor="middle" x="144.5" y="-129.5" font-family="Helvetica,sans-Serif" font-size="10.00">tmass_orig</text>
<text text-anchor="middle" x="144.5" y="-118.5" font-family="Helvetica,sans-Serif" font-size="10.00">phi0</text>
<text text-anchor="middle" x="144.5" y="-107.5" font-family="Helvetica,sans-Serif" font-size="10.00">pz0</text>
<text text-anchor="middle" x="144.5" y="-96.5" font-family="Helvetica,sans-Serif" font-size="10.00">pi_shift</text>
<text text-anchor="middle" x="144.5" y="-85.5" font-family="Helvetica,sans-Serif" font-size="10.00">lat0</text>
<text text-anchor="middle" x="144.5" y="-74.5" font-family="Helvetica,sans-Serif" font-size="10.00">rgamma</text>
<text text-anchor="middle" x="144.5" y="-63.5" font-family="Helvetica,sans-Serif" font-size="10.00">p0_c0</text>
<text text-anchor="middle" x="144.5" y="-52.5" font-family="Helvetica,sans-Serif" font-size="10.00">lats_table</text>
<text text-anchor="middle" x="144.5" y="-41.5" font-family="Helvetica,sans-Serif" font-size="10.00">...</text>
</g>
<!-- Node4 -->
<g id="node4" class="node"><title>Node4</title>
<polygon fill="white" stroke="#bfbfbf" points="168.5,-178.5 168.5,-197.5 219.5,-197.5 219.5,-178.5 168.5,-178.5"/>
<text text-anchor="middle" x="194" y="-185.5" font-family="Helvetica,sans-Serif" font-size="10.00">integer</text>
</g>
<!-- Node4&#45;&gt;Node1 -->
<g id="edge3" class="edge"><title>Node4&#45;&gt;Node1</title>
<path fill="none" stroke="#9a32cd" stroke-dasharray="5,2" d="M193.685,-168.005C192.661,-139.073 188.503,-82.6189 172,-38 169.54,-31.35 165.29,-24.6 161.655,-19.5125"/>
<polygon fill="#9a32cd" stroke="#9a32cd" points="190.194,-168.388 193.954,-178.293 197.191,-168.205 190.194,-168.388"/>
<text text-anchor="middle" x="230.5" y="-151.5" font-family="Helvetica,sans-Serif" font-size="10.00"> tracer_test</text>
<text text-anchor="middle" x="230.5" y="-140.5" font-family="Helvetica,sans-Serif" font-size="10.00">interporder</text>
<text text-anchor="middle" x="230.5" y="-129.5" font-family="Helvetica,sans-Serif" font-size="10.00">initwindscase0</text>
<text text-anchor="middle" x="230.5" y="-118.5" font-family="Helvetica,sans-Serif" font-size="10.00">theta_d</text>
<text text-anchor="middle" x="230.5" y="-107.5" font-family="Helvetica,sans-Serif" font-size="10.00">wind_field</text>
<text text-anchor="middle" x="230.5" y="-96.5" font-family="Helvetica,sans-Serif" font-size="10.00">initwindscase1</text>
<text text-anchor="middle" x="230.5" y="-85.5" font-family="Helvetica,sans-Serif" font-size="10.00">initwindscase2</text>
<text text-anchor="middle" x="230.5" y="-74.5" font-family="Helvetica,sans-Serif" font-size="10.00">test_case</text>
<text text-anchor="middle" x="230.5" y="-63.5" font-family="Helvetica,sans-Serif" font-size="10.00">initwindscase5</text>
<text text-anchor="middle" x="230.5" y="-52.5" font-family="Helvetica,sans-Serif" font-size="10.00">nsolitons</text>
<text text-anchor="middle" x="230.5" y="-41.5" font-family="Helvetica,sans-Serif" font-size="10.00">...</text>
</g>
<!-- Node5 -->
<g id="node5" class="node"><title>Node5</title>
<polygon fill="white" stroke="#bfbfbf" points="240,-178.5 240,-197.5 340,-197.5 340,-178.5 240,-178.5"/>
<text text-anchor="middle" x="290" y="-185.5" font-family="Helvetica,sans-Serif" font-size="10.00">real(kind=r_grid)</text>
</g>
<!-- Node5&#45;&gt;Node1 -->
<g id="edge4" class="edge"><title>Node5&#45;&gt;Node1</title>
<path fill="none" stroke="#9a32cd" stroke-dasharray="5,2" d="M293.262,-168.237C297.539,-136.965 301.028,-74.0685 268,-38 259.01,-28.182 229.247,-21.3104 202.524,-16.9569"/>
<polygon fill="#9a32cd" stroke="#9a32cd" points="289.787,-167.801 291.716,-178.219 296.705,-168.872 289.787,-167.801"/>
<text text-anchor="middle" x="310.5" y="-102" font-family="Helvetica,sans-Serif" font-size="10.00"> one</text>
<text text-anchor="middle" x="310.5" y="-91" font-family="Helvetica,sans-Serif" font-size="10.00">radius</text>
</g>
</g>
</svg>
