<?xml version="1.0" encoding="UTF-8" standalone="no"?>
<!DOCTYPE svg PUBLIC "-//W3C//DTD SVG 1.1//EN"
 "http://www.w3.org/Graphics/SVG/1.1/DTD/svg11.dtd">
<!-- Generated by graphviz version 2.30.1 (20180420.1509)
 -->
<!-- Title: fv_io_mod Pages: 1 -->
<svg width="244pt" height="162pt"
 viewBox="0.00 0.00 244.00 162.00" xmlns="http://www.w3.org/2000/svg" xmlns:xlink="http://www.w3.org/1999/xlink">
<g id="graph0" class="graph" transform="scale(1 1) rotate(0) translate(4 158)">
<title>fv_io_mod</title>
<polygon fill="white" stroke="white" points="-4,5 -4,-158 241,-158 241,5 -4,5"/>
<!-- Node1 -->
<g id="node1" class="node"><title>Node1</title>
<polygon fill="#bfbfbf" stroke="black" points="55,-0.5 55,-19.5 123,-19.5 123,-0.5 55,-0.5"/>
<text text-anchor="middle" x="89" y="-7.5" font-family="Helvetica,sans-Serif" font-size="10.00">fv_io_mod</text>
</g>
<!-- Node2 -->
<g id="node2" class="node"><title>Node2</title>
<polygon fill="white" stroke="#bfbfbf" points="-0.5,-134.5 -0.5,-153.5 48.5,-153.5 48.5,-134.5 -0.5,-134.5"/>
<text text-anchor="middle" x="24" y="-141.5" font-family="Helvetica,sans-Serif" font-size="10.00">logical</text>
</g>
<!-- Node2&#45;&gt;Node1 -->
<g id="edge1" class="edge"><title>Node2&#45;&gt;Node1</title>
<path fill="none" stroke="#9a32cd" stroke-dasharray="5,2" d="M18.5257,-124.561C13.033,-102.086 7.63265,-63.9078 25,-38 31.8492,-27.7827 43.4006,-21.421 54.8198,-17.4645"/>
<polygon fill="#9a32cd" stroke="#9a32cd" points="15.2173,-125.734 21.2082,-134.472 21.9742,-123.905 15.2173,-125.734"/>
<text text-anchor="middle" x="78.5" y="-74.5" font-family="Helvetica,sans-Serif" font-size="10.00"> module_is_initialized</text>
</g>
<!-- Node3 -->
<g id="node3" class="node"><title>Node3</title>
<polygon fill="white" stroke="#bfbfbf" points="128.5,-134.5 128.5,-153.5 179.5,-153.5 179.5,-134.5 128.5,-134.5"/>
<text text-anchor="middle" x="154" y="-141.5" font-family="Helvetica,sans-Serif" font-size="10.00">integer</text>
</g>
<!-- Node3&#45;&gt;Node1 -->
<g id="edge2" class="edge"><title>Node3&#45;&gt;Node1</title>
<path fill="none" stroke="#9a32cd" stroke-dasharray="5,2" d="M154.341,-123.995C153.835,-101.52 150.037,-63.9001 132,-38 126.459,-30.043 117.74,-23.939 109.598,-19.5647"/>
<polygon fill="#9a32cd" stroke="#9a32cd" points="150.842,-124.233 154.364,-134.225 157.842,-124.217 150.842,-124.233"/>
<text text-anchor="middle" x="194.5" y="-107.5" font-family="Helvetica,sans-Serif" font-size="10.00"> pfullid</text>
<text text-anchor="middle" x="194.5" y="-96.5" font-family="Helvetica,sans-Serif" font-size="10.00">grid_xtstagdimid</text>
<text text-anchor="middle" x="194.5" y="-85.5" font-family="Helvetica,sans-Serif" font-size="10.00">haloid</text>
<text text-anchor="middle" x="194.5" y="-74.5" font-family="Helvetica,sans-Serif" font-size="10.00">grid_ytdimid</text>
<text text-anchor="middle" x="194.5" y="-63.5" font-family="Helvetica,sans-Serif" font-size="10.00">grid_xtdimid</text>
<text text-anchor="middle" x="194.5" y="-52.5" font-family="Helvetica,sans-Serif" font-size="10.00">oneid</text>
<text text-anchor="middle" x="194.5" y="-41.5" font-family="Helvetica,sans-Serif" font-size="10.00">grid_ytstagdimid</text>
</g>
</g>
</svg>
