<?xml version="1.0" encoding="UTF-8" standalone="no"?>
<!DOCTYPE svg PUBLIC "-//W3C//DTD SVG 1.1//EN"
 "http://www.w3.org/Graphics/SVG/1.1/DTD/svg11.dtd">
<!-- Generated by graphviz version 2.30.1 (20180420.1509)
 -->
<!-- Title: fv_grid_utils_mod Pages: 1 -->
<svg width="342pt" height="118pt"
 viewBox="0.00 0.00 342.00 118.00" xmlns="http://www.w3.org/2000/svg" xmlns:xlink="http://www.w3.org/1999/xlink">
<g id="graph0" class="graph" transform="scale(1 1) rotate(0) translate(4 114)">
<title>fv_grid_utils_mod</title>
<polygon fill="white" stroke="white" points="-4,5 -4,-114 339,-114 339,5 -4,5"/>
<!-- Node1 -->
<g id="node1" class="node"><title>Node1</title>
<polygon fill="#bfbfbf" stroke="black" points="95,-0.5 95,-19.5 199,-19.5 199,-0.5 95,-0.5"/>
<text text-anchor="middle" x="147" y="-7.5" font-family="Helvetica,sans-Serif" font-size="10.00">fv_grid_utils_mod</text>
</g>
<!-- Node2 -->
<g id="node2" class="node"><title>Node2</title>
<polygon fill="white" stroke="#bfbfbf" points="-0.5,-90.5 -0.5,-109.5 48.5,-109.5 48.5,-90.5 -0.5,-90.5"/>
<text text-anchor="middle" x="24" y="-97.5" font-family="Helvetica,sans-Serif" font-size="10.00">logical</text>
</g>
<!-- Node2&#45;&gt;Node1 -->
<g id="edge1" class="edge"><title>Node2&#45;&gt;Node1</title>
<path fill="none" stroke="#9a32cd" stroke-dasharray="5,2" d="M23.4192,-80.0834C24.0515,-66.6148 27.17,-49.0181 38,-38 52.8279,-22.9146 74.6665,-15.7664 94.9096,-12.5372"/>
<polygon fill="#9a32cd" stroke="#9a32cd" points="19.9187,-80.17 23.3582,-90.191 26.9186,-80.2124 19.9187,-80.17"/>
<text text-anchor="middle" x="67" y="-52.5" font-family="Helvetica,sans-Serif" font-size="10.00"> symm_grid</text>
</g>
<!-- Node3 -->
<g id="node3" class="node"><title>Node3</title>
<polygon fill="white" stroke="#bfbfbf" points="87.5,-90.5 87.5,-109.5 122.5,-109.5 122.5,-90.5 87.5,-90.5"/>
<text text-anchor="middle" x="105" y="-97.5" font-family="Helvetica,sans-Serif" font-size="10.00">real</text>
</g>
<!-- Node3&#45;&gt;Node1 -->
<g id="edge2" class="edge"><title>Node3&#45;&gt;Node1</title>
<path fill="none" stroke="#9a32cd" stroke-dasharray="5,2" d="M101.002,-80.5675C99.2259,-67.8311 98.8993,-50.9234 106,-38 110.432,-29.9328 118.422,-23.8669 126.179,-19.5495"/>
<polygon fill="#9a32cd" stroke="#9a32cd" points="97.5696,-81.2589 102.785,-90.4814 104.459,-80.0197 97.5696,-81.2589"/>
<text text-anchor="middle" x="137" y="-63.5" font-family="Helvetica,sans-Serif" font-size="10.00"> big_number</text>
<text text-anchor="middle" x="137" y="-52.5" font-family="Helvetica,sans-Serif" font-size="10.00">tiny_number</text>
<text text-anchor="middle" x="137" y="-41.5" font-family="Helvetica,sans-Serif" font-size="10.00">ptop_min</text>
</g>
<!-- Node4 -->
<g id="node4" class="node"><title>Node4</title>
<polygon fill="white" stroke="#bfbfbf" points="164.5,-90.5 164.5,-109.5 215.5,-109.5 215.5,-90.5 164.5,-90.5"/>
<text text-anchor="middle" x="190" y="-97.5" font-family="Helvetica,sans-Serif" font-size="10.00">integer</text>
</g>
<!-- Node4&#45;&gt;Node1 -->
<g id="edge3" class="edge"><title>Node4&#45;&gt;Node1</title>
<path fill="none" stroke="#9a32cd" stroke-dasharray="5,2" d="M185.038,-80.6511C181.277,-68.1909 175.479,-51.575 168,-38 164.332,-31.3425 159.082,-24.5925 154.749,-19.5069"/>
<polygon fill="#9a32cd" stroke="#9a32cd" points="181.697,-81.6973 187.811,-90.3503 188.427,-79.7734 181.697,-81.6973"/>
<text text-anchor="middle" x="192.5" y="-52.5" font-family="Helvetica,sans-Serif" font-size="10.00"> f_p</text>
</g>
<!-- Node5 -->
<g id="node5" class="node"><title>Node5</title>
<polygon fill="white" stroke="#bfbfbf" points="234,-90.5 234,-109.5 334,-109.5 334,-90.5 234,-90.5"/>
<text text-anchor="middle" x="284" y="-97.5" font-family="Helvetica,sans-Serif" font-size="10.00">real(kind=r_grid)</text>
</g>
<!-- Node5&#45;&gt;Node1 -->
<g id="edge4" class="edge"><title>Node5&#45;&gt;Node1</title>
<path fill="none" stroke="#9a32cd" stroke-dasharray="5,2" d="M266.856,-83.6681C251.599,-70.5063 228.307,-51.5674 206,-38 194.258,-30.8585 180.308,-24.3917 168.922,-19.5785"/>
<polygon fill="#9a32cd" stroke="#9a32cd" points="264.619,-86.3613 274.448,-90.3151 269.23,-81.0945 264.619,-86.3613"/>
<text text-anchor="middle" x="269" y="-52.5" font-family="Helvetica,sans-Serif" font-size="10.00"> radius</text>
</g>
</g>
</svg>
