<?xml version="1.0" encoding="UTF-8" standalone="no"?>
<!DOCTYPE svg PUBLIC "-//W3C//DTD SVG 1.1//EN"
 "http://www.w3.org/Graphics/SVG/1.1/DTD/svg11.dtd">
<!-- Generated by graphviz version 2.30.1 (20180420.1509)
 -->
<!-- Title: fv_nwp_nudge_mod Pages: 1 -->
<!--zoomable 755 -->
<svg id="main" version="1.1" xmlns="http://www.w3.org/2000/svg" xmlns:xlink="http://www.w3.org/1999/xlink" xml:space="preserve" onload="init(evt)">
<style type="text/css"><![CDATA[
.edge:hover path { stroke: red; }
.edge:hover polygon { stroke: red; fill: red; }
]]></style>
<script type="text/javascript"><![CDATA[
var edges = document.getElementsByTagName('g');
if (edges && edges.length) {
  for (var i=0;i<edges.length;i++) {
    if (edges[i].id.substr(0,4)=='edge') {
      edges[i].setAttribute('class','edge');
    }
  }
}
]]></script>
        <defs>
                <circle id="rim" cx="0" cy="0" r="7"/>
                <circle id="rim2" cx="0" cy="0" r="3.5"/>
                <g id="zoomPlus">
                        <use xlink:href="#rim" fill="#404040">
                                <set attributeName="fill" to="#808080" begin="zoomplus.mouseover" end="zoomplus.mouseout"/>
                        </use>
                        <path d="M-4,0h8M0,-4v8" fill="none" stroke="white" stroke-width="1.5" pointer-events="none"/>
                </g>
                <g id="zoomMin">
                        <use xlink:href="#rim" fill="#404040">
                                <set attributeName="fill" to="#808080" begin="zoomminus.mouseover" end="zoomminus.mouseout"/>
                        </use>
                        <path d="M-4,0h8" fill="none" stroke="white" stroke-width="1.5" pointer-events="none"/>
                </g>
                <g id="dirArrow">
                        <path fill="none" stroke="white" stroke-width="1.5" d="M0,-3.0v7 M-2.5,-0.5L0,-3.0L2.5,-0.5"/>
                </g>
               <g id="resetDef">
                       <use xlink:href="#rim2" fill="#404040">
                               <set attributeName="fill" to="#808080" begin="reset.mouseover" end="reset.mouseout"/>
                       </use>
               </g>
        </defs>

<script type="text/javascript">
var viewWidth = 380;
var viewHeight = 755;
var sectionId = 'dynsection-0';
</script>
<script xlink:href="svgpan.js"/>
<svg id="graph" class="graph">
<g id="viewport">
<title>fv_nwp_nudge_mod</title>
<polygon fill="white" stroke="white" points="-4,5 -4,-750.507 377,-750.507 377,5 -4,5"/>
<!-- Node1 -->
<g id="node1" class="node"><title>Node1</title>
<polygon fill="#bfbfbf" stroke="black" points="258,-348.007 258,-367.007 372,-367.007 372,-348.007 258,-348.007"/>
<text text-anchor="middle" x="315" y="-355.007" font-family="Helvetica,sans-Serif" font-size="10.00">fv_nwp_nudge_mod</text>
</g>
<!-- Node2 -->
<g id="node2" class="node"><title>Node2</title>
<polygon fill="white" stroke="#bfbfbf" points="43.5,-610.007 43.5,-629.007 92.5,-629.007 92.5,-610.007 43.5,-610.007"/>
<text text-anchor="middle" x="68" y="-617.007" font-family="Helvetica,sans-Serif" font-size="10.00">logical</text>
</g>
<!-- Node2&#45;&gt;Node1 -->
<g id="edge1" class="edge"><title>Node2&#45;&gt;Node1</title>
<path fill="none" stroke="#9a32cd" stroke-dasharray="5,2" d="M102.599,-624.795C140.475,-628.758 201.745,-628.867 240,-596.507 312.626,-535.071 315.149,-403.841 314.361,-367.191"/>
<polygon fill="#9a32cd" stroke="#9a32cd" points="102.919,-621.309 92.5747,-623.599 102.089,-628.259 102.919,-621.309"/>
<text text-anchor="middle" x="197" y="-738.507" font-family="Helvetica,sans-Serif" font-size="10.00"> add_bg_wind</text>
<text text-anchor="middle" x="197" y="-727.507" font-family="Helvetica,sans-Serif" font-size="10.00">use_pt_inc</text>
<text text-anchor="middle" x="197" y="-716.507" font-family="Helvetica,sans-Serif" font-size="10.00">no_obs</text>
<text text-anchor="middle" x="197" y="-705.507" font-family="Helvetica,sans-Serif" font-size="10.00">nudge_q</text>
<text text-anchor="middle" x="197" y="-694.507" font-family="Helvetica,sans-Serif" font-size="10.00">conserve_mom</text>
<text text-anchor="middle" x="197" y="-683.507" font-family="Helvetica,sans-Serif" font-size="10.00">master</text>
<text text-anchor="middle" x="197" y="-672.507" font-family="Helvetica,sans-Serif" font-size="10.00">nudge_virt</text>
<text text-anchor="middle" x="197" y="-661.507" font-family="Helvetica,sans-Serif" font-size="10.00">nudge_ps</text>
<text text-anchor="middle" x="197" y="-650.507" font-family="Helvetica,sans-Serif" font-size="10.00">print_end_breed</text>
<text text-anchor="middle" x="197" y="-639.507" font-family="Helvetica,sans-Serif" font-size="10.00">nudge_winds</text>
<text text-anchor="middle" x="197" y="-628.507" font-family="Helvetica,sans-Serif" font-size="10.00">...</text>
</g>
<!-- Node3 -->
<g id="node3" class="node"><title>Node3</title>
<polygon fill="white" stroke="#bfbfbf" points="0.5,-537.507 0.5,-567.507 135.5,-567.507 135.5,-537.507 0.5,-537.507"/>
<text text-anchor="start" x="8.5" y="-555.507" font-family="Helvetica,sans-Serif" font-size="10.00">real(kind=4), dimension</text>
<text text-anchor="middle" x="68" y="-544.507" font-family="Helvetica,sans-Serif" font-size="10.00">(:,:,:,:), allocatable</text>
</g>
<!-- Node3&#45;&gt;Node1 -->
<g id="edge2" class="edge"><title>Node3&#45;&gt;Node1</title>
<path fill="none" stroke="#9a32cd" stroke-dasharray="5,2" d="M145.925,-549.972C184.06,-547.283 225.095,-541.774 240,-530.507 295.246,-488.745 309.739,-397.509 313.089,-367.381"/>
<polygon fill="#9a32cd" stroke="#9a32cd" points="145.545,-546.489 135.792,-550.627 145.997,-553.474 145.545,-546.489"/>
<text text-anchor="middle" x="197" y="-584.507" font-family="Helvetica,sans-Serif" font-size="10.00"> q_dat</text>
<text text-anchor="middle" x="197" y="-573.507" font-family="Helvetica,sans-Serif" font-size="10.00">t_dat</text>
<text text-anchor="middle" x="197" y="-562.507" font-family="Helvetica,sans-Serif" font-size="10.00">u_dat</text>
<text text-anchor="middle" x="197" y="-551.507" font-family="Helvetica,sans-Serif" font-size="10.00">v_dat</text>
</g>
<!-- Node4 -->
<g id="node4" class="node"><title>Node4</title>
<polygon fill="white" stroke="#bfbfbf" points="0,-437.507 0,-467.507 136,-467.507 136,-437.507 0,-437.507"/>
<text text-anchor="start" x="8" y="-455.507" font-family="Helvetica,sans-Serif" font-size="10.00">real(kind=4), dimension</text>
<text text-anchor="middle" x="68" y="-444.507" font-family="Helvetica,sans-Serif" font-size="10.00">(nobs_max, max_storm)</text>
</g>
<!-- Node4&#45;&gt;Node1 -->
<g id="edge3" class="edge"><title>Node4&#45;&gt;Node1</title>
<path fill="none" stroke="#9a32cd" stroke-dasharray="5,2" d="M146.548,-453.041C176.955,-450.615 211.351,-444.462 240,-430.507 270.501,-415.65 296.112,-383.244 307.566,-367.077"/>
<polygon fill="#9a32cd" stroke="#9a32cd" points="146.144,-449.56 136.403,-453.727 146.617,-456.544 146.144,-449.56"/>
<text text-anchor="middle" x="197" y="-520.507" font-family="Helvetica,sans-Serif" font-size="10.00"> x_obs</text>
<text text-anchor="middle" x="197" y="-509.507" font-family="Helvetica,sans-Serif" font-size="10.00">y_obs</text>
<text text-anchor="middle" x="197" y="-498.507" font-family="Helvetica,sans-Serif" font-size="10.00">rad_out</text>
<text text-anchor="middle" x="197" y="-487.507" font-family="Helvetica,sans-Serif" font-size="10.00">mslp_out</text>
<text text-anchor="middle" x="197" y="-476.507" font-family="Helvetica,sans-Serif" font-size="10.00">wind_obs</text>
<text text-anchor="middle" x="197" y="-465.507" font-family="Helvetica,sans-Serif" font-size="10.00">time_tc</text>
<text text-anchor="middle" x="197" y="-454.507" font-family="Helvetica,sans-Serif" font-size="10.00">mslp_obs</text>
</g>
<!-- Node5 -->
<g id="node5" class="node"><title>Node5</title>
<polygon fill="white" stroke="#bfbfbf" points="12.5,-370.007 12.5,-389.007 123.5,-389.007 123.5,-370.007 12.5,-370.007"/>
<text text-anchor="middle" x="68" y="-377.007" font-family="Helvetica,sans-Serif" font-size="10.00">character(len=128)</text>
</g>
<!-- Node5&#45;&gt;Node1 -->
<g id="edge4" class="edge"><title>Node5&#45;&gt;Node1</title>
<path fill="none" stroke="#9a32cd" stroke-dasharray="5,2" d="M133.768,-373.691C172.346,-370.227 220.829,-365.873 257.79,-362.554"/>
<polygon fill="#9a32cd" stroke="#9a32cd" points="133.325,-370.216 123.678,-374.597 133.951,-377.188 133.325,-370.216"/>
<text text-anchor="middle" x="197" y="-418.507" font-family="Helvetica,sans-Serif" font-size="10.00"> input_fname_list</text>
<text text-anchor="middle" x="197" y="-407.507" font-family="Helvetica,sans-Serif" font-size="10.00">file_names</text>
<text text-anchor="middle" x="197" y="-396.507" font-family="Helvetica,sans-Serif" font-size="10.00">analysis_file_first</text>
<text text-anchor="middle" x="197" y="-385.507" font-family="Helvetica,sans-Serif" font-size="10.00">analysis_file_last</text>
<text text-anchor="middle" x="197" y="-374.507" font-family="Helvetica,sans-Serif" font-size="10.00">track_file_name</text>
</g>
<!-- Node6 -->
<g id="node6" class="node"><title>Node6</title>
<polygon fill="white" stroke="#bfbfbf" points="0.5,-320.507 0.5,-350.507 135.5,-350.507 135.5,-320.507 0.5,-320.507"/>
<text text-anchor="start" x="8.5" y="-338.507" font-family="Helvetica,sans-Serif" font-size="10.00">real(kind=4), dimension</text>
<text text-anchor="middle" x="68" y="-327.507" font-family="Helvetica,sans-Serif" font-size="10.00">(:,:,:), allocatable</text>
</g>
<!-- Node6&#45;&gt;Node1 -->
<g id="edge5" class="edge"><title>Node6&#45;&gt;Node1</title>
<path fill="none" stroke="#9a32cd" stroke-dasharray="5,2" d="M145.848,-341.371C175.31,-343.731 209.23,-346.584 240,-349.507 245.789,-350.056 251.829,-350.66 257.854,-351.282"/>
<polygon fill="#9a32cd" stroke="#9a32cd" points="145.872,-337.862 135.626,-340.557 145.317,-344.839 145.872,-337.862"/>
<text text-anchor="middle" x="197" y="-352.507" font-family="Helvetica,sans-Serif" font-size="10.00"> gz3</text>
</g>
<!-- Node7 -->
<g id="node7" class="node"><title>Node7</title>
<polygon fill="white" stroke="#bfbfbf" points="50.5,-187.007 50.5,-206.007 85.5,-206.007 85.5,-187.007 50.5,-187.007"/>
<text text-anchor="middle" x="68" y="-194.007" font-family="Helvetica,sans-Serif" font-size="10.00">real</text>
</g>
<!-- Node7&#45;&gt;Node1 -->
<g id="edge6" class="edge"><title>Node7&#45;&gt;Node1</title>
<path fill="none" stroke="#9a32cd" stroke-dasharray="5,2" d="M95.7943,-192.436C131.881,-188.441 196.575,-186.673 240,-216.507 287.395,-249.068 306.625,-321.799 312.17,-347.929"/>
<polygon fill="#9a32cd" stroke="#9a32cd" points="95.0569,-189.001 85.5686,-193.715 95.9257,-195.947 95.0569,-189.001"/>
<text text-anchor="middle" x="197" y="-329.507" font-family="Helvetica,sans-Serif" font-size="10.00"> del2_cd</text>
<text text-anchor="middle" x="197" y="-318.507" font-family="Helvetica,sans-Serif" font-size="10.00">r_lo</text>
<text text-anchor="middle" x="197" y="-307.507" font-family="Helvetica,sans-Serif" font-size="10.00">pre0_env</text>
<text text-anchor="middle" x="197" y="-296.507" font-family="Helvetica,sans-Serif" font-size="10.00">tau_q</text>
<text text-anchor="middle" x="197" y="-285.507" font-family="Helvetica,sans-Serif" font-size="10.00">r_fac</text>
<text text-anchor="middle" x="197" y="-274.507" font-family="Helvetica,sans-Serif" font-size="10.00">pt_lim</text>
<text text-anchor="middle" x="197" y="-263.507" font-family="Helvetica,sans-Serif" font-size="10.00">mask_fac</text>
<text text-anchor="middle" x="197" y="-252.507" font-family="Helvetica,sans-Serif" font-size="10.00">ak0</text>
<text text-anchor="middle" x="197" y="-241.507" font-family="Helvetica,sans-Serif" font-size="10.00">tau_vt_rad</text>
<text text-anchor="middle" x="197" y="-230.507" font-family="Helvetica,sans-Serif" font-size="10.00">rad2deg</text>
<text text-anchor="middle" x="197" y="-219.507" font-family="Helvetica,sans-Serif" font-size="10.00">...</text>
</g>
<!-- Node8 -->
<g id="node8" class="node"><title>Node8</title>
<polygon fill="white" stroke="#bfbfbf" points="42.5,-43.0066 42.5,-62.0066 93.5,-62.0066 93.5,-43.0066 42.5,-43.0066"/>
<text text-anchor="middle" x="68" y="-50.0066" font-family="Helvetica,sans-Serif" font-size="10.00">integer</text>
</g>
<!-- Node8&#45;&gt;Node1 -->
<g id="edge7" class="edge"><title>Node8&#45;&gt;Node1</title>
<path fill="none" stroke="#9a32cd" stroke-dasharray="5,2" d="M103.609,-44.6342C141.619,-38.1723 202.259,-34.6058 240,-66.5066 284.888,-104.449 308.114,-301.338 313.011,-347.715"/>
<polygon fill="#9a32cd" stroke="#9a32cd" points="102.72,-41.2395 93.5267,-46.5065 103.998,-48.1218 102.72,-41.2395"/>
<text text-anchor="middle" x="197" y="-179.507" font-family="Helvetica,sans-Serif" font-size="10.00"> year_track_data</text>
<text text-anchor="middle" x="197" y="-168.507" font-family="Helvetica,sans-Serif" font-size="10.00">kbot_t</text>
<text text-anchor="middle" x="197" y="-157.507" font-family="Helvetica,sans-Serif" font-size="10.00">k_breed</text>
<text text-anchor="middle" x="197" y="-146.507" font-family="Helvetica,sans-Serif" font-size="10.00">ied</text>
<text text-anchor="middle" x="197" y="-135.507" font-family="Helvetica,sans-Serif" font-size="10.00">kbot_winds</text>
<text text-anchor="middle" x="197" y="-124.507" font-family="Helvetica,sans-Serif" font-size="10.00">nf_uv</text>
<text text-anchor="middle" x="197" y="-113.507" font-family="Helvetica,sans-Serif" font-size="10.00">jend</text>
<text text-anchor="middle" x="197" y="-102.507" font-family="Helvetica,sans-Serif" font-size="10.00">km</text>
<text text-anchor="middle" x="197" y="-91.5066" font-family="Helvetica,sans-Serif" font-size="10.00">jed</text>
<text text-anchor="middle" x="197" y="-80.5066" font-family="Helvetica,sans-Serif" font-size="10.00">jdc</text>
<text text-anchor="middle" x="197" y="-69.5066" font-family="Helvetica,sans-Serif" font-size="10.00">...</text>
</g>
<!-- Node9 -->
<g id="node9" class="node"><title>Node9</title>
<polygon fill="white" stroke="#bfbfbf" points="18,-5.00663 18,-24.0066 118,-24.0066 118,-5.00663 18,-5.00663"/>
<text text-anchor="middle" x="68" y="-12.0066" font-family="Helvetica,sans-Serif" font-size="10.00">real(kind=r_grid)</text>
</g>
<!-- Node9&#45;&gt;Node1 -->
<g id="edge8" class="edge"><title>Node9&#45;&gt;Node1</title>
<path fill="none" stroke="#9a32cd" stroke-dasharray="5,2" d="M117.759,-3.29268C155.529,2.33623 206.842,2.87104 240,-25.5066 291.035,-69.1835 309.804,-297.424 313.35,-347.702"/>
<polygon fill="#9a32cd" stroke="#9a32cd" points="116.784,0.0935047 107.491,-4.99561 117.929,-6.81216 116.784,0.0935047"/>
<text text-anchor="middle" x="197" y="-28.5066" font-family="Helvetica,sans-Serif" font-size="10.00"> radius</text>
</g>
</g>
</svg>
        <g id="navigator" transform="translate(0 0)" fill="#404254">
                <rect fill="#f2f5e9" fill-opacity="0.5" stroke="#606060" stroke-width=".5" x="0" y="0" width="60" height="60"/>
                <use id="zoomplus" xlink:href="#zoomPlus" x="17" y="9" onmousedown="handleZoom(evt,'in')"/>
                <use id="zoomminus" xlink:href="#zoomMin" x="42" y="9" onmousedown="handleZoom(evt,'out')"/>
                <use id="reset" xlink:href="#resetDef" x="30" y="36" onmousedown="handleReset()"/>
                <g id="arrowUp" xlink:href="#dirArrow" transform="translate(30 24)" onmousedown="handlePan(0,-1)">
                  <use xlink:href="#rim" fill="#404040">
                        <set attributeName="fill" to="#808080" begin="arrowUp.mouseover" end="arrowUp.mouseout"/>
                  </use>
                  <path fill="none" stroke="white" stroke-width="1.5" d="M0,-3.0v7 M-2.5,-0.5L0,-3.0L2.5,-0.5"/>
                </g>
                <g id="arrowRight" xlink:href="#dirArrow" transform="rotate(90) translate(36 -43)" onmousedown="handlePan(1,0)">
                  <use xlink:href="#rim" fill="#404040">
                        <set attributeName="fill" to="#808080" begin="arrowRight.mouseover" end="arrowRight.mouseout"/>
                  </use>
                  <path fill="none" stroke="white" stroke-width="1.5" d="M0,-3.0v7 M-2.5,-0.5L0,-3.0L2.5,-0.5"/>
                </g>
                <g id="arrowDown" xlink:href="#dirArrow" transform="rotate(180) translate(-30 -48)" onmousedown="handlePan(0,1)">
                  <use xlink:href="#rim" fill="#404040">
                        <set attributeName="fill" to="#808080" begin="arrowDown.mouseover" end="arrowDown.mouseout"/>
                  </use>
                  <path fill="none" stroke="white" stroke-width="1.5" d="M0,-3.0v7 M-2.5,-0.5L0,-3.0L2.5,-0.5"/>
                </g>
                <g id="arrowLeft" xlink:href="#dirArrow" transform="rotate(270) translate(-36 17)" onmousedown="handlePan(-1,0)">
                  <use xlink:href="#rim" fill="#404040">
                        <set attributeName="fill" to="#808080" begin="arrowLeft.mouseover" end="arrowLeft.mouseout"/>
                  </use>
                  <path fill="none" stroke="white" stroke-width="1.5" d="M0,-3.0v7 M-2.5,-0.5L0,-3.0L2.5,-0.5"/>
                </g>
        </g>
        <svg viewBox="0 0 15 15" width="100%" height="30px" preserveAspectRatio="xMaxYMin meet">
         <g id="arrow_out" transform="scale(0.3 0.3)">
          <a xlink:href="classfv__nwp__nudge__mod__coll__graph_org.svg" target="_base">
           <rect id="button" ry="5" rx="5" y="6" x="6" height="38" width="38"
                fill="#f2f5e9" fill-opacity="0.5" stroke="#606060" stroke-width="1.0"/>
           <path id="arrow"
             d="M 11.500037,31.436501 C 11.940474,20.09759 22.043105,11.32322 32.158766,21.979434 L 37.068811,17.246167 C 37.068811,17.246167 37.088388,32 37.088388,32 L 22.160133,31.978069 C 22.160133,31.978069 26.997745,27.140456 26.997745,27.140456 C 18.528582,18.264221 13.291696,25.230495 11.500037,31.436501 z"
             style="fill:#404040;"/>
          </a>
         </g>
        </svg>
</svg>
