<?xml version="1.0" encoding="UTF-8" standalone="no"?>
<!DOCTYPE svg PUBLIC "-//W3C//DTD SVG 1.1//EN"
 "http://www.w3.org/Graphics/SVG/1.1/DTD/svg11.dtd">
<!-- Generated by graphviz version 2.30.1 (20180420.1509)
 -->
<!-- Title: fv_cmp_mod Pages: 1 -->
<svg width="264pt" height="206pt"
 viewBox="0.00 0.00 264.00 206.00" xmlns="http://www.w3.org/2000/svg" xmlns:xlink="http://www.w3.org/1999/xlink">
<g id="graph0" class="graph" transform="scale(1 1) rotate(0) translate(4 202)">
<title>fv_cmp_mod</title>
<polygon fill="white" stroke="white" points="-4,5 -4,-202 261,-202 261,5 -4,5"/>
<!-- Node1 -->
<g id="node1" class="node"><title>Node1</title>
<polygon fill="#bfbfbf" stroke="black" points="80,-0.5 80,-19.5 160,-19.5 160,-0.5 80,-0.5"/>
<text text-anchor="middle" x="120" y="-7.5" font-family="Helvetica,sans-Serif" font-size="10.00">fv_cmp_mod</text>
</g>
<!-- Node2 -->
<g id="node2" class="node"><title>Node2</title>
<polygon fill="white" stroke="#bfbfbf" points="-0.5,-178.5 -0.5,-197.5 48.5,-197.5 48.5,-178.5 -0.5,-178.5"/>
<text text-anchor="middle" x="24" y="-185.5" font-family="Helvetica,sans-Serif" font-size="10.00">logical</text>
</g>
<!-- Node2&#45;&gt;Node1 -->
<g id="edge1" class="edge"><title>Node2&#45;&gt;Node1</title>
<path fill="none" stroke="#9a32cd" stroke-dasharray="5,2" d="M20.657,-168.234C16.2956,-137.418 12.4592,-75.7526 43,-38 52.0878,-26.7663 66.1577,-20.1981 79.7969,-16.361"/>
<polygon fill="#9a32cd" stroke="#9a32cd" points="17.2504,-169.097 22.2837,-178.42 24.1628,-167.993 17.2504,-169.097"/>
<text text-anchor="middle" x="79.5" y="-96.5" font-family="Helvetica,sans-Serif" font-size="10.00"> mp_initialized</text>
</g>
<!-- Node3 -->
<g id="node3" class="node"><title>Node3</title>
<polygon fill="white" stroke="#bfbfbf" points="102.5,-178.5 102.5,-197.5 137.5,-197.5 137.5,-178.5 102.5,-178.5"/>
<text text-anchor="middle" x="120" y="-185.5" font-family="Helvetica,sans-Serif" font-size="10.00">real</text>
</g>
<!-- Node3&#45;&gt;Node1 -->
<g id="edge2" class="edge"><title>Node3&#45;&gt;Node1</title>
<path fill="none" stroke="#9a32cd" stroke-dasharray="5,2" d="M120,-167.842C120,-129.973 120,-46.8574 120,-19.7429"/>
<polygon fill="#9a32cd" stroke="#9a32cd" points="116.5,-168.03 120,-178.03 123.5,-168.03 116.5,-168.03"/>
<text text-anchor="middle" x="139" y="-151.5" font-family="Helvetica,sans-Serif" font-size="10.00"> cp_vap</text>
<text text-anchor="middle" x="139" y="-140.5" font-family="Helvetica,sans-Serif" font-size="10.00">c_liq</text>
<text text-anchor="middle" x="139" y="-129.5" font-family="Helvetica,sans-Serif" font-size="10.00">d0_vap</text>
<text text-anchor="middle" x="139" y="-118.5" font-family="Helvetica,sans-Serif" font-size="10.00">dc_vap</text>
<text text-anchor="middle" x="139" y="-107.5" font-family="Helvetica,sans-Serif" font-size="10.00">des2</text>
<text text-anchor="middle" x="139" y="-96.5" font-family="Helvetica,sans-Serif" font-size="10.00">lv0</text>
<text text-anchor="middle" x="139" y="-85.5" font-family="Helvetica,sans-Serif" font-size="10.00">desw</text>
<text text-anchor="middle" x="139" y="-74.5" font-family="Helvetica,sans-Serif" font-size="10.00">cv_vap</text>
<text text-anchor="middle" x="139" y="-63.5" font-family="Helvetica,sans-Serif" font-size="10.00">table2</text>
<text text-anchor="middle" x="139" y="-52.5" font-family="Helvetica,sans-Serif" font-size="10.00">table</text>
<text text-anchor="middle" x="139" y="-41.5" font-family="Helvetica,sans-Serif" font-size="10.00">...</text>
</g>
<!-- Node4 -->
<g id="node4" class="node"><title>Node4</title>
<polygon fill="white" stroke="#bfbfbf" points="156,-178.5 156,-197.5 256,-197.5 256,-178.5 156,-178.5"/>
<text text-anchor="middle" x="206" y="-185.5" font-family="Helvetica,sans-Serif" font-size="10.00">real(kind=r_grid)</text>
</g>
<!-- Node4&#45;&gt;Node1 -->
<g id="edge3" class="edge"><title>Node4&#45;&gt;Node1</title>
<path fill="none" stroke="#9a32cd" stroke-dasharray="5,2" d="M204.647,-168.346C201.614,-138.169 191.984,-77.9951 162,-38 156.176,-30.2319 147.409,-24.093 139.389,-19.6445"/>
<polygon fill="#9a32cd" stroke="#9a32cd" points="201.162,-168.679 205.515,-178.338 208.136,-168.073 201.162,-168.679"/>
<text text-anchor="middle" x="217.5" y="-107.5" font-family="Helvetica,sans-Serif" font-size="10.00"> li2</text>
<text text-anchor="middle" x="217.5" y="-96.5" font-family="Helvetica,sans-Serif" font-size="10.00">d2ice</text>
<text text-anchor="middle" x="217.5" y="-85.5" font-family="Helvetica,sans-Serif" font-size="10.00">e00</text>
</g>
</g>
</svg>
