<?xml version="1.0" encoding="UTF-8" standalone="no"?>
<!DOCTYPE svg PUBLIC "-//W3C//DTD SVG 1.1//EN"
 "http://www.w3.org/Graphics/SVG/1.1/DTD/svg11.dtd">
<!-- Generated by graphviz version 2.30.1 (20180420.1509)
 -->
<!-- Title: external_ic_mod Pages: 1 -->
<svg width="284pt" height="106pt"
 viewBox="0.00 0.00 284.00 106.00" xmlns="http://www.w3.org/2000/svg" xmlns:xlink="http://www.w3.org/1999/xlink">
<g id="graph0" class="graph" transform="scale(1 1) rotate(0) translate(4 102)">
<title>external_ic_mod</title>
<polygon fill="white" stroke="white" points="-4,5 -4,-102 281,-102 281,5 -4,5"/>
<!-- Node1 -->
<g id="node1" class="node"><title>Node1</title>
<polygon fill="#bfbfbf" stroke="black" points="91,-0.5 91,-19.5 189,-19.5 189,-0.5 91,-0.5"/>
<text text-anchor="middle" x="140" y="-7.5" font-family="Helvetica,sans-Serif" font-size="10.00">external_ic_mod</text>
</g>
<!-- Node2 -->
<g id="node2" class="node"><title>Node2</title>
<polygon fill="white" stroke="#bfbfbf" points="-0.5,-78.5 -0.5,-97.5 104.5,-97.5 104.5,-78.5 -0.5,-78.5"/>
<text text-anchor="middle" x="52" y="-85.5" font-family="Helvetica,sans-Serif" font-size="10.00">character(len=80)</text>
</g>
<!-- Node2&#45;&gt;Node1 -->
<g id="edge1" class="edge"><title>Node2&#45;&gt;Node1</title>
<path fill="none" stroke="#9a32cd" stroke-dasharray="5,2" d="M66.5321,-70.5611C75.6804,-60.6318 87.9927,-48.0059 100,-38 108.11,-31.2418 117.927,-24.5955 125.805,-19.5881"/>
<polygon fill="#9a32cd" stroke="#9a32cd" points="63.7799,-68.3864 59.6679,-78.1507 68.9715,-73.0818 63.7799,-68.3864"/>
<text text-anchor="middle" x="118" y="-46.5" font-family="Helvetica,sans-Serif" font-size="10.00"> source</text>
</g>
<!-- Node3 -->
<g id="node3" class="node"><title>Node3</title>
<polygon fill="white" stroke="#bfbfbf" points="122.5,-78.5 122.5,-97.5 157.5,-97.5 157.5,-78.5 122.5,-78.5"/>
<text text-anchor="middle" x="140" y="-85.5" font-family="Helvetica,sans-Serif" font-size="10.00">real</text>
</g>
<!-- Node3&#45;&gt;Node1 -->
<g id="edge2" class="edge"><title>Node3&#45;&gt;Node1</title>
<path fill="none" stroke="#9a32cd" stroke-dasharray="5,2" d="M140,-68.2239C140,-52.6974 140,-31.3582 140,-19.6165"/>
<polygon fill="#9a32cd" stroke="#9a32cd" points="136.5,-68.2818 140,-78.2818 143.5,-68.2819 136.5,-68.2818"/>
<text text-anchor="middle" x="160" y="-52" font-family="Helvetica,sans-Serif" font-size="10.00"> zvir</text>
<text text-anchor="middle" x="160" y="-41" font-family="Helvetica,sans-Serif" font-size="10.00">deg2rad</text>
</g>
<!-- Node4 -->
<g id="node4" class="node"><title>Node4</title>
<polygon fill="white" stroke="#bfbfbf" points="176,-78.5 176,-97.5 276,-97.5 276,-78.5 176,-78.5"/>
<text text-anchor="middle" x="226" y="-85.5" font-family="Helvetica,sans-Serif" font-size="10.00">real(kind=r_grid)</text>
</g>
<!-- Node4&#45;&gt;Node1 -->
<g id="edge3" class="edge"><title>Node4&#45;&gt;Node1</title>
<path fill="none" stroke="#9a32cd" stroke-dasharray="5,2" d="M213.812,-70.2859C205.982,-60.2268 195.208,-47.5611 184,-38 175.681,-30.9036 165.299,-24.439 156.708,-19.6156"/>
<polygon fill="#9a32cd" stroke="#9a32cd" points="211.052,-72.4394 219.871,-78.3111 216.639,-68.2214 211.052,-72.4394"/>
<text text-anchor="middle" x="231.5" y="-46.5" font-family="Helvetica,sans-Serif" font-size="10.00"> cnst_0p20</text>
</g>
</g>
</svg>
