<?xml version="1.0" encoding="UTF-8" standalone="no"?>
<!DOCTYPE svg PUBLIC "-//W3C//DTD SVG 1.1//EN"
 "http://www.w3.org/Graphics/SVG/1.1/DTD/svg11.dtd">
<!-- Generated by graphviz version 2.30.1 (20180420.1509)
 -->
<!-- Title: fv_dynamics_mod Pages: 1 -->
<svg width="199pt" height="118pt"
 viewBox="0.00 0.00 199.00 118.00" xmlns="http://www.w3.org/2000/svg" xmlns:xlink="http://www.w3.org/1999/xlink">
<g id="graph0" class="graph" transform="scale(1 1) rotate(0) translate(4 114)">
<title>fv_dynamics_mod</title>
<polygon fill="white" stroke="white" points="-4,5 -4,-114 196,-114 196,5 -4,5"/>
<!-- Node1 -->
<g id="node1" class="node"><title>Node1</title>
<polygon fill="#bfbfbf" stroke="black" points="58,-0.5 58,-19.5 164,-19.5 164,-0.5 58,-0.5"/>
<text text-anchor="middle" x="111" y="-7.5" font-family="Helvetica,sans-Serif" font-size="10.00">fv_dynamics_mod</text>
</g>
<!-- Node2 -->
<g id="node2" class="node"><title>Node2</title>
<polygon fill="white" stroke="#bfbfbf" points="-0.5,-90.5 -0.5,-109.5 48.5,-109.5 48.5,-90.5 -0.5,-90.5"/>
<text text-anchor="middle" x="24" y="-97.5" font-family="Helvetica,sans-Serif" font-size="10.00">logical</text>
</g>
<!-- Node2&#45;&gt;Node1 -->
<g id="edge1" class="edge"><title>Node2&#45;&gt;Node1</title>
<path fill="none" stroke="#9a32cd" stroke-dasharray="5,2" d="M25.5703,-80.4094C27.6065,-67.1037 32.2796,-49.5679 43,-38 50.8569,-29.5219 61.7204,-23.6596 72.4602,-19.6246"/>
<polygon fill="#9a32cd" stroke="#9a32cd" points="22.0911,-80.0284 24.4052,-90.3674 29.0437,-80.8419 22.0911,-80.0284"/>
<text text-anchor="middle" x="75" y="-63.5" font-family="Helvetica,sans-Serif" font-size="10.00"> bad_range</text>
<text text-anchor="middle" x="75" y="-52.5" font-family="Helvetica,sans-Serif" font-size="10.00">rf_initialized</text>
<text text-anchor="middle" x="75" y="-41.5" font-family="Helvetica,sans-Serif" font-size="10.00">pt_initialized</text>
</g>
<!-- Node3 -->
<g id="node3" class="node"><title>Node3</title>
<polygon fill="white" stroke="#bfbfbf" points="85.5,-90.5 85.5,-109.5 136.5,-109.5 136.5,-90.5 85.5,-90.5"/>
<text text-anchor="middle" x="111" y="-97.5" font-family="Helvetica,sans-Serif" font-size="10.00">integer</text>
</g>
<!-- Node3&#45;&gt;Node1 -->
<g id="edge2" class="edge"><title>Node3&#45;&gt;Node1</title>
<path fill="none" stroke="#9a32cd" stroke-dasharray="5,2" d="M111,-79.9784C111,-61.3096 111,-33.6696 111,-19.7241"/>
<polygon fill="#9a32cd" stroke="#9a32cd" points="107.5,-80.2405 111,-90.2405 114.5,-80.2405 107.5,-80.2405"/>
<text text-anchor="middle" x="126.5" y="-58" font-family="Helvetica,sans-Serif" font-size="10.00"> kmax</text>
<text text-anchor="middle" x="126.5" y="-47" font-family="Helvetica,sans-Serif" font-size="10.00">k_rf</text>
</g>
<!-- Node4 -->
<g id="node4" class="node"><title>Node4</title>
<polygon fill="white" stroke="#bfbfbf" points="154.5,-90.5 154.5,-109.5 189.5,-109.5 189.5,-90.5 154.5,-90.5"/>
<text text-anchor="middle" x="172" y="-97.5" font-family="Helvetica,sans-Serif" font-size="10.00">real</text>
</g>
<!-- Node4&#45;&gt;Node1 -->
<g id="edge3" class="edge"><title>Node4&#45;&gt;Node1</title>
<path fill="none" stroke="#9a32cd" stroke-dasharray="5,2" d="M166.952,-80.801C162.773,-67.9494 155.904,-50.8058 146,-38 140.366,-30.7153 132.323,-24.3274 125.368,-19.5962"/>
<polygon fill="#9a32cd" stroke="#9a32cd" points="163.606,-81.829 169.838,-90.3974 170.31,-79.8131 163.606,-81.829"/>
<text text-anchor="middle" x="177" y="-58" font-family="Helvetica,sans-Serif" font-size="10.00"> rf</text>
<text text-anchor="middle" x="177" y="-47" font-family="Helvetica,sans-Serif" font-size="10.00">agrav</text>
</g>
</g>
</svg>
