<?xml version="1.0" encoding="UTF-8" standalone="no"?>
<!DOCTYPE svg PUBLIC "-//W3C//DTD SVG 1.1//EN"
 "http://www.w3.org/Graphics/SVG/1.1/DTD/svg11.dtd">
<!-- Generated by graphviz version 2.30.1 (20180420.1509)
 -->
<!-- Title: dycore_typedefs Pages: 1 -->
<svg width="116pt" height="118pt"
 viewBox="0.00 0.00 116.00 118.00" xmlns="http://www.w3.org/2000/svg" xmlns:xlink="http://www.w3.org/1999/xlink">
<g id="graph0" class="graph" transform="scale(1 1) rotate(0) translate(4 114)">
<title>dycore_typedefs</title>
<polygon fill="white" stroke="white" points="-4,5 -4,-114 113,-114 113,5 -4,5"/>
<!-- Node1 -->
<g id="node1" class="node"><title>Node1</title>
<polygon fill="#bfbfbf" stroke="black" points="5,-0.5 5,-19.5 103,-19.5 103,-0.5 5,-0.5"/>
<text text-anchor="middle" x="54" y="-7.5" font-family="Helvetica,sans-Serif" font-size="10.00">dycore_typedefs</text>
</g>
<!-- Node2 -->
<g id="node2" class="node"><title>Node2</title>
<polygon fill="white" stroke="#bfbfbf" points="0,-90.5 0,-109.5 108,-109.5 108,-90.5 0,-90.5"/>
<text text-anchor="middle" x="54" y="-97.5" font-family="Helvetica,sans-Serif" font-size="10.00">real(kind=r8_kind)</text>
</g>
<!-- Node2&#45;&gt;Node1 -->
<g id="edge1" class="edge"><title>Node2&#45;&gt;Node1</title>
<path fill="none" stroke="#9a32cd" stroke-dasharray="5,2" d="M54,-79.9784C54,-61.3096 54,-33.6696 54,-19.7241"/>
<polygon fill="#9a32cd" stroke="#9a32cd" points="50.5001,-80.2405 54,-90.2405 57.5001,-80.2405 50.5001,-80.2405"/>
<text text-anchor="middle" x="78" y="-63.5" font-family="Helvetica,sans-Serif" font-size="10.00"> clear_val</text>
<text text-anchor="middle" x="78" y="-52.5" font-family="Helvetica,sans-Serif" font-size="10.00">zero</text>
<text text-anchor="middle" x="78" y="-41.5" font-family="Helvetica,sans-Serif" font-size="10.00">huge</text>
</g>
</g>
</svg>
