<?xml version="1.0" encoding="UTF-8" standalone="no"?>
<!DOCTYPE svg PUBLIC "-//W3C//DTD SVG 1.1//EN"
 "http://www.w3.org/Graphics/SVG/1.1/DTD/svg11.dtd">
<!-- Generated by graphviz version 2.30.1 (20180420.1509)
 -->
<!-- Title: fv_regional_mod Pages: 1 -->
<!--zoomable 719 -->
<svg id="main" version="1.1" xmlns="http://www.w3.org/2000/svg" xmlns:xlink="http://www.w3.org/1999/xlink" xml:space="preserve" onload="init(evt)">
<style type="text/css"><![CDATA[
.edge:hover path { stroke: red; }
.edge:hover polygon { stroke: red; fill: red; }
]]></style>
<script type="text/javascript"><![CDATA[
var edges = document.getElementsByTagName('g');
if (edges && edges.length) {
  for (var i=0;i<edges.length;i++) {
    if (edges[i].id.substr(0,4)=='edge') {
      edges[i].setAttribute('class','edge');
    }
  }
}
]]></script>
        <defs>
                <circle id="rim" cx="0" cy="0" r="7"/>
                <circle id="rim2" cx="0" cy="0" r="3.5"/>
                <g id="zoomPlus">
                        <use xlink:href="#rim" fill="#404040">
                                <set attributeName="fill" to="#808080" begin="zoomplus.mouseover" end="zoomplus.mouseout"/>
                        </use>
                        <path d="M-4,0h8M0,-4v8" fill="none" stroke="white" stroke-width="1.5" pointer-events="none"/>
                </g>
                <g id="zoomMin">
                        <use xlink:href="#rim" fill="#404040">
                                <set attributeName="fill" to="#808080" begin="zoomminus.mouseover" end="zoomminus.mouseout"/>
                        </use>
                        <path d="M-4,0h8" fill="none" stroke="white" stroke-width="1.5" pointer-events="none"/>
                </g>
                <g id="dirArrow">
                        <path fill="none" stroke="white" stroke-width="1.5" d="M0,-3.0v7 M-2.5,-0.5L0,-3.0L2.5,-0.5"/>
                </g>
               <g id="resetDef">
                       <use xlink:href="#rim2" fill="#404040">
                               <set attributeName="fill" to="#808080" begin="reset.mouseover" end="reset.mouseout"/>
                       </use>
               </g>
        </defs>

<script type="text/javascript">
var viewWidth = 726;
var viewHeight = 719;
var sectionId = 'dynsection-0';
</script>
<script xlink:href="svgpan.js"/>
<svg id="graph" class="graph">
<g id="viewport">
<title>fv_regional_mod</title>
<polygon fill="white" stroke="white" points="-4,5 -4,-714.698 723,-714.698 723,5 -4,5"/>
<!-- Node1 -->
<g id="node1" class="node"><title>Node1</title>
<polygon fill="#bfbfbf" stroke="black" points="620,-291.198 620,-310.198 718,-310.198 718,-291.198 620,-291.198"/>
<text text-anchor="middle" x="669" y="-298.198" font-family="Helvetica,sans-Serif" font-size="10.00">fv_regional_mod</text>
</g>
<!-- Node2 -->
<g id="node2" class="node"><title>Node2</title>
<g id="a_node2"><a xlink:href="structfv__regional__mod_1_1fv__regional__bc__variables.html" target="_top" xlink:title="fv_regional_mod::fv\l_regional_bc_variables">
<polygon fill="white" stroke="black" points="116,-544.698 116,-574.698 244,-574.698 244,-544.698 116,-544.698"/>
<text text-anchor="start" x="124" y="-562.698" font-family="Helvetica,sans-Serif" font-size="10.00">fv_regional_mod::fv</text>
<text text-anchor="middle" x="180" y="-551.698" font-family="Helvetica,sans-Serif" font-size="10.00">_regional_bc_variables</text>
</a>
</g>
</g>
<!-- Node2&#45;&gt;Node1 -->
<g id="edge1" class="edge"><title>Node2&#45;&gt;Node1</title>
<path fill="none" stroke="#9a32cd" stroke-dasharray="5,2" d="M219.376,-578.874C232.552,-584.491 247.611,-589.879 262,-592.698 277.702,-595.773 282.129,-594.726 298,-592.698 436.472,-574.999 501.034,-610.101 602,-513.698 662.48,-455.951 667.886,-344.014 668.099,-310.444"/>
<polygon fill="#9a32cd" stroke="#9a32cd" points="220.712,-575.637 210.152,-574.777 217.87,-582.035 220.712,-575.637"/>
<text text-anchor="middle" x="395" y="-702.698" font-family="Helvetica,sans-Serif" font-size="10.00"> bc_side_t0</text>
<text text-anchor="middle" x="395" y="-691.698" font-family="Helvetica,sans-Serif" font-size="10.00">bc_side_t1</text>
<text text-anchor="middle" x="395" y="-680.698" font-family="Helvetica,sans-Serif" font-size="10.00">bc_north_t0</text>
<text text-anchor="middle" x="395" y="-669.698" font-family="Helvetica,sans-Serif" font-size="10.00">bc_north_t1</text>
<text text-anchor="middle" x="395" y="-658.698" font-family="Helvetica,sans-Serif" font-size="10.00">bc_west_t0</text>
<text text-anchor="middle" x="395" y="-647.698" font-family="Helvetica,sans-Serif" font-size="10.00">bc_west_t1</text>
<text text-anchor="middle" x="395" y="-636.698" font-family="Helvetica,sans-Serif" font-size="10.00">bc_east_t0</text>
<text text-anchor="middle" x="395" y="-625.698" font-family="Helvetica,sans-Serif" font-size="10.00">bc_east_t1</text>
<text text-anchor="middle" x="395" y="-614.698" font-family="Helvetica,sans-Serif" font-size="10.00">bc_south_t0</text>
<text text-anchor="middle" x="395" y="-603.698" font-family="Helvetica,sans-Serif" font-size="10.00">bc_south_t1</text>
<text text-anchor="middle" x="395" y="-592.698" font-family="Helvetica,sans-Serif" font-size="10.00">...</text>
</g>
<!-- Node6 -->
<g id="node6" class="node"><title>Node6</title>
<g id="a_node6"><a xlink:href="structfv__regional__mod_1_1fv__domain__sides.html" target="_top" xlink:title="fv_regional_mod::fv\l_domain_sides">
<polygon fill="white" stroke="black" points="338,-494.698 338,-524.698 452,-524.698 452,-494.698 338,-494.698"/>
<text text-anchor="start" x="346" y="-512.698" font-family="Helvetica,sans-Serif" font-size="10.00">fv_regional_mod::fv</text>
<text text-anchor="middle" x="395" y="-501.698" font-family="Helvetica,sans-Serif" font-size="10.00">_domain_sides</text>
</a>
</g>
</g>
<!-- Node2&#45;&gt;Node6 -->
<g id="edge6" class="edge"><title>Node2&#45;&gt;Node6</title>
<path fill="none" stroke="#9a32cd" stroke-dasharray="5,2" d="M254.081,-547.098C268.684,-544.26 283.873,-541.077 298,-537.698 313.703,-533.941 330.666,-529.218 345.901,-524.728"/>
<polygon fill="#9a32cd" stroke="#9a32cd" points="253.252,-543.693 244.086,-549.006 254.565,-550.569 253.252,-543.693"/>
<text text-anchor="middle" x="280" y="-580.698" font-family="Helvetica,sans-Serif" font-size="10.00"> west</text>
<text text-anchor="middle" x="280" y="-569.698" font-family="Helvetica,sans-Serif" font-size="10.00">south</text>
<text text-anchor="middle" x="280" y="-558.698" font-family="Helvetica,sans-Serif" font-size="10.00">east</text>
<text text-anchor="middle" x="280" y="-547.698" font-family="Helvetica,sans-Serif" font-size="10.00">north</text>
</g>
<!-- Node3 -->
<g id="node3" class="node"><title>Node3</title>
<polygon fill="white" stroke="#bfbfbf" points="0.5,-450.198 0.5,-469.198 35.5,-469.198 35.5,-450.198 0.5,-450.198"/>
<text text-anchor="middle" x="18" y="-457.198" font-family="Helvetica,sans-Serif" font-size="10.00">real</text>
</g>
<!-- Node3&#45;&gt;Node2 -->
<g id="edge2" class="edge"><title>Node3&#45;&gt;Node2</title>
<path fill="none" stroke="#9a32cd" stroke-dasharray="5,2" d="M42.9753,-474.682C73.1578,-493.546 124.705,-525.763 154.931,-544.655"/>
<polygon fill="#9a32cd" stroke="#9a32cd" points="44.6765,-471.618 34.3415,-469.286 40.9665,-477.554 44.6765,-471.618"/>
<text text-anchor="middle" x="76" y="-619.698" font-family="Helvetica,sans-Serif" font-size="10.00"> q_bc</text>
<text text-anchor="middle" x="76" y="-608.698" font-family="Helvetica,sans-Serif" font-size="10.00">delp_bc</text>
<text text-anchor="middle" x="76" y="-597.698" font-family="Helvetica,sans-Serif" font-size="10.00">pt_bc</text>
<text text-anchor="middle" x="76" y="-586.698" font-family="Helvetica,sans-Serif" font-size="10.00">w_bc</text>
<text text-anchor="middle" x="76" y="-575.698" font-family="Helvetica,sans-Serif" font-size="10.00">divgd_bc</text>
<text text-anchor="middle" x="76" y="-564.698" font-family="Helvetica,sans-Serif" font-size="10.00">uc_bc</text>
<text text-anchor="middle" x="76" y="-553.698" font-family="Helvetica,sans-Serif" font-size="10.00">v_bc</text>
<text text-anchor="middle" x="76" y="-542.698" font-family="Helvetica,sans-Serif" font-size="10.00">delz_bc</text>
<text text-anchor="middle" x="76" y="-531.698" font-family="Helvetica,sans-Serif" font-size="10.00">vc_bc</text>
<text text-anchor="middle" x="76" y="-520.698" font-family="Helvetica,sans-Serif" font-size="10.00">u_bc</text>
<text text-anchor="middle" x="76" y="-509.698" font-family="Helvetica,sans-Serif" font-size="10.00">...</text>
</g>
<!-- Node3&#45;&gt;Node1 -->
<g id="edge9" class="edge"><title>Node3&#45;&gt;Node1</title>
<path fill="none" stroke="#9a32cd" stroke-dasharray="5,2" d="M45.6549,-453.18C90.1581,-442.605 182.55,-421.964 262,-412.698 337.11,-403.937 535.99,-435.589 602,-398.698 637.454,-378.884 657.547,-331.095 664.831,-310.458"/>
<polygon fill="#9a32cd" stroke="#9a32cd" points="44.5652,-449.842 35.6575,-455.578 46.1981,-456.649 44.5652,-449.842"/>
<text text-anchor="middle" x="280" y="-525.698" font-family="Helvetica,sans-Serif" font-size="10.00"> c_liq</text>
<text text-anchor="middle" x="280" y="-514.698" font-family="Helvetica,sans-Serif" font-size="10.00">pref</text>
<text text-anchor="middle" x="280" y="-503.698" font-family="Helvetica,sans-Serif" font-size="10.00">zvir</text>
<text text-anchor="middle" x="280" y="-492.698" font-family="Helvetica,sans-Serif" font-size="10.00">ak_in</text>
<text text-anchor="middle" x="280" y="-481.698" font-family="Helvetica,sans-Serif" font-size="10.00">cv_vap</text>
<text text-anchor="middle" x="280" y="-470.698" font-family="Helvetica,sans-Serif" font-size="10.00">bk_in</text>
<text text-anchor="middle" x="280" y="-459.698" font-family="Helvetica,sans-Serif" font-size="10.00">dum1d</text>
<text text-anchor="middle" x="280" y="-448.698" font-family="Helvetica,sans-Serif" font-size="10.00">t_i0</text>
<text text-anchor="middle" x="280" y="-437.698" font-family="Helvetica,sans-Serif" font-size="10.00">tice</text>
<text text-anchor="middle" x="280" y="-426.698" font-family="Helvetica,sans-Serif" font-size="10.00">c_ice</text>
<text text-anchor="middle" x="280" y="-415.698" font-family="Helvetica,sans-Serif" font-size="10.00">...</text>
</g>
<!-- Node4 -->
<g id="node4" class="node"><title>Node4</title>
<polygon fill="white" stroke="#bfbfbf" points="370.5,-336.198 370.5,-355.198 419.5,-355.198 419.5,-336.198 370.5,-336.198"/>
<text text-anchor="middle" x="395" y="-343.198" font-family="Helvetica,sans-Serif" font-size="10.00">logical</text>
</g>
<!-- Node4&#45;&gt;Node1 -->
<g id="edge3" class="edge"><title>Node4&#45;&gt;Node1</title>
<path fill="none" stroke="#9a32cd" stroke-dasharray="5,2" d="M429.791,-344.459C470.919,-342.41 542.276,-337.107 602,-323.698 616.562,-320.428 632.367,-314.991 644.859,-310.224"/>
<polygon fill="#9a32cd" stroke="#9a32cd" points="429.593,-340.964 419.765,-344.923 429.917,-347.957 429.593,-340.964"/>
<text text-anchor="middle" x="547" y="-386.698" font-family="Helvetica,sans-Serif" font-size="10.00"> north_bc</text>
<text text-anchor="middle" x="547" y="-375.698" font-family="Helvetica,sans-Serif" font-size="10.00">begin_regional_restart</text>
<text text-anchor="middle" x="547" y="-364.698" font-family="Helvetica,sans-Serif" font-size="10.00">south_bc</text>
<text text-anchor="middle" x="547" y="-353.698" font-family="Helvetica,sans-Serif" font-size="10.00">west_bc</text>
<text text-anchor="middle" x="547" y="-342.698" font-family="Helvetica,sans-Serif" font-size="10.00">east_bc</text>
</g>
<!-- Node5 -->
<g id="node5" class="node"><title>Node5</title>
<polygon fill="white" stroke="#bfbfbf" points="339.5,-295.198 339.5,-314.198 450.5,-314.198 450.5,-295.198 339.5,-295.198"/>
<text text-anchor="middle" x="395" y="-302.198" font-family="Helvetica,sans-Serif" font-size="10.00">character(len=100)</text>
</g>
<!-- Node5&#45;&gt;Node1 -->
<g id="edge4" class="edge"><title>Node5&#45;&gt;Node1</title>
<path fill="none" stroke="#9a32cd" stroke-dasharray="5,2" d="M460.867,-302.445C471.277,-302.148 481.934,-301.883 492,-301.698 535.229,-300.899 584.441,-300.678 619.814,-300.64"/>
<polygon fill="#9a32cd" stroke="#9a32cd" points="460.462,-298.955 450.57,-302.75 460.669,-305.952 460.462,-298.955"/>
<text text-anchor="middle" x="547" y="-315.698" font-family="Helvetica,sans-Serif" font-size="10.00"> oro_data</text>
<text text-anchor="middle" x="547" y="-304.698" font-family="Helvetica,sans-Serif" font-size="10.00">grid_data</text>
</g>
<!-- Node6&#45;&gt;Node1 -->
<g id="edge5" class="edge"><title>Node6&#45;&gt;Node1</title>
<path fill="none" stroke="#9a32cd" stroke-dasharray="5,2" d="M461.845,-496.999C505.855,-485.662 562.677,-465.184 602,-429.698 640.1,-395.315 659.389,-333.813 665.653,-310.247"/>
<polygon fill="#9a32cd" stroke="#9a32cd" points="460.956,-493.613 452.092,-499.417 462.641,-500.408 460.956,-493.613"/>
<text text-anchor="middle" x="547" y="-501.698" font-family="Helvetica,sans-Serif" font-size="10.00"> bc_t0</text>
<text text-anchor="middle" x="547" y="-490.698" font-family="Helvetica,sans-Serif" font-size="10.00">bc_t1</text>
</g>
<!-- Node7 -->
<g id="node7" class="node"><title>Node7</title>
<polygon fill="white" stroke="#bfbfbf" points="342.5,-257.198 342.5,-276.198 447.5,-276.198 447.5,-257.198 342.5,-257.198"/>
<text text-anchor="middle" x="395" y="-264.198" font-family="Helvetica,sans-Serif" font-size="10.00">character(len=80)</text>
</g>
<!-- Node7&#45;&gt;Node1 -->
<g id="edge7" class="edge"><title>Node7&#45;&gt;Node1</title>
<path fill="none" stroke="#9a32cd" stroke-dasharray="5,2" d="M457.998,-270.282C499.03,-273.177 553.933,-278.053 602,-285.698 611.168,-287.156 620.962,-289.142 630.124,-291.192"/>
<polygon fill="#9a32cd" stroke="#9a32cd" points="458.093,-266.78 447.877,-269.588 457.614,-273.764 458.093,-266.78"/>
<text text-anchor="middle" x="547" y="-288.698" font-family="Helvetica,sans-Serif" font-size="10.00"> data_source</text>
</g>
<!-- Node8 -->
<g id="node8" class="node"><title>Node8</title>
<polygon fill="white" stroke="#bfbfbf" points="316,-207.698 316,-237.698 474,-237.698 474,-207.698 316,-207.698"/>
<text text-anchor="start" x="324" y="-225.698" font-family="Helvetica,sans-Serif" font-size="10.00">type(fv_regional_bc</text>
<text text-anchor="middle" x="395" y="-214.698" font-family="Helvetica,sans-Serif" font-size="10.00">_bounds_type), pointer, save</text>
</g>
<!-- Node8&#45;&gt;Node1 -->
<g id="edge8" class="edge"><title>Node8&#45;&gt;Node1</title>
<path fill="none" stroke="#9a32cd" stroke-dasharray="5,2" d="M484.567,-230.427C521.74,-235.633 564.87,-244.302 602,-258.698 622.514,-266.651 643.495,-281.358 656.137,-291.085"/>
<polygon fill="#9a32cd" stroke="#9a32cd" points="484.626,-226.904 474.251,-229.048 483.699,-233.842 484.626,-226.904"/>
<text text-anchor="middle" x="547" y="-261.698" font-family="Helvetica,sans-Serif" font-size="10.00"> regional_bounds</text>
</g>
<!-- Node9 -->
<g id="node9" class="node"><title>Node9</title>
<polygon fill="white" stroke="#bfbfbf" points="369.5,-68.1976 369.5,-87.1976 420.5,-87.1976 420.5,-68.1976 369.5,-68.1976"/>
<text text-anchor="middle" x="395" y="-75.1976" font-family="Helvetica,sans-Serif" font-size="10.00">integer</text>
</g>
<!-- Node9&#45;&gt;Node1 -->
<g id="edge10" class="edge"><title>Node9&#45;&gt;Node1</title>
<path fill="none" stroke="#9a32cd" stroke-dasharray="5,2" d="M430.799,-70.0725C475.505,-62.4333 553.15,-56.7379 602,-95.6976 665.139,-146.054 668.717,-257.376 668.294,-290.935"/>
<polygon fill="#9a32cd" stroke="#9a32cd" points="429.917,-66.6759 420.714,-71.9252 431.181,-73.5607 429.917,-66.6759"/>
<text text-anchor="middle" x="547" y="-219.698" font-family="Helvetica,sans-Serif" font-size="10.00"> k_step</text>
<text text-anchor="middle" x="547" y="-208.698" font-family="Helvetica,sans-Serif" font-size="10.00">sphum_index</text>
<text text-anchor="middle" x="547" y="-197.698" font-family="Helvetica,sans-Serif" font-size="10.00">liq_water_index</text>
<text text-anchor="middle" x="547" y="-186.698" font-family="Helvetica,sans-Serif" font-size="10.00">npz</text>
<text text-anchor="start" x="508" y="-175.698" font-family="Helvetica,sans-Serif" font-size="10.00">next_time_to</text>
<text text-anchor="middle" x="547" y="-164.698" font-family="Helvetica,sans-Serif" font-size="10.00">_read_bcs</text>
<text text-anchor="middle" x="547" y="-153.698" font-family="Helvetica,sans-Serif" font-size="10.00">ncid</text>
<text text-anchor="middle" x="547" y="-142.698" font-family="Helvetica,sans-Serif" font-size="10.00">cube_res</text>
<text text-anchor="middle" x="547" y="-131.698" font-family="Helvetica,sans-Serif" font-size="10.00">ntracers</text>
<text text-anchor="middle" x="547" y="-120.698" font-family="Helvetica,sans-Serif" font-size="10.00">bc_hour</text>
<text text-anchor="middle" x="547" y="-109.698" font-family="Helvetica,sans-Serif" font-size="10.00">parent_tile</text>
<text text-anchor="middle" x="547" y="-98.6976" font-family="Helvetica,sans-Serif" font-size="10.00">...</text>
</g>
<!-- Node10 -->
<g id="node10" class="node"><title>Node10</title>
<polygon fill="white" stroke="#bfbfbf" points="345,-12.1976 345,-31.1976 445,-31.1976 445,-12.1976 345,-12.1976"/>
<text text-anchor="middle" x="395" y="-19.1976" font-family="Helvetica,sans-Serif" font-size="10.00">real(kind=r_grid)</text>
</g>
<!-- Node10&#45;&gt;Node1 -->
<g id="edge11" class="edge"><title>Node10&#45;&gt;Node1</title>
<path fill="none" stroke="#9a32cd" stroke-dasharray="5,2" d="M436.654,-9.6997C482.173,1.03594 555.624,9.90902 602,-27.6976 644.608,-62.2486 663.303,-246.951 667.205,-291.177"/>
<polygon fill="#9a32cd" stroke="#9a32cd" points="435.685,-6.33383 426.829,-12.1482 437.378,-13.1261 435.685,-6.33383"/>
<text text-anchor="middle" x="547" y="-52.6976" font-family="Helvetica,sans-Serif" font-size="10.00"> agrid_reg</text>
<text text-anchor="middle" x="547" y="-41.6976" font-family="Helvetica,sans-Serif" font-size="10.00">dbl_snan</text>
<text text-anchor="middle" x="547" y="-30.6976" font-family="Helvetica,sans-Serif" font-size="10.00">grid_reg</text>
</g>
</g>
</svg>
        <g id="navigator" transform="translate(0 0)" fill="#404254">
                <rect fill="#f2f5e9" fill-opacity="0.5" stroke="#606060" stroke-width=".5" x="0" y="0" width="60" height="60"/>
                <use id="zoomplus" xlink:href="#zoomPlus" x="17" y="9" onmousedown="handleZoom(evt,'in')"/>
                <use id="zoomminus" xlink:href="#zoomMin" x="42" y="9" onmousedown="handleZoom(evt,'out')"/>
                <use id="reset" xlink:href="#resetDef" x="30" y="36" onmousedown="handleReset()"/>
                <g id="arrowUp" xlink:href="#dirArrow" transform="translate(30 24)" onmousedown="handlePan(0,-1)">
                  <use xlink:href="#rim" fill="#404040">
                        <set attributeName="fill" to="#808080" begin="arrowUp.mouseover" end="arrowUp.mouseout"/>
                  </use>
                  <path fill="none" stroke="white" stroke-width="1.5" d="M0,-3.0v7 M-2.5,-0.5L0,-3.0L2.5,-0.5"/>
                </g>
                <g id="arrowRight" xlink:href="#dirArrow" transform="rotate(90) translate(36 -43)" onmousedown="handlePan(1,0)">
                  <use xlink:href="#rim" fill="#404040">
                        <set attributeName="fill" to="#808080" begin="arrowRight.mouseover" end="arrowRight.mouseout"/>
                  </use>
                  <path fill="none" stroke="white" stroke-width="1.5" d="M0,-3.0v7 M-2.5,-0.5L0,-3.0L2.5,-0.5"/>
                </g>
                <g id="arrowDown" xlink:href="#dirArrow" transform="rotate(180) translate(-30 -48)" onmousedown="handlePan(0,1)">
                  <use xlink:href="#rim" fill="#404040">
                        <set attributeName="fill" to="#808080" begin="arrowDown.mouseover" end="arrowDown.mouseout"/>
                  </use>
                  <path fill="none" stroke="white" stroke-width="1.5" d="M0,-3.0v7 M-2.5,-0.5L0,-3.0L2.5,-0.5"/>
                </g>
                <g id="arrowLeft" xlink:href="#dirArrow" transform="rotate(270) translate(-36 17)" onmousedown="handlePan(-1,0)">
                  <use xlink:href="#rim" fill="#404040">
                        <set attributeName="fill" to="#808080" begin="arrowLeft.mouseover" end="arrowLeft.mouseout"/>
                  </use>
                  <path fill="none" stroke="white" stroke-width="1.5" d="M0,-3.0v7 M-2.5,-0.5L0,-3.0L2.5,-0.5"/>
                </g>
        </g>
        <svg viewBox="0 0 15 15" width="100%" height="30px" preserveAspectRatio="xMaxYMin meet">
         <g id="arrow_out" transform="scale(0.3 0.3)">
          <a xlink:href="classfv__regional__mod__coll__graph_org.svg" target="_base">
           <rect id="button" ry="5" rx="5" y="6" x="6" height="38" width="38"
                fill="#f2f5e9" fill-opacity="0.5" stroke="#606060" stroke-width="1.0"/>
           <path id="arrow"
             d="M 11.500037,31.436501 C 11.940474,20.09759 22.043105,11.32322 32.158766,21.979434 L 37.068811,17.246167 C 37.068811,17.246167 37.088388,32 37.088388,32 L 22.160133,31.978069 C 22.160133,31.978069 26.997745,27.140456 26.997745,27.140456 C 18.528582,18.264221 13.291696,25.230495 11.500037,31.436501 z"
             style="fill:#404040;"/>
          </a>
         </g>
        </svg>
</svg>
