<?xml version="1.0" encoding="UTF-8" standalone="no"?>
<!DOCTYPE svg PUBLIC "-//W3C//DTD SVG 1.1//EN"
 "http://www.w3.org/Graphics/SVG/1.1/DTD/svg11.dtd">
<!-- Generated by graphviz version 2.30.1 (20180420.1509)
 -->
<!-- Title: fv_sg_mod Pages: 1 -->
<svg width="79pt" height="206pt"
 viewBox="0.00 0.00 79.00 206.00" xmlns="http://www.w3.org/2000/svg" xmlns:xlink="http://www.w3.org/1999/xlink">
<g id="graph0" class="graph" transform="scale(1 1) rotate(0) translate(4 202)">
<title>fv_sg_mod</title>
<polygon fill="white" stroke="white" points="-4,5 -4,-202 76,-202 76,5 -4,5"/>
<!-- Node1 -->
<g id="node1" class="node"><title>Node1</title>
<polygon fill="#bfbfbf" stroke="black" points="0,-0.5 0,-19.5 70,-19.5 70,-0.5 0,-0.5"/>
<text text-anchor="middle" x="35" y="-7.5" font-family="Helvetica,sans-Serif" font-size="10.00">fv_sg_mod</text>
</g>
<!-- Node2 -->
<g id="node2" class="node"><title>Node2</title>
<polygon fill="white" stroke="#bfbfbf" points="17.5,-178.5 17.5,-197.5 52.5,-197.5 52.5,-178.5 17.5,-178.5"/>
<text text-anchor="middle" x="35" y="-185.5" font-family="Helvetica,sans-Serif" font-size="10.00">real</text>
</g>
<!-- Node2&#45;&gt;Node1 -->
<g id="edge1" class="edge"><title>Node2&#45;&gt;Node1</title>
<path fill="none" stroke="#9a32cd" stroke-dasharray="5,2" d="M35,-167.842C35,-129.973 35,-46.8574 35,-19.7429"/>
<polygon fill="#9a32cd" stroke="#9a32cd" points="31.5001,-168.03 35,-178.03 38.5001,-168.03 31.5001,-168.03"/>
<text text-anchor="middle" x="53" y="-151.5" font-family="Helvetica,sans-Serif" font-size="10.00"> li0</text>
<text text-anchor="middle" x="53" y="-140.5" font-family="Helvetica,sans-Serif" font-size="10.00">c_con</text>
<text text-anchor="middle" x="53" y="-129.5" font-family="Helvetica,sans-Serif" font-size="10.00">hlf0</text>
<text text-anchor="middle" x="53" y="-118.5" font-family="Helvetica,sans-Serif" font-size="10.00">c_liq</text>
<text text-anchor="middle" x="53" y="-107.5" font-family="Helvetica,sans-Serif" font-size="10.00">hlv0</text>
<text text-anchor="middle" x="53" y="-96.5" font-family="Helvetica,sans-Serif" font-size="10.00">d0_vap</text>
<text text-anchor="middle" x="53" y="-85.5" font-family="Helvetica,sans-Serif" font-size="10.00">t1_min</text>
<text text-anchor="middle" x="53" y="-74.5" font-family="Helvetica,sans-Serif" font-size="10.00">dc_vap</text>
<text text-anchor="middle" x="53" y="-63.5" font-family="Helvetica,sans-Serif" font-size="10.00">lv0</text>
<text text-anchor="middle" x="53" y="-52.5" font-family="Helvetica,sans-Serif" font-size="10.00">t2_min</text>
<text text-anchor="middle" x="53" y="-41.5" font-family="Helvetica,sans-Serif" font-size="10.00">...</text>
</g>
</g>
</svg>
