<?xml version="1.0" encoding="UTF-8" standalone="no"?>
<!DOCTYPE svg PUBLIC "-//W3C//DTD SVG 1.1//EN"
 "http://www.w3.org/Graphics/SVG/1.1/DTD/svg11.dtd">
<!-- Generated by graphviz version 2.30.1 (20180420.1509)
 -->
<!-- Title: fv_arrays_mod Pages: 1 -->
<svg width="135pt" height="118pt"
 viewBox="0.00 0.00 135.00 118.00" xmlns="http://www.w3.org/2000/svg" xmlns:xlink="http://www.w3.org/1999/xlink">
<g id="graph0" class="graph" transform="scale(1 1) rotate(0) translate(4 114)">
<title>fv_arrays_mod</title>
<polygon fill="white" stroke="white" points="-4,5 -4,-114 132,-114 132,5 -4,5"/>
<!-- Node1 -->
<g id="node1" class="node"><title>Node1</title>
<polygon fill="#bfbfbf" stroke="black" points="7.5,-0.5 7.5,-19.5 96.5,-19.5 96.5,-0.5 7.5,-0.5"/>
<text text-anchor="middle" x="52" y="-7.5" font-family="Helvetica,sans-Serif" font-size="10.00">fv_arrays_mod</text>
</g>
<!-- Node2 -->
<g id="node2" class="node"><title>Node2</title>
<polygon fill="white" stroke="#bfbfbf" points="-0.5,-90.5 -0.5,-109.5 34.5,-109.5 34.5,-90.5 -0.5,-90.5"/>
<text text-anchor="middle" x="17" y="-97.5" font-family="Helvetica,sans-Serif" font-size="10.00">real</text>
</g>
<!-- Node2&#45;&gt;Node1 -->
<g id="edge1" class="edge"><title>Node2&#45;&gt;Node1</title>
<path fill="none" stroke="#9a32cd" stroke-dasharray="5,2" d="M13.264,-79.95C11.747,-67.3962 11.6174,-50.9467 18,-38 21.7996,-30.2928 28.9574,-24.0957 35.7292,-19.592"/>
<polygon fill="#9a32cd" stroke="#9a32cd" points="9.86349,-80.8506 14.9002,-90.1716 16.7755,-79.7441 9.86349,-80.8506"/>
<text text-anchor="middle" x="42" y="-63.5" font-family="Helvetica,sans-Serif" font-size="10.00"> i4_in</text>
<text text-anchor="middle" x="42" y="-52.5" font-family="Helvetica,sans-Serif" font-size="10.00">real_snan</text>
<text text-anchor="middle" x="42" y="-41.5" font-family="Helvetica,sans-Serif" font-size="10.00">real_big</text>
</g>
<!-- Node3 -->
<g id="node3" class="node"><title>Node3</title>
<polygon fill="white" stroke="#bfbfbf" points="62.5,-90.5 62.5,-109.5 113.5,-109.5 113.5,-90.5 62.5,-90.5"/>
<text text-anchor="middle" x="88" y="-97.5" font-family="Helvetica,sans-Serif" font-size="10.00">integer</text>
</g>
<!-- Node3&#45;&gt;Node1 -->
<g id="edge2" class="edge"><title>Node3&#45;&gt;Node1</title>
<path fill="none" stroke="#9a32cd" stroke-dasharray="5,2" d="M82.085,-80.6365C77.9708,-68.3973 72.1402,-52.0411 66,-38 63.292,-31.8076 59.792,-25.0576 56.969,-19.8557"/>
<polygon fill="#9a32cd" stroke="#9a32cd" points="78.7721,-81.7663 85.2233,-90.1706 85.4212,-79.5776 78.7721,-81.7663"/>
<text text-anchor="middle" x="102.5" y="-58" font-family="Helvetica,sans-Serif" font-size="10.00"> r_grid</text>
<text text-anchor="middle" x="102.5" y="-47" font-family="Helvetica,sans-Serif" font-size="10.00">max_step</text>
</g>
</g>
</svg>
