<?xml version="1.0" encoding="UTF-8" standalone="no"?>
<!DOCTYPE svg PUBLIC "-//W3C//DTD SVG 1.1//EN"
 "http://www.w3.org/Graphics/SVG/1.1/DTD/svg11.dtd">
<!-- Generated by graphviz version 2.30.1 (20180420.1509)
 -->
<!-- Title: fv_restart_mod Pages: 1 -->
<svg width="212pt" height="96pt"
 viewBox="0.00 0.00 212.00 96.00" xmlns="http://www.w3.org/2000/svg" xmlns:xlink="http://www.w3.org/1999/xlink">
<g id="graph0" class="graph" transform="scale(1 1) rotate(0) translate(4 92)">
<title>fv_restart_mod</title>
<polygon fill="white" stroke="white" points="-4,5 -4,-92 209,-92 209,5 -4,5"/>
<!-- Node1 -->
<g id="node1" class="node"><title>Node1</title>
<polygon fill="#bfbfbf" stroke="black" points="43.5,-0.5 43.5,-19.5 134.5,-19.5 134.5,-0.5 43.5,-0.5"/>
<text text-anchor="middle" x="89" y="-7.5" font-family="Helvetica,sans-Serif" font-size="10.00">fv_restart_mod</text>
</g>
<!-- Node2 -->
<g id="node2" class="node"><title>Node2</title>
<polygon fill="white" stroke="#bfbfbf" points="-0.5,-68.5 -0.5,-87.5 48.5,-87.5 48.5,-68.5 -0.5,-68.5"/>
<text text-anchor="middle" x="24" y="-75.5" font-family="Helvetica,sans-Serif" font-size="10.00">logical</text>
</g>
<!-- Node2&#45;&gt;Node1 -->
<g id="edge1" class="edge"><title>Node2&#45;&gt;Node1</title>
<path fill="none" stroke="#9a32cd" stroke-dasharray="5,2" d="M20.4506,-58.4329C20.1043,-51.4917 20.9926,-43.8751 25,-38 30.844,-29.4322 39.9842,-23.5738 49.5465,-19.5714"/>
<polygon fill="#9a32cd" stroke="#9a32cd" points="16.9904,-58.9666 21.7402,-68.437 23.9329,-58.0716 16.9904,-58.9666"/>
<text text-anchor="middle" x="78.5" y="-41.5" font-family="Helvetica,sans-Serif" font-size="10.00"> module_is_initialized</text>
</g>
<!-- Node3 -->
<g id="node3" class="node"><title>Node3</title>
<polygon fill="white" stroke="#bfbfbf" points="104,-68.5 104,-87.5 204,-87.5 204,-68.5 104,-68.5"/>
<text text-anchor="middle" x="154" y="-75.5" font-family="Helvetica,sans-Serif" font-size="10.00">real(kind=r_grid)</text>
</g>
<!-- Node3&#45;&gt;Node1 -->
<g id="edge2" class="edge"><title>Node3&#45;&gt;Node1</title>
<path fill="none" stroke="#9a32cd" stroke-dasharray="5,2" d="M146.203,-58.9594C142.572,-51.8921 137.768,-44.0466 132,-38 124.82,-30.4739 115.123,-24.1494 106.755,-19.5178"/>
<polygon fill="#9a32cd" stroke="#9a32cd" points="143.244,-60.8917 150.661,-68.4569 149.58,-57.9173 143.244,-60.8917"/>
<text text-anchor="middle" x="167.5" y="-41.5" font-family="Helvetica,sans-Serif" font-size="10.00"> cnst_0p20</text>
</g>
</g>
</svg>
