<?xml version="1.0" encoding="UTF-8" standalone="no"?>
<!DOCTYPE svg PUBLIC "-//W3C//DTD SVG 1.1//EN"
 "http://www.w3.org/Graphics/SVG/1.1/DTD/svg11.dtd">
<!-- Generated by graphviz version 2.30.1 (20180420.1509)
 -->
<!-- Title: fv_tracer2d_mod Pages: 1 -->
<svg width="165pt" height="128pt"
 viewBox="0.00 0.00 165.00 128.00" xmlns="http://www.w3.org/2000/svg" xmlns:xlink="http://www.w3.org/1999/xlink">
<g id="graph0" class="graph" transform="scale(1 1) rotate(0) translate(4 124)">
<title>fv_tracer2d_mod</title>
<polygon fill="white" stroke="white" points="-4,5 -4,-124 162,-124 162,5 -4,5"/>
<!-- Node1 -->
<g id="node1" class="node"><title>Node1</title>
<polygon fill="#bfbfbf" stroke="black" points="-0.5,-0.5 -0.5,-19.5 98.5,-19.5 98.5,-0.5 -0.5,-0.5"/>
<text text-anchor="middle" x="49" y="-7.5" font-family="Helvetica,sans-Serif" font-size="10.00">fv_tracer2d_mod</text>
</g>
<!-- Node2 -->
<g id="node2" class="node"><title>Node2</title>
<polygon fill="white" stroke="#bfbfbf" points="31.5,-100.5 31.5,-119.5 66.5,-119.5 66.5,-100.5 31.5,-100.5"/>
<text text-anchor="middle" x="49" y="-107.5" font-family="Helvetica,sans-Serif" font-size="10.00">real</text>
</g>
<!-- Node2&#45;&gt;Node1 -->
<g id="edge1" class="edge"><title>Node2&#45;&gt;Node1</title>
<path fill="none" stroke="#9a32cd" stroke-dasharray="5,2" d="M49,-90.2203C49,-68.9514 49,-35.2197 49,-19.5374"/>
<polygon fill="#9a32cd" stroke="#9a32cd" points="45.5001,-90.3031 49,-100.303 52.5001,-90.3032 45.5001,-90.3031"/>
<text text-anchor="middle" x="103" y="-74" font-family="Helvetica,sans-Serif" font-size="10.00"> nest_fx_north_accum</text>
<text text-anchor="middle" x="103" y="-63" font-family="Helvetica,sans-Serif" font-size="10.00">nest_fx_west_accum</text>
<text text-anchor="middle" x="103" y="-52" font-family="Helvetica,sans-Serif" font-size="10.00">nest_fx_east_accum</text>
<text text-anchor="middle" x="103" y="-41" font-family="Helvetica,sans-Serif" font-size="10.00">nest_fx_south_accum</text>
</g>
</g>
</svg>
