<?xml version="1.0" encoding="UTF-8" standalone="no"?>
<!DOCTYPE svg PUBLIC "-//W3C//DTD SVG 1.1//EN"
 "http://www.w3.org/Graphics/SVG/1.1/DTD/svg11.dtd">
<!-- Generated by graphviz version 2.30.1 (20180420.1509)
 -->
<!-- Title: fv_control_mod Pages: 1 -->
<!--zoomable 916 -->
<svg id="main" version="1.1" xmlns="http://www.w3.org/2000/svg" xmlns:xlink="http://www.w3.org/1999/xlink" xml:space="preserve" onload="init(evt)">
<style type="text/css"><![CDATA[
.edge:hover path { stroke: red; }
.edge:hover polygon { stroke: red; fill: red; }
]]></style>
<script type="text/javascript"><![CDATA[
var edges = document.getElementsByTagName('g');
if (edges && edges.length) {
  for (var i=0;i<edges.length;i++) {
    if (edges[i].id.substr(0,4)=='edge') {
      edges[i].setAttribute('class','edge');
    }
  }
}
]]></script>
        <defs>
                <circle id="rim" cx="0" cy="0" r="7"/>
                <circle id="rim2" cx="0" cy="0" r="3.5"/>
                <g id="zoomPlus">
                        <use xlink:href="#rim" fill="#404040">
                                <set attributeName="fill" to="#808080" begin="zoomplus.mouseover" end="zoomplus.mouseout"/>
                        </use>
                        <path d="M-4,0h8M0,-4v8" fill="none" stroke="white" stroke-width="1.5" pointer-events="none"/>
                </g>
                <g id="zoomMin">
                        <use xlink:href="#rim" fill="#404040">
                                <set attributeName="fill" to="#808080" begin="zoomminus.mouseover" end="zoomminus.mouseout"/>
                        </use>
                        <path d="M-4,0h8" fill="none" stroke="white" stroke-width="1.5" pointer-events="none"/>
                </g>
                <g id="dirArrow">
                        <path fill="none" stroke="white" stroke-width="1.5" d="M0,-3.0v7 M-2.5,-0.5L0,-3.0L2.5,-0.5"/>
                </g>
               <g id="resetDef">
                       <use xlink:href="#rim2" fill="#404040">
                               <set attributeName="fill" to="#808080" begin="reset.mouseover" end="reset.mouseout"/>
                       </use>
               </g>
        </defs>

<script type="text/javascript">
var viewWidth = 354;
var viewHeight = 916;
var sectionId = 'dynsection-0';
</script>
<script xlink:href="svgpan.js"/>
<svg id="graph" class="graph">
<g id="viewport">
<title>fv_control_mod</title>
<polygon fill="white" stroke="white" points="-4,5 -4,-912.189 351,-912.189 351,5 -4,5"/>
<!-- Node1 -->
<g id="node1" class="node"><title>Node1</title>
<polygon fill="#bfbfbf" stroke="black" points="254,-425.689 254,-444.689 346,-444.689 346,-425.689 254,-425.689"/>
<text text-anchor="middle" x="300" y="-432.689" font-family="Helvetica,sans-Serif" font-size="10.00">fv_control_mod</text>
</g>
<!-- Node2 -->
<g id="node2" class="node"><title>Node2</title>
<polygon fill="white" stroke="#bfbfbf" points="5.5,-764.189 5.5,-794.189 108.5,-794.189 108.5,-764.189 5.5,-764.189"/>
<text text-anchor="start" x="13.5" y="-782.189" font-family="Helvetica,sans-Serif" font-size="10.00">real(kind=r_grid),</text>
<text text-anchor="middle" x="57" y="-771.189" font-family="Helvetica,sans-Serif" font-size="10.00"> pointer</text>
</g>
<!-- Node2&#45;&gt;Node1 -->
<g id="edge1" class="edge"><title>Node2&#45;&gt;Node1</title>
<path fill="none" stroke="#9a32cd" stroke-dasharray="5,2" d="M118.823,-787.496C157.241,-789.17 205.258,-784.129 236,-755.189 282.794,-711.138 296.137,-493.602 298.559,-444.882"/>
<polygon fill="#9a32cd" stroke="#9a32cd" points="118.962,-783.998 108.772,-786.899 118.547,-790.986 118.962,-783.998"/>
<text text-anchor="middle" x="184" y="-900.189" font-family="Helvetica,sans-Serif" font-size="10.00"> dx_const</text>
<text text-anchor="middle" x="184" y="-889.189" font-family="Helvetica,sans-Serif" font-size="10.00">dy_const</text>
<text text-anchor="middle" x="184" y="-878.189" font-family="Helvetica,sans-Serif" font-size="10.00">stretch_fac</text>
<text text-anchor="middle" x="184" y="-867.189" font-family="Helvetica,sans-Serif" font-size="10.00">deglat_stop</text>
<text text-anchor="middle" x="184" y="-856.189" font-family="Helvetica,sans-Serif" font-size="10.00">deglat</text>
<text text-anchor="middle" x="184" y="-845.189" font-family="Helvetica,sans-Serif" font-size="10.00">deglon_start</text>
<text text-anchor="middle" x="184" y="-834.189" font-family="Helvetica,sans-Serif" font-size="10.00">deglon_stop</text>
<text text-anchor="middle" x="184" y="-823.189" font-family="Helvetica,sans-Serif" font-size="10.00">target_lon</text>
<text text-anchor="middle" x="184" y="-812.189" font-family="Helvetica,sans-Serif" font-size="10.00">target_lat</text>
<text text-anchor="middle" x="184" y="-801.189" font-family="Helvetica,sans-Serif" font-size="10.00">deglat_start</text>
<text text-anchor="middle" x="184" y="-790.189" font-family="Helvetica,sans-Serif" font-size="10.00">...</text>
</g>
<!-- Node3 -->
<g id="node3" class="node"><title>Node3</title>
<polygon fill="white" stroke="#bfbfbf" points="0,-715.189 0,-745.189 114,-745.189 114,-715.189 0,-715.189"/>
<text text-anchor="start" x="8" y="-733.189" font-family="Helvetica,sans-Serif" font-size="10.00">character(len=128),</text>
<text text-anchor="middle" x="57" y="-722.189" font-family="Helvetica,sans-Serif" font-size="10.00"> pointer</text>
</g>
<!-- Node3&#45;&gt;Node1 -->
<g id="edge2" class="edge"><title>Node3&#45;&gt;Node1</title>
<path fill="none" stroke="#9a32cd" stroke-dasharray="5,2" d="M124.033,-729.74C167.683,-728.033 219.745,-722.838 236,-708.189 276.559,-671.636 294.431,-489.244 298.215,-444.911"/>
<polygon fill="#9a32cd" stroke="#9a32cd" points="123.883,-726.243 114.007,-730.078 124.119,-733.239 123.883,-726.243"/>
<text text-anchor="middle" x="184" y="-743.189" font-family="Helvetica,sans-Serif" font-size="10.00"> res_latlon_dynamics</text>
<text text-anchor="middle" x="184" y="-732.189" font-family="Helvetica,sans-Serif" font-size="10.00">res_latlon_tracers</text>
</g>
<!-- Node4 -->
<g id="node4" class="node"><title>Node4</title>
<polygon fill="white" stroke="#bfbfbf" points="12.5,-576.689 12.5,-595.689 101.5,-595.689 101.5,-576.689 12.5,-576.689"/>
<text text-anchor="middle" x="57" y="-583.689" font-family="Helvetica,sans-Serif" font-size="10.00">logical, pointer</text>
</g>
<!-- Node4&#45;&gt;Node1 -->
<g id="edge3" class="edge"><title>Node4&#45;&gt;Node1</title>
<path fill="none" stroke="#9a32cd" stroke-dasharray="5,2" d="M111.773,-585.092C156.757,-583.185 216.6,-578.031 236,-564.189 277.592,-534.512 292.971,-469.643 297.447,-444.975"/>
<polygon fill="#9a32cd" stroke="#9a32cd" points="111.417,-581.603 101.558,-585.481 111.684,-588.598 111.417,-581.603"/>
<text text-anchor="middle" x="184" y="-696.189" font-family="Helvetica,sans-Serif" font-size="10.00"> phys_hydrostatic</text>
<text text-anchor="middle" x="184" y="-685.189" font-family="Helvetica,sans-Serif" font-size="10.00">remap_t</text>
<text text-anchor="middle" x="184" y="-674.189" font-family="Helvetica,sans-Serif" font-size="10.00">srf_init</text>
<text text-anchor="middle" x="184" y="-663.189" font-family="Helvetica,sans-Serif" font-size="10.00">range_warn</text>
<text text-anchor="middle" x="184" y="-652.189" font-family="Helvetica,sans-Serif" font-size="10.00">ncep_ic</text>
<text text-anchor="middle" x="184" y="-641.189" font-family="Helvetica,sans-Serif" font-size="10.00">reproduce_sum</text>
<text text-anchor="middle" x="184" y="-630.189" font-family="Helvetica,sans-Serif" font-size="10.00">reed_cond_only</text>
<text text-anchor="middle" x="184" y="-619.189" font-family="Helvetica,sans-Serif" font-size="10.00">nudge_dz</text>
<text text-anchor="middle" x="184" y="-608.189" font-family="Helvetica,sans-Serif" font-size="10.00">use_logp</text>
<text text-anchor="middle" x="184" y="-597.189" font-family="Helvetica,sans-Serif" font-size="10.00">external_ic</text>
<text text-anchor="middle" x="184" y="-586.189" font-family="Helvetica,sans-Serif" font-size="10.00">...</text>
</g>
<!-- Node5 -->
<g id="node5" class="node"><title>Node5</title>
<polygon fill="white" stroke="#bfbfbf" points="3,-526.189 3,-556.189 111,-556.189 111,-526.189 3,-526.189"/>
<text text-anchor="start" x="11" y="-544.189" font-family="Helvetica,sans-Serif" font-size="10.00">integer, dimension</text>
<text text-anchor="middle" x="57" y="-533.189" font-family="Helvetica,sans-Serif" font-size="10.00">(:), pointer</text>
</g>
<!-- Node5&#45;&gt;Node1 -->
<g id="edge4" class="edge"><title>Node5&#45;&gt;Node1</title>
<path fill="none" stroke="#9a32cd" stroke-dasharray="5,2" d="M121.507,-542.68C157.263,-540.898 201.518,-534.119 236,-514.189 264.857,-497.51 285.583,-462.072 294.351,-444.908"/>
<polygon fill="#9a32cd" stroke="#9a32cd" points="121.045,-539.195 111.185,-543.07 121.309,-546.19 121.045,-539.195"/>
<text text-anchor="middle" x="184" y="-555.189" font-family="Helvetica,sans-Serif" font-size="10.00"> io_layout</text>
<text text-anchor="middle" x="184" y="-544.189" font-family="Helvetica,sans-Serif" font-size="10.00">layout</text>
</g>
<!-- Node6 -->
<g id="node6" class="node"><title>Node6</title>
<polygon fill="white" stroke="#bfbfbf" points="3,-477.189 3,-507.189 111,-507.189 111,-477.189 3,-477.189"/>
<text text-anchor="start" x="11" y="-495.189" font-family="Helvetica,sans-Serif" font-size="10.00">character(len=80),</text>
<text text-anchor="middle" x="57" y="-484.189" font-family="Helvetica,sans-Serif" font-size="10.00"> pointer</text>
</g>
<!-- Node6&#45;&gt;Node1 -->
<g id="edge5" class="edge"><title>Node6&#45;&gt;Node1</title>
<path fill="none" stroke="#9a32cd" stroke-dasharray="5,2" d="M121.152,-499.102C156.048,-500.632 199.579,-498.694 236,-485.189 258.781,-476.742 279.698,-456.679 290.761,-444.692"/>
<polygon fill="#9a32cd" stroke="#9a32cd" points="121.261,-495.603 111.085,-498.556 120.881,-502.593 121.261,-495.603"/>
<text text-anchor="middle" x="184" y="-502.189" font-family="Helvetica,sans-Serif" font-size="10.00"> grid_name</text>
</g>
<!-- Node7 -->
<g id="node7" class="node"><title>Node7</title>
<polygon fill="white" stroke="#bfbfbf" points="19,-358.689 19,-377.689 95,-377.689 95,-358.689 19,-358.689"/>
<text text-anchor="middle" x="57" y="-365.689" font-family="Helvetica,sans-Serif" font-size="10.00">real, pointer</text>
</g>
<!-- Node7&#45;&gt;Node1 -->
<g id="edge6" class="edge"><title>Node7&#45;&gt;Node1</title>
<path fill="none" stroke="#9a32cd" stroke-dasharray="5,2" d="M98.3495,-356.124C135.84,-347.221 192.302,-339.826 236,-360.189 265.286,-373.836 285.804,-408.539 294.437,-425.525"/>
<polygon fill="#9a32cd" stroke="#9a32cd" points="97.1475,-352.817 88.3048,-358.653 98.8568,-359.605 97.1475,-352.817"/>
<text text-anchor="middle" x="184" y="-473.189" font-family="Helvetica,sans-Serif" font-size="10.00"> tau</text>
<text text-anchor="middle" x="184" y="-462.189" font-family="Helvetica,sans-Serif" font-size="10.00">d_ext</text>
<text text-anchor="middle" x="184" y="-451.189" font-family="Helvetica,sans-Serif" font-size="10.00">d_con</text>
<text text-anchor="middle" x="184" y="-440.189" font-family="Helvetica,sans-Serif" font-size="10.00">beta</text>
<text text-anchor="middle" x="184" y="-429.189" font-family="Helvetica,sans-Serif" font-size="10.00">dddmp</text>
<text text-anchor="middle" x="184" y="-418.189" font-family="Helvetica,sans-Serif" font-size="10.00">tau_h2o</text>
<text text-anchor="middle" x="184" y="-407.189" font-family="Helvetica,sans-Serif" font-size="10.00">p_fac</text>
<text text-anchor="middle" x="184" y="-396.189" font-family="Helvetica,sans-Serif" font-size="10.00">w_max</text>
<text text-anchor="middle" x="184" y="-385.189" font-family="Helvetica,sans-Serif" font-size="10.00">consv_te</text>
<text text-anchor="middle" x="184" y="-374.189" font-family="Helvetica,sans-Serif" font-size="10.00">ke_bg</text>
<text text-anchor="middle" x="184" y="-363.189" font-family="Helvetica,sans-Serif" font-size="10.00">...</text>
</g>
<!-- Node8 -->
<g id="node8" class="node"><title>Node8</title>
<polygon fill="white" stroke="#bfbfbf" points="0,-309.189 0,-339.189 114,-339.189 114,-309.189 0,-309.189"/>
<text text-anchor="start" x="8" y="-327.189" font-family="Helvetica,sans-Serif" font-size="10.00">character(len=120),</text>
<text text-anchor="middle" x="57" y="-316.189" font-family="Helvetica,sans-Serif" font-size="10.00"> pointer</text>
</g>
<!-- Node8&#45;&gt;Node1 -->
<g id="edge7" class="edge"><title>Node8&#45;&gt;Node1</title>
<path fill="none" stroke="#9a32cd" stroke-dasharray="5,2" d="M124.624,-312.835C160.013,-310.19 202.907,-312.648 236,-332.189 272.1,-353.505 290.246,-404.381 296.457,-425.619"/>
<polygon fill="#9a32cd" stroke="#9a32cd" points="124.026,-309.375 114.38,-313.757 124.653,-316.347 124.026,-309.375"/>
<text text-anchor="middle" x="184" y="-335.189" font-family="Helvetica,sans-Serif" font-size="10.00"> grid_file</text>
</g>
<!-- Node9 -->
<g id="node9" class="node"><title>Node9</title>
<polygon fill="white" stroke="#bfbfbf" points="11,-175.689 11,-194.689 103,-194.689 103,-175.689 11,-175.689"/>
<text text-anchor="middle" x="57" y="-182.689" font-family="Helvetica,sans-Serif" font-size="10.00">integer, pointer</text>
</g>
<!-- Node9&#45;&gt;Node1 -->
<g id="edge8" class="edge"><title>Node9&#45;&gt;Node1</title>
<path fill="none" stroke="#9a32cd" stroke-dasharray="5,2" d="M97.1994,-173.098C136.584,-163.562 196.899,-156.425 236,-187.189 274.927,-217.816 293.841,-383.268 298.07,-425.415"/>
<polygon fill="#9a32cd" stroke="#9a32cd" points="96.2276,-169.734 87.4178,-175.619 97.9749,-176.512 96.2276,-169.734"/>
<text text-anchor="middle" x="184" y="-300.189" font-family="Helvetica,sans-Serif" font-size="10.00"> npy</text>
<text text-anchor="middle" x="184" y="-289.189" font-family="Helvetica,sans-Serif" font-size="10.00">m_split</text>
<text text-anchor="middle" x="184" y="-278.189" font-family="Helvetica,sans-Serif" font-size="10.00">kord_tm</text>
<text text-anchor="middle" x="184" y="-267.189" font-family="Helvetica,sans-Serif" font-size="10.00">dnats</text>
<text text-anchor="middle" x="184" y="-256.189" font-family="Helvetica,sans-Serif" font-size="10.00">npz</text>
<text text-anchor="middle" x="184" y="-245.189" font-family="Helvetica,sans-Serif" font-size="10.00">n_split</text>
<text text-anchor="middle" x="184" y="-234.189" font-family="Helvetica,sans-Serif" font-size="10.00">kord_wz</text>
<text text-anchor="middle" x="184" y="-223.189" font-family="Helvetica,sans-Serif" font-size="10.00">kord_mt</text>
<text text-anchor="middle" x="184" y="-212.189" font-family="Helvetica,sans-Serif" font-size="10.00">ndims</text>
<text text-anchor="middle" x="184" y="-201.189" font-family="Helvetica,sans-Serif" font-size="10.00">hord_tr</text>
<text text-anchor="middle" x="184" y="-190.189" font-family="Helvetica,sans-Serif" font-size="10.00">...</text>
</g>
<!-- Node10 -->
<g id="node10" class="node"><title>Node10</title>
<polygon fill="white" stroke="#bfbfbf" points="39.5,-130.689 39.5,-149.689 74.5,-149.689 74.5,-130.689 39.5,-130.689"/>
<text text-anchor="middle" x="57" y="-137.689" font-family="Helvetica,sans-Serif" font-size="10.00">real</text>
</g>
<!-- Node10&#45;&gt;Node1 -->
<g id="edge9" class="edge"><title>Node10&#45;&gt;Node1</title>
<path fill="none" stroke="#9a32cd" stroke-dasharray="5,2" d="M84.5503,-136.1C128.429,-129.973 213.478,-120.956 236,-139.189 282.144,-176.545 295.915,-378.634 298.508,-425.486"/>
<polygon fill="#9a32cd" stroke="#9a32cd" points="83.9905,-132.645 74.5944,-137.54 84.9924,-139.573 83.9905,-132.645"/>
<text text-anchor="middle" x="184" y="-153.189" font-family="Helvetica,sans-Serif" font-size="10.00"> too_big</text>
<text text-anchor="middle" x="184" y="-142.189" font-family="Helvetica,sans-Serif" font-size="10.00">umax</text>
</g>
<!-- Node11 -->
<g id="node11" class="node"><title>Node11</title>
<polygon fill="white" stroke="#bfbfbf" points="31.5,-8.68878 31.5,-27.6888 82.5,-27.6888 82.5,-8.68878 31.5,-8.68878"/>
<text text-anchor="middle" x="57" y="-15.6888" font-family="Helvetica,sans-Serif" font-size="10.00">integer</text>
</g>
<!-- Node11&#45;&gt;Node1 -->
<g id="edge10" class="edge"><title>Node11&#45;&gt;Node1</title>
<path fill="none" stroke="#9a32cd" stroke-dasharray="5,2" d="M92.3577,-8.20193C132.132,1.04925 197.138,8.68996 236,-26.1888 297.621,-81.4947 299.35,-368.784 299.083,-425.469"/>
<polygon fill="#9a32cd" stroke="#9a32cd" points="91.4416,-4.82302 82.5782,-10.6275 93.1267,-11.6172 91.4416,-4.82302"/>
<text text-anchor="middle" x="184" y="-117.189" font-family="Helvetica,sans-Serif" font-size="10.00"> halo_update_type</text>
<text text-anchor="middle" x="184" y="-106.189" font-family="Helvetica,sans-Serif" font-size="10.00">parent_grid_num</text>
<text text-anchor="middle" x="184" y="-95.1888" font-family="Helvetica,sans-Serif" font-size="10.00">commid</text>
<text text-anchor="middle" x="184" y="-84.1888" font-family="Helvetica,sans-Serif" font-size="10.00">pelist_all</text>
<text text-anchor="start" x="138.5" y="-73.1888" font-family="Helvetica,sans-Serif" font-size="10.00">max_refinement</text>
<text text-anchor="middle" x="184" y="-62.1888" font-family="Helvetica,sans-Serif" font-size="10.00">_of_global</text>
<text text-anchor="middle" x="184" y="-51.1888" font-family="Helvetica,sans-Serif" font-size="10.00">gid</text>
<text text-anchor="middle" x="184" y="-40.1888" font-family="Helvetica,sans-Serif" font-size="10.00">ntilesme</text>
<text text-anchor="middle" x="184" y="-29.1888" font-family="Helvetica,sans-Serif" font-size="10.00">ngrids</text>
</g>
</g>
</svg>
        <g id="navigator" transform="translate(0 0)" fill="#404254">
                <rect fill="#f2f5e9" fill-opacity="0.5" stroke="#606060" stroke-width=".5" x="0" y="0" width="60" height="60"/>
                <use id="zoomplus" xlink:href="#zoomPlus" x="17" y="9" onmousedown="handleZoom(evt,'in')"/>
                <use id="zoomminus" xlink:href="#zoomMin" x="42" y="9" onmousedown="handleZoom(evt,'out')"/>
                <use id="reset" xlink:href="#resetDef" x="30" y="36" onmousedown="handleReset()"/>
                <g id="arrowUp" xlink:href="#dirArrow" transform="translate(30 24)" onmousedown="handlePan(0,-1)">
                  <use xlink:href="#rim" fill="#404040">
                        <set attributeName="fill" to="#808080" begin="arrowUp.mouseover" end="arrowUp.mouseout"/>
                  </use>
                  <path fill="none" stroke="white" stroke-width="1.5" d="M0,-3.0v7 M-2.5,-0.5L0,-3.0L2.5,-0.5"/>
                </g>
                <g id="arrowRight" xlink:href="#dirArrow" transform="rotate(90) translate(36 -43)" onmousedown="handlePan(1,0)">
                  <use xlink:href="#rim" fill="#404040">
                        <set attributeName="fill" to="#808080" begin="arrowRight.mouseover" end="arrowRight.mouseout"/>
                  </use>
                  <path fill="none" stroke="white" stroke-width="1.5" d="M0,-3.0v7 M-2.5,-0.5L0,-3.0L2.5,-0.5"/>
                </g>
                <g id="arrowDown" xlink:href="#dirArrow" transform="rotate(180) translate(-30 -48)" onmousedown="handlePan(0,1)">
                  <use xlink:href="#rim" fill="#404040">
                        <set attributeName="fill" to="#808080" begin="arrowDown.mouseover" end="arrowDown.mouseout"/>
                  </use>
                  <path fill="none" stroke="white" stroke-width="1.5" d="M0,-3.0v7 M-2.5,-0.5L0,-3.0L2.5,-0.5"/>
                </g>
                <g id="arrowLeft" xlink:href="#dirArrow" transform="rotate(270) translate(-36 17)" onmousedown="handlePan(-1,0)">
                  <use xlink:href="#rim" fill="#404040">
                        <set attributeName="fill" to="#808080" begin="arrowLeft.mouseover" end="arrowLeft.mouseout"/>
                  </use>
                  <path fill="none" stroke="white" stroke-width="1.5" d="M0,-3.0v7 M-2.5,-0.5L0,-3.0L2.5,-0.5"/>
                </g>
        </g>
        <svg viewBox="0 0 15 15" width="100%" height="30px" preserveAspectRatio="xMaxYMin meet">
         <g id="arrow_out" transform="scale(0.3 0.3)">
          <a xlink:href="classfv__control__mod__coll__graph_org.svg" target="_base">
           <rect id="button" ry="5" rx="5" y="6" x="6" height="38" width="38"
                fill="#f2f5e9" fill-opacity="0.5" stroke="#606060" stroke-width="1.0"/>
           <path id="arrow"
             d="M 11.500037,31.436501 C 11.940474,20.09759 22.043105,11.32322 32.158766,21.979434 L 37.068811,17.246167 C 37.068811,17.246167 37.088388,32 37.088388,32 L 22.160133,31.978069 C 22.160133,31.978069 26.997745,27.140456 26.997745,27.140456 C 18.528582,18.264221 13.291696,25.230495 11.500037,31.436501 z"
             style="fill:#404040;"/>
          </a>
         </g>
        </svg>
</svg>
