<?xml version="1.0" encoding="UTF-8" standalone="no"?>
<!DOCTYPE svg PUBLIC "-//W3C//DTD SVG 1.1//EN"
 "http://www.w3.org/Graphics/SVG/1.1/DTD/svg11.dtd">
<!-- Generated by graphviz version 2.30.1 (20180420.1509)
 -->
<!-- Title: fv_nggps_diags_mod Pages: 1 -->
<!--zoomable 724 -->
<svg id="main" version="1.1" xmlns="http://www.w3.org/2000/svg" xmlns:xlink="http://www.w3.org/1999/xlink" xml:space="preserve" onload="init(evt)">
<style type="text/css"><![CDATA[
.edge:hover path { stroke: red; }
.edge:hover polygon { stroke: red; fill: red; }
]]></style>
<script type="text/javascript"><![CDATA[
var edges = document.getElementsByTagName('g');
if (edges && edges.length) {
  for (var i=0;i<edges.length;i++) {
    if (edges[i].id.substr(0,4)=='edge') {
      edges[i].setAttribute('class','edge');
    }
  }
}
]]></script>
        <defs>
                <circle id="rim" cx="0" cy="0" r="7"/>
                <circle id="rim2" cx="0" cy="0" r="3.5"/>
                <g id="zoomPlus">
                        <use xlink:href="#rim" fill="#404040">
                                <set attributeName="fill" to="#808080" begin="zoomplus.mouseover" end="zoomplus.mouseout"/>
                        </use>
                        <path d="M-4,0h8M0,-4v8" fill="none" stroke="white" stroke-width="1.5" pointer-events="none"/>
                </g>
                <g id="zoomMin">
                        <use xlink:href="#rim" fill="#404040">
                                <set attributeName="fill" to="#808080" begin="zoomminus.mouseover" end="zoomminus.mouseout"/>
                        </use>
                        <path d="M-4,0h8" fill="none" stroke="white" stroke-width="1.5" pointer-events="none"/>
                </g>
                <g id="dirArrow">
                        <path fill="none" stroke="white" stroke-width="1.5" d="M0,-3.0v7 M-2.5,-0.5L0,-3.0L2.5,-0.5"/>
                </g>
               <g id="resetDef">
                       <use xlink:href="#rim2" fill="#404040">
                               <set attributeName="fill" to="#808080" begin="reset.mouseover" end="reset.mouseout"/>
                       </use>
               </g>
        </defs>

<script type="text/javascript">
var viewWidth = 408;
var viewHeight = 724;
var sectionId = 'dynsection-0';
</script>
<script xlink:href="svgpan.js"/>
<svg id="graph" class="graph">
<g id="viewport">
<title>fv_nggps_diags_mod</title>
<polygon fill="white" stroke="white" points="-4,5 -4,-719.57 405,-719.57 405,5 -4,5"/>
<!-- Node1 -->
<g id="node1" class="node"><title>Node1</title>
<polygon fill="#bfbfbf" stroke="black" points="280.5,-423.07 280.5,-442.07 399.5,-442.07 399.5,-423.07 280.5,-423.07"/>
<text text-anchor="middle" x="340" y="-430.07" font-family="Helvetica,sans-Serif" font-size="10.00">fv_nggps_diags_mod</text>
</g>
<!-- Node2 -->
<g id="node2" class="node"><title>Node2</title>
<polygon fill="white" stroke="#bfbfbf" points="45.5,-655.07 45.5,-674.07 94.5,-674.07 94.5,-655.07 45.5,-655.07"/>
<text text-anchor="middle" x="70" y="-662.07" font-family="Helvetica,sans-Serif" font-size="10.00">logical</text>
</g>
<!-- Node2&#45;&gt;Node1 -->
<g id="edge1" class="edge"><title>Node2&#45;&gt;Node1</title>
<path fill="none" stroke="#9a32cd" stroke-dasharray="5,2" d="M104.774,-665.492C146.491,-664.829 217.396,-657.584 262,-619.57 319.185,-570.835 334.571,-472.905 338.08,-442.084"/>
<polygon fill="#9a32cd" stroke="#9a32cd" points="104.566,-661.992 94.5796,-665.531 104.593,-668.992 104.566,-661.992"/>
<text text-anchor="middle" x="210" y="-707.57" font-family="Helvetica,sans-Serif" font-size="10.00"> hydrostatico</text>
<text text-anchor="middle" x="210" y="-696.57" font-family="Helvetica,sans-Serif" font-size="10.00">master</text>
<text text-anchor="start" x="158" y="-685.57" font-family="Helvetica,sans-Serif" font-size="10.00">use_wrtgridcomp</text>
<text text-anchor="middle" x="210" y="-674.57" font-family="Helvetica,sans-Serif" font-size="10.00">_output</text>
<text text-anchor="middle" x="210" y="-663.57" font-family="Helvetica,sans-Serif" font-size="10.00">module_is_initialized</text>
</g>
<!-- Node3 -->
<g id="node3" class="node"><title>Node3</title>
<polygon fill="white" stroke="#bfbfbf" points="17,-595.07 17,-636.07 123,-636.07 123,-595.07 17,-595.07"/>
<text text-anchor="start" x="25" y="-624.07" font-family="Helvetica,sans-Serif" font-size="10.00">real(4), dimension</text>
<text text-anchor="start" x="25" y="-613.07" font-family="Helvetica,sans-Serif" font-size="10.00">(:,:,:), allocatable,</text>
<text text-anchor="middle" x="70" y="-602.07" font-family="Helvetica,sans-Serif" font-size="10.00"> target</text>
</g>
<!-- Node3&#45;&gt;Node1 -->
<g id="edge2" class="edge"><title>Node3&#45;&gt;Node1</title>
<path fill="none" stroke="#9a32cd" stroke-dasharray="5,2" d="M133.083,-610.301C173.273,-604.195 224.844,-591.014 262,-562.57 304.699,-529.883 328.389,-466.184 336.134,-442.101"/>
<polygon fill="#9a32cd" stroke="#9a32cd" points="132.539,-606.843 123.126,-611.706 133.517,-613.775 132.539,-606.843"/>
<text text-anchor="middle" x="210" y="-607.57" font-family="Helvetica,sans-Serif" font-size="10.00"> buffer_dyn</text>
</g>
<!-- Node4 -->
<g id="node4" class="node"><title>Node4</title>
<polygon fill="white" stroke="#bfbfbf" points="16,-535.07 16,-576.07 124,-576.07 124,-535.07 16,-535.07"/>
<text text-anchor="start" x="24" y="-564.07" font-family="Helvetica,sans-Serif" font-size="10.00">real(4), dimension</text>
<text text-anchor="start" x="24" y="-553.07" font-family="Helvetica,sans-Serif" font-size="10.00">(:,:,:,:), allocatable,</text>
<text text-anchor="middle" x="70" y="-542.07" font-family="Helvetica,sans-Serif" font-size="10.00"> target</text>
</g>
<!-- Node4&#45;&gt;Node1 -->
<g id="edge3" class="edge"><title>Node4&#45;&gt;Node1</title>
<path fill="none" stroke="#9a32cd" stroke-dasharray="5,2" d="M134.46,-552.021C173.367,-547.559 223.017,-537.615 262,-515.57 294.679,-497.091 321.457,-459.984 332.949,-442.332"/>
<polygon fill="#9a32cd" stroke="#9a32cd" points="133.881,-548.562 124.302,-553.09 134.614,-555.524 133.881,-548.562"/>
<text text-anchor="middle" x="210" y="-550.57" font-family="Helvetica,sans-Serif" font-size="10.00"> windvect</text>
</g>
<!-- Node5 -->
<g id="node5" class="node"><title>Node5</title>
<polygon fill="white" stroke="#bfbfbf" points="14.5,-497.07 14.5,-516.07 125.5,-516.07 125.5,-497.07 14.5,-497.07"/>
<text text-anchor="middle" x="70" y="-504.07" font-family="Helvetica,sans-Serif" font-size="10.00">character(len=256)</text>
</g>
<!-- Node5&#45;&gt;Node1 -->
<g id="edge4" class="edge"><title>Node5&#45;&gt;Node1</title>
<path fill="none" stroke="#9a32cd" stroke-dasharray="5,2" d="M134.178,-495.013C171.713,-487.489 220.029,-476.65 262,-463.57 281.261,-457.568 302.484,-448.86 317.763,-442.2"/>
<polygon fill="#9a32cd" stroke="#9a32cd" points="133.022,-491.674 123.891,-497.047 134.38,-498.541 133.022,-491.674"/>
<text text-anchor="middle" x="210" y="-503.57" font-family="Helvetica,sans-Serif" font-size="10.00"> tunits</text>
<text text-anchor="middle" x="210" y="-492.57" font-family="Helvetica,sans-Serif" font-size="10.00">tlongname</text>
</g>
<!-- Node6 -->
<g id="node6" class="node"><title>Node6</title>
<polygon fill="white" stroke="#bfbfbf" points="17,-437.07 17,-478.07 123,-478.07 123,-437.07 17,-437.07"/>
<text text-anchor="start" x="25" y="-466.07" font-family="Helvetica,sans-Serif" font-size="10.00">real(4), dimension</text>
<text text-anchor="start" x="25" y="-455.07" font-family="Helvetica,sans-Serif" font-size="10.00">(:,:), allocatable,</text>
<text text-anchor="middle" x="70" y="-444.07" font-family="Helvetica,sans-Serif" font-size="10.00"> target</text>
</g>
<!-- Node6&#45;&gt;Node1 -->
<g id="edge5" class="edge"><title>Node6&#45;&gt;Node1</title>
<path fill="none" stroke="#9a32cd" stroke-dasharray="5,2" d="M133.383,-451.751C177.705,-447.617 236.83,-442.101 280.3,-438.046"/>
<polygon fill="#9a32cd" stroke="#9a32cd" points="132.941,-448.277 123.309,-452.691 133.591,-455.247 132.941,-448.277"/>
<text text-anchor="middle" x="210" y="-451.57" font-family="Helvetica,sans-Serif" font-size="10.00"> psurf</text>
</g>
<!-- Node7 -->
<g id="node7" class="node"><title>Node7</title>
<polygon fill="white" stroke="#bfbfbf" points="17.5,-399.07 17.5,-418.07 122.5,-418.07 122.5,-399.07 17.5,-399.07"/>
<text text-anchor="middle" x="70" y="-406.07" font-family="Helvetica,sans-Serif" font-size="10.00">character(len=64)</text>
</g>
<!-- Node7&#45;&gt;Node1 -->
<g id="edge6" class="edge"><title>Node7&#45;&gt;Node1</title>
<path fill="none" stroke="#9a32cd" stroke-dasharray="5,2" d="M132.742,-413.429C170.16,-416.451 218.846,-420.522 262,-424.57 267.888,-425.123 274.026,-425.722 280.155,-426.335"/>
<polygon fill="#9a32cd" stroke="#9a32cd" points="132.75,-409.918 122.502,-412.605 132.189,-416.895 132.75,-409.918"/>
<text text-anchor="middle" x="210" y="-427.57" font-family="Helvetica,sans-Serif" font-size="10.00"> file_name</text>
</g>
<!-- Node8 -->
<g id="node8" class="node"><title>Node8</title>
<polygon fill="white" stroke="#bfbfbf" points="14.5,-361.07 14.5,-380.07 125.5,-380.07 125.5,-361.07 14.5,-361.07"/>
<text text-anchor="middle" x="70" y="-368.07" font-family="Helvetica,sans-Serif" font-size="10.00">character(len=128)</text>
</g>
<!-- Node8&#45;&gt;Node1 -->
<g id="edge7" class="edge"><title>Node8&#45;&gt;Node1</title>
<path fill="none" stroke="#9a32cd" stroke-dasharray="5,2" d="M135.914,-376.878C173.262,-381.468 220.805,-388.955 262,-400.57 282.203,-406.267 304.223,-415.777 319.52,-422.952"/>
<polygon fill="#9a32cd" stroke="#9a32cd" points="136.008,-373.365 125.665,-375.659 135.181,-380.316 136.008,-373.365"/>
<text text-anchor="middle" x="210" y="-403.57" font-family="Helvetica,sans-Serif" font-size="10.00"> tname</text>
</g>
<!-- Node9 -->
<g id="node9" class="node"><title>Node9</title>
<polygon fill="white" stroke="#bfbfbf" points="0.5,-311.57 0.5,-341.57 139.5,-341.57 139.5,-311.57 0.5,-311.57"/>
<text text-anchor="start" x="8.5" y="-329.57" font-family="Helvetica,sans-Serif" font-size="10.00">character(20), dimension</text>
<text text-anchor="middle" x="70" y="-318.57" font-family="Helvetica,sans-Serif" font-size="10.00">(:), allocatable</text>
</g>
<!-- Node9&#45;&gt;Node1 -->
<g id="edge8" class="edge"><title>Node9&#45;&gt;Node1</title>
<path fill="none" stroke="#9a32cd" stroke-dasharray="5,2" d="M150.006,-326.875C185.814,-329.783 227.711,-337.209 262,-354.57 294.255,-370.902 321.046,-405.957 332.717,-422.947"/>
<polygon fill="#9a32cd" stroke="#9a32cd" points="149.814,-323.353 139.593,-326.141 149.322,-330.336 149.814,-323.353"/>
<text text-anchor="middle" x="210" y="-368.57" font-family="Helvetica,sans-Serif" font-size="10.00"> axis_name</text>
<text text-anchor="middle" x="210" y="-357.57" font-family="Helvetica,sans-Serif" font-size="10.00">axis_name_vert</text>
</g>
<!-- Node10 -->
<g id="node10" class="node"><title>Node10</title>
<polygon fill="white" stroke="#bfbfbf" points="44.5,-175.07 44.5,-194.07 95.5,-194.07 95.5,-175.07 44.5,-175.07"/>
<text text-anchor="middle" x="70" y="-182.07" font-family="Helvetica,sans-Serif" font-size="10.00">integer</text>
</g>
<!-- Node10&#45;&gt;Node1 -->
<g id="edge9" class="edge"><title>Node10&#45;&gt;Node1</title>
<path fill="none" stroke="#9a32cd" stroke-dasharray="5,2" d="M105.78,-177.67C147.557,-171.494 217.552,-168.154 262,-203.57 333.513,-260.552 339.068,-386.548 339.141,-422.698"/>
<polygon fill="#9a32cd" stroke="#9a32cd" points="105.115,-174.232 95.7998,-179.279 106.229,-181.142 105.115,-174.232"/>
<text text-anchor="middle" x="210" y="-316.57" font-family="Helvetica,sans-Serif" font-size="10.00"> kstt_ustm</text>
<text text-anchor="middle" x="210" y="-305.57" font-family="Helvetica,sans-Serif" font-size="10.00">kend_hs</text>
<text text-anchor="middle" x="210" y="-294.57" font-family="Helvetica,sans-Serif" font-size="10.00">kend_diss</text>
<text text-anchor="middle" x="210" y="-283.57" font-family="Helvetica,sans-Serif" font-size="10.00">id_delz</text>
<text text-anchor="middle" x="210" y="-272.57" font-family="Helvetica,sans-Serif" font-size="10.00">id_pfhy</text>
<text text-anchor="middle" x="210" y="-261.57" font-family="Helvetica,sans-Serif" font-size="10.00">kend_tracer</text>
<text text-anchor="middle" x="210" y="-250.57" font-family="Helvetica,sans-Serif" font-size="10.00">kstt_srh01</text>
<text text-anchor="middle" x="210" y="-239.57" font-family="Helvetica,sans-Serif" font-size="10.00">kstt_vstm</text>
<text text-anchor="middle" x="210" y="-228.57" font-family="Helvetica,sans-Serif" font-size="10.00">id_maxvorthy1</text>
<text text-anchor="middle" x="210" y="-217.57" font-family="Helvetica,sans-Serif" font-size="10.00">kend_pfhy</text>
<text text-anchor="middle" x="210" y="-206.57" font-family="Helvetica,sans-Serif" font-size="10.00">...</text>
</g>
<!-- Node11 -->
<g id="node11" class="node"><title>Node11</title>
<polygon fill="white" stroke="#bfbfbf" points="52.5,-9.07047 52.5,-28.0705 87.5,-28.0705 87.5,-9.07047 52.5,-9.07047"/>
<text text-anchor="middle" x="70" y="-16.0705" font-family="Helvetica,sans-Serif" font-size="10.00">real</text>
</g>
<!-- Node11&#45;&gt;Node1 -->
<g id="edge10" class="edge"><title>Node11&#45;&gt;Node1</title>
<path fill="none" stroke="#9a32cd" stroke-dasharray="5,2" d="M97.5024,-10.6437C138.183,-0.265565 216.112,12.2721 262,-27.5705 324.285,-81.6502 336.833,-366.679 338.714,-422.925"/>
<polygon fill="#9a32cd" stroke="#9a32cd" points="96.5146,-7.28495 87.7714,-13.2688 98.3379,-14.0434 96.5146,-7.28495"/>
<text text-anchor="middle" x="210" y="-162.57" font-family="Helvetica,sans-Serif" font-size="10.00"> maxvorthy1</text>
<text text-anchor="middle" x="210" y="-151.57" font-family="Helvetica,sans-Serif" font-size="10.00">uhmin03</text>
<text text-anchor="middle" x="210" y="-140.57" font-family="Helvetica,sans-Serif" font-size="10.00">uhmax03</text>
<text text-anchor="start" x="176.5" y="-129.57" font-family="Helvetica,sans-Serif" font-size="10.00">stndrd_atmos</text>
<text text-anchor="middle" x="210" y="-118.57" font-family="Helvetica,sans-Serif" font-size="10.00">_lapse</text>
<text text-anchor="start" x="176.5" y="-107.57" font-family="Helvetica,sans-Serif" font-size="10.00">stndrd_atmos</text>
<text text-anchor="middle" x="210" y="-96.5705" font-family="Helvetica,sans-Serif" font-size="10.00">_ps</text>
<text text-anchor="middle" x="210" y="-85.5705" font-family="Helvetica,sans-Serif" font-size="10.00">uhmin25</text>
<text text-anchor="middle" x="210" y="-74.5705" font-family="Helvetica,sans-Serif" font-size="10.00">up2</text>
<text text-anchor="middle" x="210" y="-63.5705" font-family="Helvetica,sans-Serif" font-size="10.00">maxvort01</text>
<text text-anchor="middle" x="210" y="-52.5705" font-family="Helvetica,sans-Serif" font-size="10.00">uhmax25</text>
<text text-anchor="middle" x="210" y="-41.5705" font-family="Helvetica,sans-Serif" font-size="10.00">lon</text>
<text text-anchor="middle" x="210" y="-30.5705" font-family="Helvetica,sans-Serif" font-size="10.00">...</text>
</g>
</g>
</svg>
        <g id="navigator" transform="translate(0 0)" fill="#404254">
                <rect fill="#f2f5e9" fill-opacity="0.5" stroke="#606060" stroke-width=".5" x="0" y="0" width="60" height="60"/>
                <use id="zoomplus" xlink:href="#zoomPlus" x="17" y="9" onmousedown="handleZoom(evt,'in')"/>
                <use id="zoomminus" xlink:href="#zoomMin" x="42" y="9" onmousedown="handleZoom(evt,'out')"/>
                <use id="reset" xlink:href="#resetDef" x="30" y="36" onmousedown="handleReset()"/>
                <g id="arrowUp" xlink:href="#dirArrow" transform="translate(30 24)" onmousedown="handlePan(0,-1)">
                  <use xlink:href="#rim" fill="#404040">
                        <set attributeName="fill" to="#808080" begin="arrowUp.mouseover" end="arrowUp.mouseout"/>
                  </use>
                  <path fill="none" stroke="white" stroke-width="1.5" d="M0,-3.0v7 M-2.5,-0.5L0,-3.0L2.5,-0.5"/>
                </g>
                <g id="arrowRight" xlink:href="#dirArrow" transform="rotate(90) translate(36 -43)" onmousedown="handlePan(1,0)">
                  <use xlink:href="#rim" fill="#404040">
                        <set attributeName="fill" to="#808080" begin="arrowRight.mouseover" end="arrowRight.mouseout"/>
                  </use>
                  <path fill="none" stroke="white" stroke-width="1.5" d="M0,-3.0v7 M-2.5,-0.5L0,-3.0L2.5,-0.5"/>
                </g>
                <g id="arrowDown" xlink:href="#dirArrow" transform="rotate(180) translate(-30 -48)" onmousedown="handlePan(0,1)">
                  <use xlink:href="#rim" fill="#404040">
                        <set attributeName="fill" to="#808080" begin="arrowDown.mouseover" end="arrowDown.mouseout"/>
                  </use>
                  <path fill="none" stroke="white" stroke-width="1.5" d="M0,-3.0v7 M-2.5,-0.5L0,-3.0L2.5,-0.5"/>
                </g>
                <g id="arrowLeft" xlink:href="#dirArrow" transform="rotate(270) translate(-36 17)" onmousedown="handlePan(-1,0)">
                  <use xlink:href="#rim" fill="#404040">
                        <set attributeName="fill" to="#808080" begin="arrowLeft.mouseover" end="arrowLeft.mouseout"/>
                  </use>
                  <path fill="none" stroke="white" stroke-width="1.5" d="M0,-3.0v7 M-2.5,-0.5L0,-3.0L2.5,-0.5"/>
                </g>
        </g>
        <svg viewBox="0 0 15 15" width="100%" height="30px" preserveAspectRatio="xMaxYMin meet">
         <g id="arrow_out" transform="scale(0.3 0.3)">
          <a xlink:href="classfv__nggps__diags__mod__coll__graph_org.svg" target="_base">
           <rect id="button" ry="5" rx="5" y="6" x="6" height="38" width="38"
                fill="#f2f5e9" fill-opacity="0.5" stroke="#606060" stroke-width="1.0"/>
           <path id="arrow"
             d="M 11.500037,31.436501 C 11.940474,20.09759 22.043105,11.32322 32.158766,21.979434 L 37.068811,17.246167 C 37.068811,17.246167 37.088388,32 37.088388,32 L 22.160133,31.978069 C 22.160133,31.978069 26.997745,27.140456 26.997745,27.140456 C 18.528582,18.264221 13.291696,25.230495 11.500037,31.436501 z"
             style="fill:#404040;"/>
          </a>
         </g>
        </svg>
</svg>
