<?xml version="1.0" encoding="UTF-8" standalone="no"?>
<!DOCTYPE svg PUBLIC "-//W3C//DTD SVG 1.1//EN"
 "http://www.w3.org/Graphics/SVG/1.1/DTD/svg11.dtd">
<!-- Generated by graphviz version 2.30.1 (20180420.1509)
 -->
<!-- Title: atmosphere_mod Pages: 1 -->
<svg width="382pt" height="424pt"
 viewBox="0.00 0.00 382.00 424.15" xmlns="http://www.w3.org/2000/svg" xmlns:xlink="http://www.w3.org/1999/xlink">
<g id="graph0" class="graph" transform="scale(1 1) rotate(0) translate(4 420.151)">
<title>atmosphere_mod</title>
<polygon fill="white" stroke="white" points="-4,5 -4,-420.151 379,-420.151 379,5 -4,5"/>
<!-- Node1 -->
<g id="node1" class="node"><title>Node1</title>
<polygon fill="#bfbfbf" stroke="black" points="272,-277.651 272,-296.651 374,-296.651 374,-277.651 272,-277.651"/>
<text text-anchor="middle" x="323" y="-284.651" font-family="Helvetica,sans-Serif" font-size="10.00">atmosphere_mod</text>
</g>
<!-- Node2 -->
<g id="node2" class="node"><title>Node2</title>
<polygon fill="white" stroke="#bfbfbf" points="49.5,-392.651 49.5,-411.651 98.5,-411.651 98.5,-392.651 49.5,-392.651"/>
<text text-anchor="middle" x="74" y="-399.651" font-family="Helvetica,sans-Serif" font-size="10.00">logical</text>
</g>
<!-- Node2&#45;&gt;Node1 -->
<g id="edge1" class="edge"><title>Node2&#45;&gt;Node1</title>
<path fill="none" stroke="#9a32cd" stroke-dasharray="5,2" d="M108.618,-397.089C146.071,-390.373 207.468,-376.093 254,-349.151 278.61,-334.902 301.872,-310.493 313.763,-296.942"/>
<polygon fill="#9a32cd" stroke="#9a32cd" points="107.986,-393.646 98.7213,-398.786 109.169,-400.545 107.986,-393.646"/>
<text text-anchor="middle" x="210" y="-408.151" font-family="Helvetica,sans-Serif" font-size="10.00"> first_diag</text>
<text text-anchor="middle" x="210" y="-397.151" font-family="Helvetica,sans-Serif" font-size="10.00">cold_start</text>
<text text-anchor="middle" x="210" y="-386.151" font-family="Helvetica,sans-Serif" font-size="10.00">grids_on_this_pe</text>
</g>
<!-- Node3 -->
<g id="node3" class="node"><title>Node3</title>
<polygon fill="white" stroke="#bfbfbf" points="0.5,-332.651 0.5,-373.651 147.5,-373.651 147.5,-332.651 0.5,-332.651"/>
<text text-anchor="start" x="8.5" y="-361.651" font-family="Helvetica,sans-Serif" font-size="10.00">type(fv_atmos_type)</text>
<text text-anchor="start" x="8.5" y="-350.651" font-family="Helvetica,sans-Serif" font-size="10.00">, dimension(:), allocatable,</text>
<text text-anchor="middle" x="74" y="-339.651" font-family="Helvetica,sans-Serif" font-size="10.00"> target, public</text>
</g>
<!-- Node3&#45;&gt;Node1 -->
<g id="edge2" class="edge"><title>Node3&#45;&gt;Node1</title>
<path fill="none" stroke="#9a32cd" stroke-dasharray="5,2" d="M157.981,-336.448C188.403,-329.721 222.973,-321.367 254,-312.151 268.951,-307.71 285.373,-301.705 298.332,-296.694"/>
<polygon fill="#9a32cd" stroke="#9a32cd" points="156.855,-333.111 147.833,-338.666 158.35,-339.95 156.855,-333.111"/>
<text text-anchor="middle" x="210" y="-337.151" font-family="Helvetica,sans-Serif" font-size="10.00"> atm</text>
</g>
<!-- Node4 -->
<g id="node4" class="node"><title>Node4</title>
<polygon fill="white" stroke="#bfbfbf" points="26.5,-294.651 26.5,-313.651 121.5,-313.651 121.5,-294.651 26.5,-294.651"/>
<text text-anchor="middle" x="74" y="-301.651" font-family="Helvetica,sans-Serif" font-size="10.00">type(time_type)</text>
</g>
<!-- Node4&#45;&gt;Node1 -->
<g id="edge3" class="edge"><title>Node4&#45;&gt;Node1</title>
<path fill="none" stroke="#9a32cd" stroke-dasharray="5,2" d="M131.866,-300.237C174.058,-297.333 231.06,-293.41 271.619,-290.618"/>
<polygon fill="#9a32cd" stroke="#9a32cd" points="131.485,-296.755 121.749,-300.933 131.966,-303.738 131.485,-296.755"/>
<text text-anchor="middle" x="210" y="-300.151" font-family="Helvetica,sans-Serif" font-size="10.00"> time_step_atmos</text>
</g>
<!-- Node5 -->
<g id="node5" class="node"><title>Node5</title>
<polygon fill="white" stroke="#bfbfbf" points="21.5,-256.651 21.5,-275.651 126.5,-275.651 126.5,-256.651 21.5,-256.651"/>
<text text-anchor="middle" x="74" y="-263.651" font-family="Helvetica,sans-Serif" font-size="10.00">character(len=20)</text>
</g>
<!-- Node5&#45;&gt;Node1 -->
<g id="edge4" class="edge"><title>Node5&#45;&gt;Node1</title>
<path fill="none" stroke="#9a32cd" stroke-dasharray="5,2" d="M137.185,-268.677C171.663,-270.403 215.271,-273.12 254,-277.151 259.816,-277.756 265.896,-278.496 271.927,-279.297"/>
<polygon fill="#9a32cd" stroke="#9a32cd" points="136.952,-265.161 126.794,-268.173 136.612,-272.153 136.952,-265.161"/>
<text text-anchor="middle" x="210" y="-280.151" font-family="Helvetica,sans-Serif" font-size="10.00"> mod_name</text>
</g>
<!-- Node6 -->
<g id="node6" class="node"><title>Node6</title>
<polygon fill="white" stroke="#bfbfbf" points="48.5,-116.651 48.5,-135.651 99.5,-135.651 99.5,-116.651 48.5,-116.651"/>
<text text-anchor="middle" x="74" y="-123.651" font-family="Helvetica,sans-Serif" font-size="10.00">integer</text>
</g>
<!-- Node6&#45;&gt;Node1 -->
<g id="edge5" class="edge"><title>Node6&#45;&gt;Node1</title>
<path fill="none" stroke="#9a32cd" stroke-dasharray="5,2" d="M109.852,-120.475C148.671,-116.122 211.536,-115.156 254,-145.151 300.438,-177.952 316.305,-251.193 320.622,-277.506"/>
<polygon fill="#9a32cd" stroke="#9a32cd" points="109.062,-117.047 99.578,-121.77 109.937,-123.992 109.062,-117.047"/>
<text text-anchor="middle" x="210" y="-258.151" font-family="Helvetica,sans-Serif" font-size="10.00"> npy</text>
<text text-anchor="middle" x="210" y="-247.151" font-family="Helvetica,sans-Serif" font-size="10.00">iec</text>
<text text-anchor="middle" x="210" y="-236.151" font-family="Helvetica,sans-Serif" font-size="10.00">npz</text>
<text text-anchor="middle" x="210" y="-225.151" font-family="Helvetica,sans-Serif" font-size="10.00">ied</text>
<text text-anchor="middle" x="210" y="-214.151" font-family="Helvetica,sans-Serif" font-size="10.00">jec</text>
<text text-anchor="middle" x="210" y="-203.151" font-family="Helvetica,sans-Serif" font-size="10.00">p_split</text>
<text text-anchor="middle" x="210" y="-192.151" font-family="Helvetica,sans-Serif" font-size="10.00">nq</text>
<text text-anchor="middle" x="210" y="-181.151" font-family="Helvetica,sans-Serif" font-size="10.00">jed</text>
<text text-anchor="middle" x="210" y="-170.151" font-family="Helvetica,sans-Serif" font-size="10.00">ncnst</text>
<text text-anchor="middle" x="210" y="-159.151" font-family="Helvetica,sans-Serif" font-size="10.00">pelist</text>
<text text-anchor="middle" x="210" y="-148.151" font-family="Helvetica,sans-Serif" font-size="10.00">...</text>
</g>
<!-- Node7 -->
<g id="node7" class="node"><title>Node7</title>
<polygon fill="white" stroke="#bfbfbf" points="56.5,-5.65066 56.5,-24.6507 91.5,-24.6507 91.5,-5.65066 56.5,-5.65066"/>
<text text-anchor="middle" x="74" y="-12.6507" font-family="Helvetica,sans-Serif" font-size="10.00">real</text>
</g>
<!-- Node7&#45;&gt;Node1 -->
<g id="edge6" class="edge"><title>Node7&#45;&gt;Node1</title>
<path fill="none" stroke="#9a32cd" stroke-dasharray="5,2" d="M101.475,-8.07666C139.758,0.426978 210.712,9.47836 254,-26.1507 294.492,-59.4787 316.186,-234.311 320.976,-277.498"/>
<polygon fill="#9a32cd" stroke="#9a32cd" points="100.515,-4.70726 91.5944,-10.423 102.133,-11.5179 100.515,-4.70726"/>
<text text-anchor="middle" x="210" y="-106.151" font-family="Helvetica,sans-Serif" font-size="10.00"> pref</text>
<text text-anchor="middle" x="210" y="-95.1507" font-family="Helvetica,sans-Serif" font-size="10.00">zvir</text>
<text text-anchor="middle" x="210" y="-84.1507" font-family="Helvetica,sans-Serif" font-size="10.00">dum1d</text>
<text text-anchor="middle" x="210" y="-73.1507" font-family="Helvetica,sans-Serif" font-size="10.00">v_dt</text>
<text text-anchor="middle" x="210" y="-62.1507" font-family="Helvetica,sans-Serif" font-size="10.00">u_dt</text>
<text text-anchor="middle" x="210" y="-51.1507" font-family="Helvetica,sans-Serif" font-size="10.00">t_dt</text>
<text text-anchor="middle" x="210" y="-40.1507" font-family="Helvetica,sans-Serif" font-size="10.00">w0_big</text>
<text text-anchor="middle" x="210" y="-29.1507" font-family="Helvetica,sans-Serif" font-size="10.00">dt_atmos</text>
</g>
</g>
</svg>
