<?xml version="1.0" encoding="UTF-8" standalone="no"?>
<!DOCTYPE svg PUBLIC "-//W3C//DTD SVG 1.1//EN"
 "http://www.w3.org/Graphics/SVG/1.1/DTD/svg11.dtd">
<!-- Generated by graphviz version 2.30.1 (20180420.1509)
 -->
<!-- Title: fv_timing_mod Pages: 1 -->
<svg width="506pt" height="206pt"
 viewBox="0.00 0.00 506.00 206.00" xmlns="http://www.w3.org/2000/svg" xmlns:xlink="http://www.w3.org/1999/xlink">
<g id="graph0" class="graph" transform="scale(1 1) rotate(0) translate(4 202)">
<title>fv_timing_mod</title>
<polygon fill="white" stroke="white" points="-4,5 -4,-202 503,-202 503,5 -4,5"/>
<!-- Node1 -->
<g id="node1" class="node"><title>Node1</title>
<polygon fill="#bfbfbf" stroke="black" points="223,-0.5 223,-19.5 313,-19.5 313,-0.5 223,-0.5"/>
<text text-anchor="middle" x="268" y="-7.5" font-family="Helvetica,sans-Serif" font-size="10.00">fv_timing_mod</text>
</g>
<!-- Node2 -->
<g id="node2" class="node"><title>Node2</title>
<polygon fill="white" stroke="#bfbfbf" points="-0.5,-100.5 -0.5,-119.5 48.5,-119.5 48.5,-100.5 -0.5,-100.5"/>
<text text-anchor="middle" x="24" y="-107.5" font-family="Helvetica,sans-Serif" font-size="10.00">logical</text>
</g>
<!-- Node2&#45;&gt;Node1 -->
<g id="edge1" class="edge"><title>Node2&#45;&gt;Node1</title>
<path fill="none" stroke="#9a32cd" stroke-dasharray="5,2" d="M21.8228,-90.056C21.106,-73.8368 23.0339,-51.09 37,-38 63.0353,-13.5979 163.236,-10.0209 222.779,-10.1449"/>
<polygon fill="#9a32cd" stroke="#9a32cd" points="18.3355,-90.3557 22.626,-100.043 25.3129,-89.7945 18.3355,-90.3557"/>
<text text-anchor="middle" x="84" y="-57.5" font-family="Helvetica,sans-Serif" font-size="10.00"> module_initialized</text>
</g>
<!-- Node3 -->
<g id="node3" class="node"><title>Node3</title>
<g id="a_node3"><a xlink:href="structfv__timing__mod_1_1tms.html" target="_top" xlink:title="fv_timing_mod::tms">
<polygon fill="white" stroke="black" points="66.5,-100.5 66.5,-119.5 181.5,-119.5 181.5,-100.5 66.5,-100.5"/>
<text text-anchor="middle" x="124" y="-107.5" font-family="Helvetica,sans-Serif" font-size="10.00">fv_timing_mod::tms</text>
</a>
</g>
</g>
<!-- Node3&#45;&gt;Node1 -->
<g id="edge2" class="edge"><title>Node3&#45;&gt;Node1</title>
<path fill="none" stroke="#9a32cd" stroke-dasharray="5,2" d="M130.828,-90.5871C137.767,-74.3843 150.06,-51.3531 168,-38 183.796,-26.2428 204.375,-19.6037 222.755,-15.8553"/>
<polygon fill="#9a32cd" stroke="#9a32cd" points="127.496,-89.4935 127.035,-100.078 133.996,-92.0909 127.496,-89.4935"/>
<text text-anchor="middle" x="186" y="-63" font-family="Helvetica,sans-Serif" font-size="10.00"> accum</text>
<text text-anchor="middle" x="186" y="-52" font-family="Helvetica,sans-Serif" font-size="10.00">last</text>
</g>
<!-- Node4 -->
<g id="node4" class="node"><title>Node4</title>
<polygon fill="white" stroke="#bfbfbf" points="147,-178.5 147,-197.5 225,-197.5 225,-178.5 147,-178.5"/>
<text text-anchor="middle" x="186" y="-185.5" font-family="Helvetica,sans-Serif" font-size="10.00">real(kind=8)</text>
</g>
<!-- Node4&#45;&gt;Node3 -->
<g id="edge3" class="edge"><title>Node4&#45;&gt;Node3</title>
<path fill="none" stroke="#9a32cd" stroke-dasharray="5,2" d="M172.492,-170.442C159.725,-154.792 141.073,-131.928 131.029,-119.616"/>
<polygon fill="#9a32cd" stroke="#9a32cd" points="169.854,-172.746 178.888,-178.282 175.279,-168.321 169.854,-172.746"/>
<text text-anchor="middle" x="173" y="-152" font-family="Helvetica,sans-Serif" font-size="10.00"> sys</text>
<text text-anchor="middle" x="173" y="-141" font-family="Helvetica,sans-Serif" font-size="10.00">usr</text>
</g>
<!-- Node4&#45;&gt;Node1 -->
<g id="edge5" class="edge"><title>Node4&#45;&gt;Node1</title>
<path fill="none" stroke="#9a32cd" stroke-dasharray="5,2" d="M194.474,-168.812C211.9,-131.41 251.185,-47.0911 263.927,-19.7429"/>
<polygon fill="#9a32cd" stroke="#9a32cd" points="191.23,-167.488 190.179,-178.03 197.575,-170.444 191.23,-167.488"/>
<text text-anchor="middle" x="241" y="-107.5" font-family="Helvetica,sans-Serif" font-size="10.00"> totim</text>
</g>
<!-- Node5 -->
<g id="node5" class="node"><title>Node5</title>
<polygon fill="white" stroke="#bfbfbf" points="266.5,-100.5 266.5,-119.5 371.5,-119.5 371.5,-100.5 266.5,-100.5"/>
<text text-anchor="middle" x="319" y="-107.5" font-family="Helvetica,sans-Serif" font-size="10.00">character(len=20)</text>
</g>
<!-- Node5&#45;&gt;Node1 -->
<g id="edge4" class="edge"><title>Node5&#45;&gt;Node1</title>
<path fill="none" stroke="#9a32cd" stroke-dasharray="5,2" d="M309.832,-91.3836C298.809,-70.2011 280.755,-35.5087 272.443,-19.5374"/>
<polygon fill="#9a32cd" stroke="#9a32cd" points="306.753,-93.0482 314.474,-100.303 312.962,-89.8167 306.753,-93.0482"/>
<text text-anchor="middle" x="327" y="-57.5" font-family="Helvetica,sans-Serif" font-size="10.00"> blkname</text>
</g>
<!-- Node6 -->
<g id="node6" class="node"><title>Node6</title>
<polygon fill="white" stroke="#bfbfbf" points="389.5,-100.5 389.5,-119.5 424.5,-119.5 424.5,-100.5 389.5,-100.5"/>
<text text-anchor="middle" x="407" y="-107.5" font-family="Helvetica,sans-Serif" font-size="10.00">real</text>
</g>
<!-- Node6&#45;&gt;Node1 -->
<g id="edge6" class="edge"><title>Node6&#45;&gt;Node1</title>
<path fill="none" stroke="#9a32cd" stroke-dasharray="5,2" d="M397.962,-91.2202C388.911,-75.1165 373.534,-51.8537 354,-38 342.001,-29.4903 327.219,-23.5896 313.315,-19.5292"/>
<polygon fill="#9a32cd" stroke="#9a32cd" points="394.952,-93.0134 402.761,-100.174 401.122,-89.7065 394.952,-93.0134"/>
<text text-anchor="middle" x="415" y="-74" font-family="Helvetica,sans-Serif" font-size="10.00"> us_tmp2</text>
<text text-anchor="middle" x="415" y="-63" font-family="Helvetica,sans-Serif" font-size="10.00">tarray</text>
<text text-anchor="middle" x="415" y="-52" font-family="Helvetica,sans-Serif" font-size="10.00">etime</text>
<text text-anchor="middle" x="415" y="-41" font-family="Helvetica,sans-Serif" font-size="10.00">us_tmp1</text>
</g>
<!-- Node7 -->
<g id="node7" class="node"><title>Node7</title>
<polygon fill="white" stroke="#bfbfbf" points="446.5,-100.5 446.5,-119.5 497.5,-119.5 497.5,-100.5 446.5,-100.5"/>
<text text-anchor="middle" x="472" y="-107.5" font-family="Helvetica,sans-Serif" font-size="10.00">integer</text>
</g>
<!-- Node7&#45;&gt;Node1 -->
<g id="edge7" class="edge"><title>Node7&#45;&gt;Node1</title>
<path fill="none" stroke="#9a32cd" stroke-dasharray="5,2" d="M469.271,-90.3241C465.841,-73.9065 458.288,-50.7061 442,-38 422.476,-22.7698 357.984,-16.0031 313.254,-13.0873"/>
<polygon fill="#9a32cd" stroke="#9a32cd" points="465.863,-91.1523 471.043,-100.394 472.757,-89.9387 465.863,-91.1523"/>
<text text-anchor="middle" x="483" y="-63" font-family="Helvetica,sans-Serif" font-size="10.00"> nblks</text>
<text text-anchor="middle" x="483" y="-52" font-family="Helvetica,sans-Serif" font-size="10.00">tblk</text>
</g>
</g>
</svg>
