<?xml version="1.0" encoding="UTF-8" standalone="no"?>
<!DOCTYPE svg PUBLIC "-//W3C//DTD SVG 1.1//EN"
 "http://www.w3.org/Graphics/SVG/1.1/DTD/svg11.dtd">
<!-- Generated by graphviz version 2.30.1 (20180420.1509)
 -->
<!-- Title: dycore_typedefs::var_subtype Pages: 1 -->
<svg width="126pt" height="118pt"
 viewBox="0.00 0.00 126.00 118.00" xmlns="http://www.w3.org/2000/svg" xmlns:xlink="http://www.w3.org/1999/xlink">
<g id="graph0" class="graph" transform="scale(1 1) rotate(0) translate(4 114)">
<title>dycore_typedefs::var_subtype</title>
<polygon fill="white" stroke="white" points="-4,5 -4,-114 123,-114 123,5 -4,5"/>
<!-- Node1 -->
<g id="node1" class="node"><title>Node1</title>
<polygon fill="#bfbfbf" stroke="black" points="-0.5,-1 -0.5,-31 118.5,-31 118.5,-1 -0.5,-1"/>
<text text-anchor="start" x="7.5" y="-19" font-family="Helvetica,sans-Serif" font-size="10.00">dycore_typedefs::var</text>
<text text-anchor="middle" x="59" y="-8" font-family="Helvetica,sans-Serif" font-size="10.00">_subtype</text>
</g>
<!-- Node2 -->
<g id="node2" class="node"><title>Node2</title>
<polygon fill="white" stroke="#bfbfbf" points="5,-90.5 5,-109.5 113,-109.5 113,-90.5 5,-90.5"/>
<text text-anchor="middle" x="59" y="-97.5" font-family="Helvetica,sans-Serif" font-size="10.00">real(kind=r8_kind)</text>
</g>
<!-- Node2&#45;&gt;Node1 -->
<g id="edge1" class="edge"><title>Node2&#45;&gt;Node1</title>
<path fill="none" stroke="#9a32cd" stroke-dasharray="5,2" d="M59,-80.1139C59,-65.2014 59,-44.7195 59,-31.1839"/>
<polygon fill="#9a32cd" stroke="#9a32cd" points="55.5001,-80.2245 59,-90.2246 62.5001,-80.2246 55.5001,-80.2245"/>
<text text-anchor="middle" x="74.5" y="-64" font-family="Helvetica,sans-Serif" font-size="10.00"> var3p</text>
<text text-anchor="middle" x="74.5" y="-53" font-family="Helvetica,sans-Serif" font-size="10.00">var2p</text>
</g>
</g>
</svg>
