<?xml version="1.0" encoding="UTF-8" standalone="no"?>
<!DOCTYPE svg PUBLIC "-//W3C//DTD SVG 1.1//EN"
 "http://www.w3.org/Graphics/SVG/1.1/DTD/svg11.dtd">
<!-- Generated by graphviz version 2.30.1 (20180420.1509)
 -->
<!-- Title: fv_regional_mod::fv_regional_bc_variables Pages: 1 -->
<svg width="136pt" height="218pt"
 viewBox="0.00 0.00 136.00 218.00" xmlns="http://www.w3.org/2000/svg" xmlns:xlink="http://www.w3.org/1999/xlink">
<g id="graph0" class="graph" transform="scale(1 1) rotate(0) translate(4 214)">
<title>fv_regional_mod::fv_regional_bc_variables</title>
<polygon fill="white" stroke="white" points="-4,5 -4,-214 133,-214 133,5 -4,5"/>
<!-- Node1 -->
<g id="node1" class="node"><title>Node1</title>
<polygon fill="#bfbfbf" stroke="black" points="0,-1 0,-31 128,-31 128,-1 0,-1"/>
<text text-anchor="start" x="8" y="-19" font-family="Helvetica,sans-Serif" font-size="10.00">fv_regional_mod::fv</text>
<text text-anchor="middle" x="64" y="-8" font-family="Helvetica,sans-Serif" font-size="10.00">_regional_bc_variables</text>
</g>
<!-- Node2 -->
<g id="node2" class="node"><title>Node2</title>
<polygon fill="white" stroke="#bfbfbf" points="46.5,-190.5 46.5,-209.5 81.5,-209.5 81.5,-190.5 46.5,-190.5"/>
<text text-anchor="middle" x="64" y="-197.5" font-family="Helvetica,sans-Serif" font-size="10.00">real</text>
</g>
<!-- Node2&#45;&gt;Node1 -->
<g id="edge1" class="edge"><title>Node2&#45;&gt;Node1</title>
<path fill="none" stroke="#9a32cd" stroke-dasharray="5,2" d="M64,-179.933C64,-143.242 64,-63.578 64,-31.1558"/>
<polygon fill="#9a32cd" stroke="#9a32cd" points="60.5001,-180.222 64,-190.222 67.5001,-180.222 60.5001,-180.222"/>
<text text-anchor="middle" x="86" y="-163.5" font-family="Helvetica,sans-Serif" font-size="10.00"> q_bc</text>
<text text-anchor="middle" x="86" y="-152.5" font-family="Helvetica,sans-Serif" font-size="10.00">delp_bc</text>
<text text-anchor="middle" x="86" y="-141.5" font-family="Helvetica,sans-Serif" font-size="10.00">pt_bc</text>
<text text-anchor="middle" x="86" y="-130.5" font-family="Helvetica,sans-Serif" font-size="10.00">w_bc</text>
<text text-anchor="middle" x="86" y="-119.5" font-family="Helvetica,sans-Serif" font-size="10.00">divgd_bc</text>
<text text-anchor="middle" x="86" y="-108.5" font-family="Helvetica,sans-Serif" font-size="10.00">uc_bc</text>
<text text-anchor="middle" x="86" y="-97.5" font-family="Helvetica,sans-Serif" font-size="10.00">v_bc</text>
<text text-anchor="middle" x="86" y="-86.5" font-family="Helvetica,sans-Serif" font-size="10.00">delz_bc</text>
<text text-anchor="middle" x="86" y="-75.5" font-family="Helvetica,sans-Serif" font-size="10.00">vc_bc</text>
<text text-anchor="middle" x="86" y="-64.5" font-family="Helvetica,sans-Serif" font-size="10.00">u_bc</text>
<text text-anchor="middle" x="86" y="-53.5" font-family="Helvetica,sans-Serif" font-size="10.00">...</text>
</g>
</g>
</svg>
