<?xml version="1.0" encoding="UTF-8" standalone="no"?>
<!DOCTYPE svg PUBLIC "-//W3C//DTD SVG 1.1//EN"
 "http://www.w3.org/Graphics/SVG/1.1/DTD/svg11.dtd">
<!-- Generated by graphviz version 2.30.1 (20180420.1509)
 -->
<!-- Title: fv_arrays_mod::fv_regional_bc_bounds_type Pages: 1 -->
<svg width="158pt" height="218pt"
 viewBox="0.00 0.00 158.00 218.00" xmlns="http://www.w3.org/2000/svg" xmlns:xlink="http://www.w3.org/1999/xlink">
<g id="graph0" class="graph" transform="scale(1 1) rotate(0) translate(4 214)">
<title>fv_arrays_mod::fv_regional_bc_bounds_type</title>
<polygon fill="white" stroke="white" points="-4,5 -4,-214 155,-214 155,5 -4,5"/>
<!-- Node1 -->
<g id="node1" class="node"><title>Node1</title>
<polygon fill="#bfbfbf" stroke="black" points="0,-1 0,-31 150,-31 150,-1 0,-1"/>
<text text-anchor="start" x="8" y="-19" font-family="Helvetica,sans-Serif" font-size="10.00">fv_arrays_mod::fv_regional</text>
<text text-anchor="middle" x="75" y="-8" font-family="Helvetica,sans-Serif" font-size="10.00">_bc_bounds_type</text>
</g>
<!-- Node2 -->
<g id="node2" class="node"><title>Node2</title>
<polygon fill="white" stroke="#bfbfbf" points="49.5,-190.5 49.5,-209.5 100.5,-209.5 100.5,-190.5 49.5,-190.5"/>
<text text-anchor="middle" x="75" y="-197.5" font-family="Helvetica,sans-Serif" font-size="10.00">integer</text>
</g>
<!-- Node2&#45;&gt;Node1 -->
<g id="edge1" class="edge"><title>Node2&#45;&gt;Node1</title>
<path fill="none" stroke="#9a32cd" stroke-dasharray="5,2" d="M75,-179.933C75,-143.242 75,-63.578 75,-31.1558"/>
<polygon fill="#9a32cd" stroke="#9a32cd" points="71.5001,-180.222 75,-190.222 78.5001,-180.222 71.5001,-180.222"/>
<text text-anchor="middle" x="107" y="-163.5" font-family="Helvetica,sans-Serif" font-size="10.00"> ie_east_uvw</text>
<text text-anchor="middle" x="107" y="-152.5" font-family="Helvetica,sans-Serif" font-size="10.00">is_east_uvw</text>
<text text-anchor="middle" x="107" y="-141.5" font-family="Helvetica,sans-Serif" font-size="10.00">ie_north_uvs</text>
<text text-anchor="middle" x="107" y="-130.5" font-family="Helvetica,sans-Serif" font-size="10.00">ie_west</text>
<text text-anchor="middle" x="107" y="-119.5" font-family="Helvetica,sans-Serif" font-size="10.00">is_east</text>
<text text-anchor="middle" x="107" y="-108.5" font-family="Helvetica,sans-Serif" font-size="10.00">je_south</text>
<text text-anchor="middle" x="107" y="-97.5" font-family="Helvetica,sans-Serif" font-size="10.00">je_east_uvw</text>
<text text-anchor="middle" x="107" y="-86.5" font-family="Helvetica,sans-Serif" font-size="10.00">je_west</text>
<text text-anchor="middle" x="107" y="-75.5" font-family="Helvetica,sans-Serif" font-size="10.00">js_east</text>
<text text-anchor="middle" x="107" y="-64.5" font-family="Helvetica,sans-Serif" font-size="10.00">js_south_uvs</text>
<text text-anchor="middle" x="107" y="-53.5" font-family="Helvetica,sans-Serif" font-size="10.00">...</text>
</g>
</g>
</svg>
