<?xml version="1.0" encoding="UTF-8" standalone="no"?>
<!DOCTYPE svg PUBLIC "-//W3C//DTD SVG 1.1//EN"
 "http://www.w3.org/Graphics/SVG/1.1/DTD/svg11.dtd">
<!-- Generated by graphviz version 2.30.1 (20180420.1509)
 -->
<!-- Title: dycore_typedefs::dycore_data_type Pages: 1 -->
<svg width="144pt" height="264pt"
 viewBox="0.00 0.00 144.00 264.00" xmlns="http://www.w3.org/2000/svg" xmlns:xlink="http://www.w3.org/1999/xlink">
<g id="graph0" class="graph" transform="scale(1 1) rotate(0) translate(4 260)">
<title>dycore_typedefs::dycore_data_type</title>
<polygon fill="white" stroke="white" points="-4,5 -4,-260 141,-260 141,5 -4,5"/>
<!-- Node1 -->
<g id="node1" class="node"><title>Node1</title>
<polygon fill="#bfbfbf" stroke="black" points="-0.5,-1 -0.5,-31 136.5,-31 136.5,-1 -0.5,-1"/>
<text text-anchor="start" x="7.5" y="-19" font-family="Helvetica,sans-Serif" font-size="10.00">dycore_typedefs::dycore</text>
<text text-anchor="middle" x="68" y="-8" font-family="Helvetica,sans-Serif" font-size="10.00">_data_type</text>
</g>
<!-- Node2 -->
<g id="node2" class="node"><title>Node2</title>
<g id="a_node2"><a xlink:href="structdycore__typedefs_1_1dycore__coupling__type.html" target="_top" xlink:title="dycore_typedefs::dycore\l_coupling_type">
<polygon fill="white" stroke="black" points="-0.5,-81 -0.5,-111 136.5,-111 136.5,-81 -0.5,-81"/>
<text text-anchor="start" x="7.5" y="-99" font-family="Helvetica,sans-Serif" font-size="10.00">dycore_typedefs::dycore</text>
<text text-anchor="middle" x="68" y="-88" font-family="Helvetica,sans-Serif" font-size="10.00">_coupling_type</text>
</a>
</g>
</g>
<!-- Node2&#45;&gt;Node1 -->
<g id="edge1" class="edge"><title>Node2&#45;&gt;Node1</title>
<path fill="none" stroke="#9a32cd" stroke-dasharray="5,2" d="M68,-70.5644C68,-57.6243 68,-42.1862 68,-31.2157"/>
<polygon fill="#9a32cd" stroke="#9a32cd" points="64.5001,-70.6936 68,-80.6936 71.5001,-70.6936 64.5001,-70.6936"/>
<text text-anchor="middle" x="90.5" y="-53.5" font-family="Helvetica,sans-Serif" font-size="10.00"> coupling</text>
</g>
<!-- Node3 -->
<g id="node3" class="node"><title>Node3</title>
<polygon fill="white" stroke="#bfbfbf" points="14,-236.5 14,-255.5 122,-255.5 122,-236.5 14,-236.5"/>
<text text-anchor="middle" x="68" y="-243.5" font-family="Helvetica,sans-Serif" font-size="10.00">real(kind=r8_kind)</text>
</g>
<!-- Node3&#45;&gt;Node2 -->
<g id="edge2" class="edge"><title>Node3&#45;&gt;Node2</title>
<path fill="none" stroke="#9a32cd" stroke-dasharray="5,2" d="M68,-225.798C68,-195.728 68,-138.2 68,-111.401"/>
<polygon fill="#9a32cd" stroke="#9a32cd" points="64.5001,-226.185 68,-236.185 71.5001,-226.185 64.5001,-226.185"/>
<text text-anchor="middle" x="82.5" y="-210" font-family="Helvetica,sans-Serif" font-size="10.00"> slp</text>
<text text-anchor="middle" x="82.5" y="-199" font-family="Helvetica,sans-Serif" font-size="10.00">p_bot</text>
<text text-anchor="middle" x="82.5" y="-188" font-family="Helvetica,sans-Serif" font-size="10.00">p_srf</text>
<text text-anchor="middle" x="82.5" y="-177" font-family="Helvetica,sans-Serif" font-size="10.00">t_bot</text>
<text text-anchor="middle" x="82.5" y="-166" font-family="Helvetica,sans-Serif" font-size="10.00">tr_bot</text>
<text text-anchor="middle" x="82.5" y="-155" font-family="Helvetica,sans-Serif" font-size="10.00">u_bot</text>
<text text-anchor="middle" x="82.5" y="-144" font-family="Helvetica,sans-Serif" font-size="10.00">v_bot</text>
<text text-anchor="middle" x="82.5" y="-133" font-family="Helvetica,sans-Serif" font-size="10.00">z_bot</text>
</g>
</g>
</svg>
