<?xml version="1.0" encoding="UTF-8" standalone="no"?>
<!DOCTYPE svg PUBLIC "-//W3C//DTD SVG 1.1//EN"
 "http://www.w3.org/Graphics/SVG/1.1/DTD/svg11.dtd">
<!-- Generated by graphviz version 2.30.1 (20180420.1509)
 -->
<!-- Title: dycore_typedefs::dycore_coupling_type Pages: 1 -->
<svg width="144pt" height="184pt"
 viewBox="0.00 0.00 144.00 184.00" xmlns="http://www.w3.org/2000/svg" xmlns:xlink="http://www.w3.org/1999/xlink">
<g id="graph0" class="graph" transform="scale(1 1) rotate(0) translate(4 180)">
<title>dycore_typedefs::dycore_coupling_type</title>
<polygon fill="white" stroke="white" points="-4,5 -4,-180 141,-180 141,5 -4,5"/>
<!-- Node1 -->
<g id="node1" class="node"><title>Node1</title>
<polygon fill="#bfbfbf" stroke="black" points="-0.5,-1 -0.5,-31 136.5,-31 136.5,-1 -0.5,-1"/>
<text text-anchor="start" x="7.5" y="-19" font-family="Helvetica,sans-Serif" font-size="10.00">dycore_typedefs::dycore</text>
<text text-anchor="middle" x="68" y="-8" font-family="Helvetica,sans-Serif" font-size="10.00">_coupling_type</text>
</g>
<!-- Node2 -->
<g id="node2" class="node"><title>Node2</title>
<polygon fill="white" stroke="#bfbfbf" points="14,-156.5 14,-175.5 122,-175.5 122,-156.5 14,-156.5"/>
<text text-anchor="middle" x="68" y="-163.5" font-family="Helvetica,sans-Serif" font-size="10.00">real(kind=r8_kind)</text>
</g>
<!-- Node2&#45;&gt;Node1 -->
<g id="edge1" class="edge"><title>Node2&#45;&gt;Node1</title>
<path fill="none" stroke="#9a32cd" stroke-dasharray="5,2" d="M68,-145.798C68,-115.728 68,-58.2001 68,-31.4012"/>
<polygon fill="#9a32cd" stroke="#9a32cd" points="64.5001,-146.185 68,-156.185 71.5001,-146.185 64.5001,-146.185"/>
<text text-anchor="middle" x="82.5" y="-130" font-family="Helvetica,sans-Serif" font-size="10.00"> slp</text>
<text text-anchor="middle" x="82.5" y="-119" font-family="Helvetica,sans-Serif" font-size="10.00">p_bot</text>
<text text-anchor="middle" x="82.5" y="-108" font-family="Helvetica,sans-Serif" font-size="10.00">p_srf</text>
<text text-anchor="middle" x="82.5" y="-97" font-family="Helvetica,sans-Serif" font-size="10.00">t_bot</text>
<text text-anchor="middle" x="82.5" y="-86" font-family="Helvetica,sans-Serif" font-size="10.00">tr_bot</text>
<text text-anchor="middle" x="82.5" y="-75" font-family="Helvetica,sans-Serif" font-size="10.00">u_bot</text>
<text text-anchor="middle" x="82.5" y="-64" font-family="Helvetica,sans-Serif" font-size="10.00">v_bot</text>
<text text-anchor="middle" x="82.5" y="-53" font-family="Helvetica,sans-Serif" font-size="10.00">z_bot</text>
</g>
</g>
</svg>
