<?xml version="1.0" encoding="UTF-8" standalone="no"?>
<!DOCTYPE svg PUBLIC "-//W3C//DTD SVG 1.1//EN"
 "http://www.w3.org/Graphics/SVG/1.1/DTD/svg11.dtd">
<!-- Generated by graphviz version 2.30.1 (20180420.1509)
 -->
<!-- Title: fv_regional_mod::fv_domain_sides Pages: 1 -->
<svg width="136pt" height="330pt"
 viewBox="0.00 0.00 136.00 330.00" xmlns="http://www.w3.org/2000/svg" xmlns:xlink="http://www.w3.org/1999/xlink">
<g id="graph0" class="graph" transform="scale(1 1) rotate(0) translate(4 326)">
<title>fv_regional_mod::fv_domain_sides</title>
<polygon fill="white" stroke="white" points="-4,5 -4,-326 133,-326 133,5 -4,5"/>
<!-- Node1 -->
<g id="node1" class="node"><title>Node1</title>
<polygon fill="#bfbfbf" stroke="black" points="7,-1 7,-31 121,-31 121,-1 7,-1"/>
<text text-anchor="start" x="15" y="-19" font-family="Helvetica,sans-Serif" font-size="10.00">fv_regional_mod::fv</text>
<text text-anchor="middle" x="64" y="-8" font-family="Helvetica,sans-Serif" font-size="10.00">_domain_sides</text>
</g>
<!-- Node2 -->
<g id="node2" class="node"><title>Node2</title>
<g id="a_node2"><a xlink:href="structfv__regional__mod_1_1fv__regional__bc__variables.html" target="_top" xlink:title="fv_regional_mod::fv\l_regional_bc_variables">
<polygon fill="white" stroke="black" points="0,-113 0,-143 128,-143 128,-113 0,-113"/>
<text text-anchor="start" x="8" y="-131" font-family="Helvetica,sans-Serif" font-size="10.00">fv_regional_mod::fv</text>
<text text-anchor="middle" x="64" y="-120" font-family="Helvetica,sans-Serif" font-size="10.00">_regional_bc_variables</text>
</a>
</g>
</g>
<!-- Node2&#45;&gt;Node1 -->
<g id="edge1" class="edge"><title>Node2&#45;&gt;Node1</title>
<path fill="none" stroke="#9a32cd" stroke-dasharray="5,2" d="M64,-102.399C64,-80.4205 64,-49.0003 64,-31.0363"/>
<polygon fill="#9a32cd" stroke="#9a32cd" points="60.5001,-102.619 64,-112.619 67.5001,-102.619 60.5001,-102.619"/>
<text text-anchor="middle" x="78" y="-86" font-family="Helvetica,sans-Serif" font-size="10.00"> west</text>
<text text-anchor="middle" x="78" y="-75" font-family="Helvetica,sans-Serif" font-size="10.00">south</text>
<text text-anchor="middle" x="78" y="-64" font-family="Helvetica,sans-Serif" font-size="10.00">east</text>
<text text-anchor="middle" x="78" y="-53" font-family="Helvetica,sans-Serif" font-size="10.00">north</text>
</g>
<!-- Node3 -->
<g id="node3" class="node"><title>Node3</title>
<polygon fill="white" stroke="#bfbfbf" points="46.5,-302.5 46.5,-321.5 81.5,-321.5 81.5,-302.5 46.5,-302.5"/>
<text text-anchor="middle" x="64" y="-309.5" font-family="Helvetica,sans-Serif" font-size="10.00">real</text>
</g>
<!-- Node3&#45;&gt;Node2 -->
<g id="edge2" class="edge"><title>Node3&#45;&gt;Node2</title>
<path fill="none" stroke="#9a32cd" stroke-dasharray="5,2" d="M64,-291.933C64,-255.242 64,-175.578 64,-143.156"/>
<polygon fill="#9a32cd" stroke="#9a32cd" points="60.5001,-292.222 64,-302.222 67.5001,-292.222 60.5001,-292.222"/>
<text text-anchor="middle" x="86" y="-275.5" font-family="Helvetica,sans-Serif" font-size="10.00"> q_bc</text>
<text text-anchor="middle" x="86" y="-264.5" font-family="Helvetica,sans-Serif" font-size="10.00">delp_bc</text>
<text text-anchor="middle" x="86" y="-253.5" font-family="Helvetica,sans-Serif" font-size="10.00">pt_bc</text>
<text text-anchor="middle" x="86" y="-242.5" font-family="Helvetica,sans-Serif" font-size="10.00">w_bc</text>
<text text-anchor="middle" x="86" y="-231.5" font-family="Helvetica,sans-Serif" font-size="10.00">divgd_bc</text>
<text text-anchor="middle" x="86" y="-220.5" font-family="Helvetica,sans-Serif" font-size="10.00">uc_bc</text>
<text text-anchor="middle" x="86" y="-209.5" font-family="Helvetica,sans-Serif" font-size="10.00">v_bc</text>
<text text-anchor="middle" x="86" y="-198.5" font-family="Helvetica,sans-Serif" font-size="10.00">delz_bc</text>
<text text-anchor="middle" x="86" y="-187.5" font-family="Helvetica,sans-Serif" font-size="10.00">vc_bc</text>
<text text-anchor="middle" x="86" y="-176.5" font-family="Helvetica,sans-Serif" font-size="10.00">u_bc</text>
<text text-anchor="middle" x="86" y="-165.5" font-family="Helvetica,sans-Serif" font-size="10.00">...</text>
</g>
</g>
</svg>
