<?xml version="1.0" encoding="UTF-8" standalone="no"?>
<!DOCTYPE svg PUBLIC "-//W3C//DTD SVG 1.1//EN"
 "http://www.w3.org/Graphics/SVG/1.1/DTD/svg11.dtd">
<!-- Generated by graphviz version 2.30.1 (20180420.1509)
 -->
<!-- Title: fv_iau_mod::iau_internal_data_type Pages: 1 -->
<svg width="144pt" height="162pt"
 viewBox="0.00 0.00 144.00 162.00" xmlns="http://www.w3.org/2000/svg" xmlns:xlink="http://www.w3.org/1999/xlink">
<g id="graph0" class="graph" transform="scale(1 1) rotate(0) translate(4 158)">
<title>fv_iau_mod::iau_internal_data_type</title>
<polygon fill="white" stroke="white" points="-4,5 -4,-158 141,-158 141,5 -4,5"/>
<!-- Node1 -->
<g id="node1" class="node"><title>Node1</title>
<polygon fill="#bfbfbf" stroke="black" points="-0.5,-1 -0.5,-31 136.5,-31 136.5,-1 -0.5,-1"/>
<text text-anchor="start" x="7.5" y="-19" font-family="Helvetica,sans-Serif" font-size="10.00">fv_iau_mod::iau_internal</text>
<text text-anchor="middle" x="68" y="-8" font-family="Helvetica,sans-Serif" font-size="10.00">_data_type</text>
</g>
<!-- Node2 -->
<g id="node2" class="node"><title>Node2</title>
<polygon fill="white" stroke="#bfbfbf" points="50.5,-134.5 50.5,-153.5 85.5,-153.5 85.5,-134.5 50.5,-134.5"/>
<text text-anchor="middle" x="68" y="-141.5" font-family="Helvetica,sans-Serif" font-size="10.00">real</text>
</g>
<!-- Node2&#45;&gt;Node1 -->
<g id="edge1" class="edge"><title>Node2&#45;&gt;Node1</title>
<path fill="none" stroke="#9a32cd" stroke-dasharray="5,2" d="M68,-124.182C68,-98.8042 68,-54.164 68,-31.3311"/>
<polygon fill="#9a32cd" stroke="#9a32cd" points="64.5001,-124.339 68,-134.34 71.5001,-124.34 64.5001,-124.339"/>
<text text-anchor="middle" x="92.5" y="-108" font-family="Helvetica,sans-Serif" font-size="10.00"> delz_inc</text>
<text text-anchor="middle" x="92.5" y="-97" font-family="Helvetica,sans-Serif" font-size="10.00">temp_inc</text>
<text text-anchor="middle" x="92.5" y="-86" font-family="Helvetica,sans-Serif" font-size="10.00">tracer_inc</text>
<text text-anchor="middle" x="92.5" y="-75" font-family="Helvetica,sans-Serif" font-size="10.00">delp_inc</text>
<text text-anchor="middle" x="92.5" y="-64" font-family="Helvetica,sans-Serif" font-size="10.00">va_inc</text>
<text text-anchor="middle" x="92.5" y="-53" font-family="Helvetica,sans-Serif" font-size="10.00">ua_inc</text>
</g>
</g>
</svg>
