<?xml version="1.0" encoding="UTF-8" standalone="no"?>
<!DOCTYPE svg PUBLIC "-//W3C//DTD SVG 1.1//EN"
 "http://www.w3.org/Graphics/SVG/1.1/DTD/svg11.dtd">
<!-- Generated by graphviz version 2.30.1 (20180420.1509)
 -->
<!-- Title: fv_arrays_mod::fv_grid_type Pages: 1 -->
<svg width="349pt" height="216pt"
 viewBox="0.00 0.00 349.00 216.00" xmlns="http://www.w3.org/2000/svg" xmlns:xlink="http://www.w3.org/1999/xlink">
<g id="graph0" class="graph" transform="scale(1 1) rotate(0) translate(4 212)">
<title>fv_arrays_mod::fv_grid_type</title>
<polygon fill="white" stroke="white" points="-4,5 -4,-212 346,-212 346,5 -4,5"/>
<!-- Node1 -->
<g id="node1" class="node"><title>Node1</title>
<polygon fill="#bfbfbf" stroke="black" points="91,-0.5 91,-19.5 247,-19.5 247,-0.5 91,-0.5"/>
<text text-anchor="middle" x="169" y="-7.5" font-family="Helvetica,sans-Serif" font-size="10.00">fv_arrays_mod::fv_grid_type</text>
</g>
<!-- Node2 -->
<g id="node2" class="node"><title>Node2</title>
<polygon fill="white" stroke="#bfbfbf" points="-0.5,-188.5 -0.5,-207.5 48.5,-207.5 48.5,-188.5 -0.5,-188.5"/>
<text text-anchor="middle" x="24" y="-195.5" font-family="Helvetica,sans-Serif" font-size="10.00">logical</text>
</g>
<!-- Node2&#45;&gt;Node1 -->
<g id="edge1" class="edge"><title>Node2&#45;&gt;Node1</title>
<path fill="none" stroke="#9a32cd" stroke-dasharray="5,2" d="M18.1305,-178.507C9.03898,-145.879 -4.08053,-77.7845 30,-38 38.5162,-28.0585 64.0032,-21.7157 90.867,-17.6981"/>
<polygon fill="#9a32cd" stroke="#9a32cd" points="14.887,-179.879 21.0944,-188.465 21.5961,-177.882 14.887,-179.879"/>
<text text-anchor="middle" x="73" y="-156.5" font-family="Helvetica,sans-Serif" font-size="10.00"> cubed_sphere</text>
<text text-anchor="middle" x="73" y="-145.5" font-family="Helvetica,sans-Serif" font-size="10.00">sw_corner</text>
<text text-anchor="middle" x="73" y="-134.5" font-family="Helvetica,sans-Serif" font-size="10.00">stretched_grid</text>
<text text-anchor="middle" x="73" y="-123.5" font-family="Helvetica,sans-Serif" font-size="10.00">nw_corner</text>
<text text-anchor="middle" x="73" y="-112.5" font-family="Helvetica,sans-Serif" font-size="10.00">have_south_pole</text>
<text text-anchor="middle" x="73" y="-101.5" font-family="Helvetica,sans-Serif" font-size="10.00">g_sum_initialized</text>
<text text-anchor="middle" x="73" y="-90.5" font-family="Helvetica,sans-Serif" font-size="10.00">regional</text>
<text text-anchor="middle" x="73" y="-79.5" font-family="Helvetica,sans-Serif" font-size="10.00">nested</text>
<text text-anchor="middle" x="73" y="-68.5" font-family="Helvetica,sans-Serif" font-size="10.00">have_north_pole</text>
<text text-anchor="middle" x="73" y="-57.5" font-family="Helvetica,sans-Serif" font-size="10.00">square_domain</text>
<text text-anchor="middle" x="73" y="-46.5" font-family="Helvetica,sans-Serif" font-size="10.00">...</text>
</g>
<!-- Node3 -->
<g id="node3" class="node"><title>Node3</title>
<polygon fill="white" stroke="#bfbfbf" points="107.5,-188.5 107.5,-207.5 158.5,-207.5 158.5,-188.5 107.5,-188.5"/>
<text text-anchor="middle" x="133" y="-195.5" font-family="Helvetica,sans-Serif" font-size="10.00">integer</text>
</g>
<!-- Node3&#45;&gt;Node1 -->
<g id="edge2" class="edge"><title>Node3&#45;&gt;Node1</title>
<path fill="none" stroke="#9a32cd" stroke-dasharray="5,2" d="M128.188,-178.67C121.116,-147.795 111.079,-84.2626 134,-38 137.816,-30.2982 144.992,-24.1675 151.858,-19.7074"/>
<polygon fill="#9a32cd" stroke="#9a32cd" points="124.811,-179.597 130.592,-188.475 131.61,-177.929 124.811,-179.597"/>
<text text-anchor="middle" x="158.5" y="-140" font-family="Helvetica,sans-Serif" font-size="10.00"> grid_type</text>
<text text-anchor="middle" x="158.5" y="-129" font-family="Helvetica,sans-Serif" font-size="10.00">iinta</text>
<text text-anchor="middle" x="158.5" y="-118" font-family="Helvetica,sans-Serif" font-size="10.00">ntiles_g</text>
<text text-anchor="middle" x="158.5" y="-107" font-family="Helvetica,sans-Serif" font-size="10.00">npx_g</text>
<text text-anchor="middle" x="158.5" y="-96" font-family="Helvetica,sans-Serif" font-size="10.00">iintb</text>
<text text-anchor="middle" x="158.5" y="-85" font-family="Helvetica,sans-Serif" font-size="10.00">jinta</text>
<text text-anchor="middle" x="158.5" y="-74" font-family="Helvetica,sans-Serif" font-size="10.00">npy_g</text>
<text text-anchor="middle" x="158.5" y="-63" font-family="Helvetica,sans-Serif" font-size="10.00">jintb</text>
</g>
<!-- Node4 -->
<g id="node4" class="node"><title>Node4</title>
<polygon fill="white" stroke="#bfbfbf" points="187.5,-188.5 187.5,-207.5 222.5,-207.5 222.5,-188.5 187.5,-188.5"/>
<text text-anchor="middle" x="205" y="-195.5" font-family="Helvetica,sans-Serif" font-size="10.00">real</text>
</g>
<!-- Node4&#45;&gt;Node1 -->
<g id="edge3" class="edge"><title>Node4&#45;&gt;Node1</title>
<path fill="none" stroke="#9a32cd" stroke-dasharray="5,2" d="M204.456,-178.155C203.128,-147.915 198.578,-86.98 183,-38 180.952,-31.5593 177.452,-24.8093 174.464,-19.6694"/>
<polygon fill="#9a32cd" stroke="#9a32cd" points="200.958,-178.288 204.823,-188.152 207.953,-178.031 200.958,-178.288"/>
<text text-anchor="middle" x="222.5" y="-156.5" font-family="Helvetica,sans-Serif" font-size="10.00"> sina_v</text>
<text text-anchor="middle" x="222.5" y="-145.5" font-family="Helvetica,sans-Serif" font-size="10.00">cosa_v</text>
<text text-anchor="middle" x="222.5" y="-134.5" font-family="Helvetica,sans-Serif" font-size="10.00">e2</text>
<text text-anchor="middle" x="222.5" y="-123.5" font-family="Helvetica,sans-Serif" font-size="10.00">area_c</text>
<text text-anchor="middle" x="222.5" y="-112.5" font-family="Helvetica,sans-Serif" font-size="10.00">agrid</text>
<text text-anchor="middle" x="222.5" y="-101.5" font-family="Helvetica,sans-Serif" font-size="10.00">z21</text>
<text text-anchor="middle" x="222.5" y="-90.5" font-family="Helvetica,sans-Serif" font-size="10.00">z22</text>
<text text-anchor="middle" x="222.5" y="-79.5" font-family="Helvetica,sans-Serif" font-size="10.00">z11</text>
<text text-anchor="middle" x="222.5" y="-68.5" font-family="Helvetica,sans-Serif" font-size="10.00">del6_u</text>
<text text-anchor="middle" x="222.5" y="-57.5" font-family="Helvetica,sans-Serif" font-size="10.00">dx</text>
<text text-anchor="middle" x="222.5" y="-46.5" font-family="Helvetica,sans-Serif" font-size="10.00">...</text>
</g>
<!-- Node5 -->
<g id="node5" class="node"><title>Node5</title>
<polygon fill="white" stroke="#bfbfbf" points="241,-188.5 241,-207.5 341,-207.5 341,-188.5 241,-188.5"/>
<text text-anchor="middle" x="291" y="-195.5" font-family="Helvetica,sans-Serif" font-size="10.00">real(kind=r_grid)</text>
</g>
<!-- Node5&#45;&gt;Node1 -->
<g id="edge4" class="edge"><title>Node5&#45;&gt;Node1</title>
<path fill="none" stroke="#9a32cd" stroke-dasharray="5,2" d="M290.694,-178.062C289.145,-145.243 281.298,-77.5317 244,-38 235.928,-29.444 224.947,-23.5931 213.88,-19.5942"/>
<polygon fill="#9a32cd" stroke="#9a32cd" points="287.209,-178.573 291.023,-188.457 294.205,-178.351 287.209,-178.573"/>
<text text-anchor="middle" x="315.5" y="-162" font-family="Helvetica,sans-Serif" font-size="10.00"> da_max</text>
<text text-anchor="middle" x="315.5" y="-151" font-family="Helvetica,sans-Serif" font-size="10.00">ec1</text>
<text text-anchor="middle" x="315.5" y="-140" font-family="Helvetica,sans-Serif" font-size="10.00">ex_n</text>
<text text-anchor="middle" x="315.5" y="-129" font-family="Helvetica,sans-Serif" font-size="10.00">edge_s</text>
<text text-anchor="middle" x="315.5" y="-118" font-family="Helvetica,sans-Serif" font-size="10.00">dya_64</text>
<text text-anchor="middle" x="315.5" y="-107" font-family="Helvetica,sans-Serif" font-size="10.00">ew</text>
<text text-anchor="middle" x="315.5" y="-96" font-family="Helvetica,sans-Serif" font-size="10.00">ec2</text>
<text text-anchor="start" x="290" y="-85" font-family="Helvetica,sans-Serif" font-size="10.00">edge_vect</text>
<text text-anchor="middle" x="315.5" y="-74" font-family="Helvetica,sans-Serif" font-size="10.00">_n</text>
<text text-anchor="middle" x="315.5" y="-63" font-family="Helvetica,sans-Serif" font-size="10.00">grid_64</text>
<text text-anchor="middle" x="315.5" y="-52" font-family="Helvetica,sans-Serif" font-size="10.00">edge_e</text>
<text text-anchor="middle" x="315.5" y="-41" font-family="Helvetica,sans-Serif" font-size="10.00">...</text>
</g>
</g>
</svg>
