<?xml version="1.0" encoding="UTF-8" standalone="no"?>
<!DOCTYPE svg PUBLIC "-//W3C//DTD SVG 1.1//EN"
 "http://www.w3.org/Graphics/SVG/1.1/DTD/svg11.dtd">
<!-- Generated by graphviz version 2.30.1 (20180420.1509)
 -->
<!-- Title: fv_arrays_mod::fv_diag_type Pages: 1 -->
<svg width="263pt" height="206pt"
 viewBox="0.00 0.00 263.00 206.00" xmlns="http://www.w3.org/2000/svg" xmlns:xlink="http://www.w3.org/1999/xlink">
<g id="graph0" class="graph" transform="scale(1 1) rotate(0) translate(4 202)">
<title>fv_arrays_mod::fv_diag_type</title>
<polygon fill="white" stroke="white" points="-4,5 -4,-202 260,-202 260,5 -4,5"/>
<!-- Node1 -->
<g id="node1" class="node"><title>Node1</title>
<polygon fill="#bfbfbf" stroke="black" points="20,-0.5 20,-19.5 178,-19.5 178,-0.5 20,-0.5"/>
<text text-anchor="middle" x="99" y="-7.5" font-family="Helvetica,sans-Serif" font-size="10.00">fv_arrays_mod::fv_diag_type</text>
</g>
<!-- Node2 -->
<g id="node2" class="node"><title>Node2</title>
<polygon fill="white" stroke="#bfbfbf" points="-0.5,-178.5 -0.5,-197.5 48.5,-197.5 48.5,-178.5 -0.5,-178.5"/>
<text text-anchor="middle" x="24" y="-185.5" font-family="Helvetica,sans-Serif" font-size="10.00">logical</text>
</g>
<!-- Node2&#45;&gt;Node1 -->
<g id="edge1" class="edge"><title>Node2&#45;&gt;Node1</title>
<path fill="none" stroke="#9a32cd" stroke-dasharray="5,2" d="M21.0866,-168.168C17.4474,-137.738 14.7554,-77.2152 43,-38 49.0556,-29.5922 58.4446,-23.6934 67.8152,-19.6042"/>
<polygon fill="#9a32cd" stroke="#9a32cd" points="17.6425,-168.816 22.4652,-178.249 24.578,-167.867 17.6425,-168.816"/>
<text text-anchor="middle" x="69" y="-96.5" font-family="Helvetica,sans-Serif" font-size="10.00"> initialized</text>
</g>
<!-- Node3 -->
<g id="node3" class="node"><title>Node3</title>
<polygon fill="white" stroke="#bfbfbf" points="81.5,-178.5 81.5,-197.5 116.5,-197.5 116.5,-178.5 81.5,-178.5"/>
<text text-anchor="middle" x="99" y="-185.5" font-family="Helvetica,sans-Serif" font-size="10.00">real</text>
</g>
<!-- Node3&#45;&gt;Node1 -->
<g id="edge2" class="edge"><title>Node3&#45;&gt;Node1</title>
<path fill="none" stroke="#9a32cd" stroke-dasharray="5,2" d="M99,-167.842C99,-129.973 99,-46.8574 99,-19.7429"/>
<polygon fill="#9a32cd" stroke="#9a32cd" points="95.5001,-168.03 99,-178.03 102.5,-168.03 95.5001,-168.03"/>
<text text-anchor="middle" x="135" y="-151.5" font-family="Helvetica,sans-Serif" font-size="10.00"> efx_sum_nest</text>
<text text-anchor="middle" x="135" y="-140.5" font-family="Helvetica,sans-Serif" font-size="10.00">efx</text>
<text text-anchor="middle" x="135" y="-129.5" font-family="Helvetica,sans-Serif" font-size="10.00">zxg</text>
<text text-anchor="middle" x="135" y="-118.5" font-family="Helvetica,sans-Serif" font-size="10.00">mtq</text>
<text text-anchor="middle" x="135" y="-107.5" font-family="Helvetica,sans-Serif" font-size="10.00">mtq_sum</text>
<text text-anchor="middle" x="135" y="-96.5" font-family="Helvetica,sans-Serif" font-size="10.00">liq_wat</text>
<text text-anchor="middle" x="135" y="-85.5" font-family="Helvetica,sans-Serif" font-size="10.00">graupel</text>
<text text-anchor="middle" x="135" y="-74.5" font-family="Helvetica,sans-Serif" font-size="10.00">zsurf</text>
<text text-anchor="middle" x="135" y="-63.5" font-family="Helvetica,sans-Serif" font-size="10.00">pt1</text>
<text text-anchor="middle" x="135" y="-52.5" font-family="Helvetica,sans-Serif" font-size="10.00">efx_nest</text>
<text text-anchor="middle" x="135" y="-41.5" font-family="Helvetica,sans-Serif" font-size="10.00">...</text>
</g>
<!-- Node4 -->
<g id="node4" class="node"><title>Node4</title>
<polygon fill="white" stroke="#bfbfbf" points="168.5,-178.5 168.5,-197.5 219.5,-197.5 219.5,-178.5 168.5,-178.5"/>
<text text-anchor="middle" x="194" y="-185.5" font-family="Helvetica,sans-Serif" font-size="10.00">integer</text>
</g>
<!-- Node4&#45;&gt;Node1 -->
<g id="edge3" class="edge"><title>Node4&#45;&gt;Node1</title>
<path fill="none" stroke="#9a32cd" stroke-dasharray="5,2" d="M196.826,-168.248C200.365,-137.451 202.676,-75.8131 172,-38 165.019,-29.3951 155.021,-23.5325 144.654,-19.5383"/>
<polygon fill="#9a32cd" stroke="#9a32cd" points="193.321,-168.053 195.475,-178.427 200.26,-168.974 193.321,-168.053"/>
<text text-anchor="middle" x="226.5" y="-151.5" font-family="Helvetica,sans-Serif" font-size="10.00"> id_u100m</text>
<text text-anchor="middle" x="226.5" y="-140.5" font-family="Helvetica,sans-Serif" font-size="10.00">id_dp10</text>
<text text-anchor="middle" x="226.5" y="-129.5" font-family="Helvetica,sans-Serif" font-size="10.00">id_rh50</text>
<text text-anchor="middle" x="226.5" y="-118.5" font-family="Helvetica,sans-Serif" font-size="10.00">id_q_plev</text>
<text text-anchor="middle" x="226.5" y="-107.5" font-family="Helvetica,sans-Serif" font-size="10.00">id_u</text>
<text text-anchor="middle" x="226.5" y="-96.5" font-family="Helvetica,sans-Serif" font-size="10.00">id_w2500m</text>
<text text-anchor="middle" x="226.5" y="-85.5" font-family="Helvetica,sans-Serif" font-size="10.00">id_sl12</text>
<text text-anchor="middle" x="226.5" y="-74.5" font-family="Helvetica,sans-Serif" font-size="10.00">id_acly</text>
<text text-anchor="middle" x="226.5" y="-63.5" font-family="Helvetica,sans-Serif" font-size="10.00">id_qn850</text>
<text text-anchor="middle" x="226.5" y="-52.5" font-family="Helvetica,sans-Serif" font-size="10.00">id_pfhy</text>
<text text-anchor="middle" x="226.5" y="-41.5" font-family="Helvetica,sans-Serif" font-size="10.00">...</text>
</g>
</g>
</svg>
