<?xml version="1.0" encoding="UTF-8" standalone="no"?>
<!DOCTYPE svg PUBLIC "-//W3C//DTD SVG 1.1//EN"
 "http://www.w3.org/Graphics/SVG/1.1/DTD/svg11.dtd">
<!-- Generated by graphviz version 2.30.1 (20180420.1509)
 -->
<!-- Title: fv_iau_mod::iau_external_data_type Pages: 1 -->
<svg width="161pt" height="162pt"
 viewBox="0.00 0.00 161.00 162.00" xmlns="http://www.w3.org/2000/svg" xmlns:xlink="http://www.w3.org/1999/xlink">
<g id="graph0" class="graph" transform="scale(1 1) rotate(0) translate(4 158)">
<title>fv_iau_mod::iau_external_data_type</title>
<polygon fill="white" stroke="white" points="-4,5 -4,-158 158,-158 158,5 -4,5"/>
<!-- Node1 -->
<g id="node1" class="node"><title>Node1</title>
<polygon fill="#bfbfbf" stroke="black" points="0,-1 0,-31 140,-31 140,-1 0,-1"/>
<text text-anchor="start" x="8" y="-19" font-family="Helvetica,sans-Serif" font-size="10.00">fv_iau_mod::iau_external</text>
<text text-anchor="middle" x="70" y="-8" font-family="Helvetica,sans-Serif" font-size="10.00">_data_type</text>
</g>
<!-- Node2 -->
<g id="node2" class="node"><title>Node2</title>
<polygon fill="white" stroke="#bfbfbf" points="6.5,-134.5 6.5,-153.5 55.5,-153.5 55.5,-134.5 6.5,-134.5"/>
<text text-anchor="middle" x="31" y="-141.5" font-family="Helvetica,sans-Serif" font-size="10.00">logical</text>
</g>
<!-- Node2&#45;&gt;Node1 -->
<g id="edge1" class="edge"><title>Node2&#45;&gt;Node1</title>
<path fill="none" stroke="#9a32cd" stroke-dasharray="5,2" d="M26.8744,-124.257C23.5406,-104.743 21.0072,-73.7664 32,-50 35.3746,-42.704 41.2315,-36.39 47.3506,-31.2946"/>
<polygon fill="#9a32cd" stroke="#9a32cd" points="23.4803,-125.137 28.8336,-134.28 30.3503,-123.795 23.4803,-125.137"/>
<text text-anchor="middle" x="59.5" y="-80.5" font-family="Helvetica,sans-Serif" font-size="10.00"> in_interval</text>
</g>
<!-- Node3 -->
<g id="node3" class="node"><title>Node3</title>
<polygon fill="white" stroke="#bfbfbf" points="91.5,-134.5 91.5,-153.5 126.5,-153.5 126.5,-134.5 91.5,-134.5"/>
<text text-anchor="middle" x="109" y="-141.5" font-family="Helvetica,sans-Serif" font-size="10.00">real</text>
</g>
<!-- Node3&#45;&gt;Node1 -->
<g id="edge2" class="edge"><title>Node3&#45;&gt;Node1</title>
<path fill="none" stroke="#9a32cd" stroke-dasharray="5,2" d="M105.958,-124.287C102.541,-105.222 96.2356,-74.9909 87,-50 84.6319,-43.5922 81.3103,-36.8331 78.2308,-31.1122"/>
<polygon fill="#9a32cd" stroke="#9a32cd" points="102.541,-125.065 107.675,-134.332 109.441,-123.886 102.541,-125.065"/>
<text text-anchor="middle" x="128.5" y="-108" font-family="Helvetica,sans-Serif" font-size="10.00"> delz_inc</text>
<text text-anchor="middle" x="128.5" y="-97" font-family="Helvetica,sans-Serif" font-size="10.00">temp_inc</text>
<text text-anchor="middle" x="128.5" y="-86" font-family="Helvetica,sans-Serif" font-size="10.00">tracer_inc</text>
<text text-anchor="middle" x="128.5" y="-75" font-family="Helvetica,sans-Serif" font-size="10.00">delp_inc</text>
<text text-anchor="middle" x="128.5" y="-64" font-family="Helvetica,sans-Serif" font-size="10.00">va_inc</text>
<text text-anchor="middle" x="128.5" y="-53" font-family="Helvetica,sans-Serif" font-size="10.00">ua_inc</text>
</g>
</g>
</svg>
