<?xml version="1.0" encoding="UTF-8" standalone="no"?>
<!DOCTYPE svg PUBLIC "-//W3C//DTD SVG 1.1//EN"
 "http://www.w3.org/Graphics/SVG/1.1/DTD/svg11.dtd">
<!-- Generated by graphviz version 2.30.1 (20180420.1509)
 -->
<!-- Title: fv_iau_mod::iau_state_type Pages: 1 -->
<svg width="285pt" height="262pt"
 viewBox="0.00 0.00 285.00 262.00" xmlns="http://www.w3.org/2000/svg" xmlns:xlink="http://www.w3.org/1999/xlink">
<g id="graph0" class="graph" transform="scale(1 1) rotate(0) translate(4 258)">
<title>fv_iau_mod::iau_state_type</title>
<polygon fill="white" stroke="white" points="-4,5 -4,-258 282,-258 282,5 -4,5"/>
<!-- Node1 -->
<g id="node1" class="node"><title>Node1</title>
<polygon fill="#bfbfbf" stroke="black" points="103,-0.5 103,-19.5 255,-19.5 255,-0.5 103,-0.5"/>
<text text-anchor="middle" x="179" y="-7.5" font-family="Helvetica,sans-Serif" font-size="10.00">fv_iau_mod::iau_state_type</text>
</g>
<!-- Node2 -->
<g id="node2" class="node"><title>Node2</title>
<g id="a_node2"><a xlink:href="structfv__iau__mod_1_1iau__internal__data__type.html" target="_top" xlink:title="fv_iau_mod::iau_internal\l_data_type">
<polygon fill="white" stroke="black" points="-0.5,-101 -0.5,-131 136.5,-131 136.5,-101 -0.5,-101"/>
<text text-anchor="start" x="7.5" y="-119" font-family="Helvetica,sans-Serif" font-size="10.00">fv_iau_mod::iau_internal</text>
<text text-anchor="middle" x="68" y="-108" font-family="Helvetica,sans-Serif" font-size="10.00">_data_type</text>
</a>
</g>
</g>
<!-- Node2&#45;&gt;Node1 -->
<g id="edge1" class="edge"><title>Node2&#45;&gt;Node1</title>
<path fill="none" stroke="#9a32cd" stroke-dasharray="5,2" d="M90.358,-94.0519C114.698,-71.247 152.457,-35.8692 169.764,-19.6533"/>
<polygon fill="#9a32cd" stroke="#9a32cd" points="87.8744,-91.5827 82.97,-100.974 92.6604,-96.6909 87.8744,-91.5827"/>
<text text-anchor="middle" x="162" y="-63" font-family="Helvetica,sans-Serif" font-size="10.00"> inc1</text>
<text text-anchor="middle" x="162" y="-52" font-family="Helvetica,sans-Serif" font-size="10.00">inc2</text>
</g>
<!-- Node3 -->
<g id="node3" class="node"><title>Node3</title>
<polygon fill="white" stroke="#bfbfbf" points="50.5,-234.5 50.5,-253.5 85.5,-253.5 85.5,-234.5 50.5,-234.5"/>
<text text-anchor="middle" x="68" y="-241.5" font-family="Helvetica,sans-Serif" font-size="10.00">real</text>
</g>
<!-- Node3&#45;&gt;Node2 -->
<g id="edge2" class="edge"><title>Node3&#45;&gt;Node2</title>
<path fill="none" stroke="#9a32cd" stroke-dasharray="5,2" d="M68,-224.182C68,-198.804 68,-154.164 68,-131.331"/>
<polygon fill="#9a32cd" stroke="#9a32cd" points="64.5001,-224.339 68,-234.34 71.5001,-224.34 64.5001,-224.339"/>
<text text-anchor="middle" x="92.5" y="-208" font-family="Helvetica,sans-Serif" font-size="10.00"> delz_inc</text>
<text text-anchor="middle" x="92.5" y="-197" font-family="Helvetica,sans-Serif" font-size="10.00">temp_inc</text>
<text text-anchor="middle" x="92.5" y="-186" font-family="Helvetica,sans-Serif" font-size="10.00">tracer_inc</text>
<text text-anchor="middle" x="92.5" y="-175" font-family="Helvetica,sans-Serif" font-size="10.00">delp_inc</text>
<text text-anchor="middle" x="92.5" y="-164" font-family="Helvetica,sans-Serif" font-size="10.00">va_inc</text>
<text text-anchor="middle" x="92.5" y="-153" font-family="Helvetica,sans-Serif" font-size="10.00">ua_inc</text>
</g>
<!-- Node4 -->
<g id="node4" class="node"><title>Node4</title>
<polygon fill="white" stroke="#bfbfbf" points="155,-106.5 155,-125.5 277,-125.5 277,-106.5 155,-106.5"/>
<text text-anchor="middle" x="216" y="-113.5" font-family="Helvetica,sans-Serif" font-size="10.00">real(kind=kind_phys)</text>
</g>
<!-- Node4&#45;&gt;Node1 -->
<g id="edge3" class="edge"><title>Node4&#45;&gt;Node1</title>
<path fill="none" stroke="#9a32cd" stroke-dasharray="5,2" d="M209.614,-97.0508C201.576,-74.4581 188.094,-36.5615 182.07,-19.6284"/>
<polygon fill="#9a32cd" stroke="#9a32cd" points="206.323,-98.2409 212.972,-106.489 212.918,-95.8945 206.323,-98.2409"/>
<text text-anchor="middle" x="237.5" y="-74" font-family="Helvetica,sans-Serif" font-size="10.00"> wt_normfact</text>
<text text-anchor="middle" x="237.5" y="-63" font-family="Helvetica,sans-Serif" font-size="10.00">hr1</text>
<text text-anchor="middle" x="237.5" y="-52" font-family="Helvetica,sans-Serif" font-size="10.00">hr2</text>
<text text-anchor="middle" x="237.5" y="-41" font-family="Helvetica,sans-Serif" font-size="10.00">wt</text>
</g>
</g>
</svg>
