<?xml version="1.0" encoding="UTF-8" standalone="no"?>
<!DOCTYPE svg PUBLIC "-//W3C//DTD SVG 1.1//EN"
 "http://www.w3.org/Graphics/SVG/1.1/DTD/svg11.dtd">
<!-- Generated by graphviz version 2.30.1 (20180420.1509)
 -->
<!-- Title: fv_arrays_mod::fv_nest_type Pages: 1 -->
<svg width="568pt" height="607pt"
 viewBox="0.00 0.00 568.00 607.00" xmlns="http://www.w3.org/2000/svg" xmlns:xlink="http://www.w3.org/1999/xlink">
<g id="graph0" class="graph" transform="scale(1 1) rotate(0) translate(4 603)">
<title>fv_arrays_mod::fv_nest_type</title>
<polygon fill="white" stroke="white" points="-4,5 -4,-603 565,-603 565,5 -4,5"/>
<!-- Node1 -->
<g id="node1" class="node"><title>Node1</title>
<polygon fill="#bfbfbf" stroke="black" points="402,-247.5 402,-266.5 560,-266.5 560,-247.5 402,-247.5"/>
<text text-anchor="middle" x="481" y="-254.5" font-family="Helvetica,sans-Serif" font-size="10.00">fv_arrays_mod::fv_nest_type</text>
</g>
<!-- Node2 -->
<g id="node2" class="node"><title>Node2</title>
<polygon fill="white" stroke="#bfbfbf" points="1.5,-431.5 1.5,-450.5 50.5,-450.5 50.5,-431.5 1.5,-431.5"/>
<text text-anchor="middle" x="26" y="-438.5" font-family="Helvetica,sans-Serif" font-size="10.00">logical</text>
</g>
<!-- Node2&#45;&gt;Node1 -->
<g id="edge1" class="edge"><title>Node2&#45;&gt;Node1</title>
<path fill="none" stroke="#9a32cd" stroke-dasharray="5,2" d="M56.9474,-454.46C122.288,-481.607 280.099,-534.877 384,-468 457.435,-420.733 475.353,-301.99 479.108,-266.908"/>
<polygon fill="#9a32cd" stroke="#9a32cd" points="58.2081,-451.193 47.6356,-450.506 55.4719,-457.636 58.2081,-451.193"/>
<text text-anchor="middle" x="210" y="-591" font-family="Helvetica,sans-Serif" font-size="10.00"> child_proc</text>
<text text-anchor="middle" x="210" y="-580" font-family="Helvetica,sans-Serif" font-size="10.00">parent_proc</text>
<text text-anchor="middle" x="210" y="-569" font-family="Helvetica,sans-Serif" font-size="10.00">nested</text>
<text text-anchor="middle" x="210" y="-558" font-family="Helvetica,sans-Serif" font-size="10.00">do_flux_bcs</text>
<text text-anchor="middle" x="210" y="-547" font-family="Helvetica,sans-Serif" font-size="10.00">twowaynest</text>
<text text-anchor="middle" x="210" y="-536" font-family="Helvetica,sans-Serif" font-size="10.00">parent_of_twoway</text>
<text text-anchor="middle" x="210" y="-525" font-family="Helvetica,sans-Serif" font-size="10.00">first_step</text>
<text text-anchor="middle" x="210" y="-514" font-family="Helvetica,sans-Serif" font-size="10.00">do_2way_flux_bcs</text>
<text text-anchor="middle" x="210" y="-503" font-family="Helvetica,sans-Serif" font-size="10.00">child_grids</text>
</g>
<!-- Node5 -->
<g id="node5" class="node"><title>Node5</title>
<g id="a_node5"><a xlink:href="structfv__arrays__mod_1_1fv__nest__bc__type__3d.html" target="_top" xlink:title="fv_arrays_mod::fv_nest\l_bc_type_3d">
<polygon fill="white" stroke="black" points="144.5,-342 144.5,-372 275.5,-372 275.5,-342 144.5,-342"/>
<text text-anchor="start" x="152.5" y="-360" font-family="Helvetica,sans-Serif" font-size="10.00">fv_arrays_mod::fv_nest</text>
<text text-anchor="middle" x="210" y="-349" font-family="Helvetica,sans-Serif" font-size="10.00">_bc_type_3d</text>
</a>
</g>
</g>
<!-- Node2&#45;&gt;Node5 -->
<g id="edge5" class="edge"><title>Node2&#45;&gt;Node5</title>
<path fill="none" stroke="#9a32cd" stroke-dasharray="5,2" d="M51.9247,-426.362C74.0777,-413.691 107.574,-395.353 138,-382 146.018,-378.481 154.702,-375.092 163.154,-372.006"/>
<polygon fill="#9a32cd" stroke="#9a32cd" points="50.0799,-423.386 43.167,-431.415 53.578,-429.449 50.0799,-423.386"/>
<text text-anchor="middle" x="95" y="-429" font-family="Helvetica,sans-Serif" font-size="10.00"> allocated</text>
<text text-anchor="middle" x="95" y="-418" font-family="Helvetica,sans-Serif" font-size="10.00">initialized</text>
</g>
<!-- Node3 -->
<g id="node3" class="node"><title>Node3</title>
<polygon fill="white" stroke="#bfbfbf" points="147.5,-429.5 147.5,-448.5 272.5,-448.5 272.5,-429.5 147.5,-429.5"/>
<text text-anchor="middle" x="210" y="-436.5" font-family="Helvetica,sans-Serif" font-size="10.00">type(restart_file_type)</text>
</g>
<!-- Node3&#45;&gt;Node1 -->
<g id="edge2" class="edge"><title>Node3&#45;&gt;Node1</title>
<path fill="none" stroke="#9a32cd" stroke-dasharray="5,2" d="M282.856,-443.699C316.016,-442.567 354.478,-436.276 384,-417 441.232,-379.631 469.337,-295.169 477.449,-266.629"/>
<polygon fill="#9a32cd" stroke="#9a32cd" points="282.682,-440.201 272.751,-443.893 282.817,-447.2 282.682,-440.201"/>
<text text-anchor="middle" x="342" y="-456" font-family="Helvetica,sans-Serif" font-size="10.00"> bcfile_sw</text>
<text text-anchor="middle" x="342" y="-445" font-family="Helvetica,sans-Serif" font-size="10.00">bcfile_ne</text>
</g>
<!-- Node4 -->
<g id="node4" class="node"><title>Node4</title>
<polygon fill="white" stroke="#bfbfbf" points="142,-391.5 142,-410.5 278,-410.5 278,-391.5 142,-391.5"/>
<text text-anchor="middle" x="210" y="-398.5" font-family="Helvetica,sans-Serif" font-size="10.00">type(nest_domain_type)</text>
</g>
<!-- Node4&#45;&gt;Node1 -->
<g id="edge3" class="edge"><title>Node4&#45;&gt;Node1</title>
<path fill="none" stroke="#9a32cd" stroke-dasharray="5,2" d="M288.444,-403.641C319.833,-401.634 355.354,-395.223 384,-379 431.842,-351.906 464.397,-290.522 475.648,-266.702"/>
<polygon fill="#9a32cd" stroke="#9a32cd" points="288.224,-400.148 278.413,-404.145 288.576,-407.139 288.224,-400.148"/>
<text text-anchor="middle" x="342" y="-405" font-family="Helvetica,sans-Serif" font-size="10.00"> nest_domain</text>
</g>
<!-- Node5&#45;&gt;Node1 -->
<g id="edge4" class="edge"><title>Node5&#45;&gt;Node1</title>
<path fill="none" stroke="#9a32cd" stroke-dasharray="5,2" d="M271.634,-336.374C275.446,-333.621 278.963,-330.511 282,-327 302.733,-303.029 274.974,-277.446 300,-258 343.554,-224.157 412.613,-236.505 451.305,-247.438"/>
<polygon fill="#9a32cd" stroke="#9a32cd" points="269.509,-333.576 262.891,-341.85 273.224,-339.509 269.509,-333.576"/>
<text text-anchor="middle" x="342" y="-371" font-family="Helvetica,sans-Serif" font-size="10.00"> q_bc</text>
<text text-anchor="middle" x="342" y="-360" font-family="Helvetica,sans-Serif" font-size="10.00">divg_bc</text>
<text text-anchor="middle" x="342" y="-349" font-family="Helvetica,sans-Serif" font-size="10.00">delp_bc</text>
<text text-anchor="middle" x="342" y="-338" font-family="Helvetica,sans-Serif" font-size="10.00">pt_bc</text>
<text text-anchor="middle" x="342" y="-327" font-family="Helvetica,sans-Serif" font-size="10.00">w_bc</text>
<text text-anchor="middle" x="342" y="-316" font-family="Helvetica,sans-Serif" font-size="10.00">uc_bc</text>
<text text-anchor="middle" x="342" y="-305" font-family="Helvetica,sans-Serif" font-size="10.00">v_bc</text>
<text text-anchor="middle" x="342" y="-294" font-family="Helvetica,sans-Serif" font-size="10.00">delz_bc</text>
<text text-anchor="middle" x="342" y="-283" font-family="Helvetica,sans-Serif" font-size="10.00">vc_bc</text>
<text text-anchor="middle" x="342" y="-272" font-family="Helvetica,sans-Serif" font-size="10.00">u_bc</text>
<text text-anchor="middle" x="342" y="-261" font-family="Helvetica,sans-Serif" font-size="10.00">...</text>
</g>
<!-- Node6 -->
<g id="node6" class="node"><title>Node6</title>
<polygon fill="white" stroke="#bfbfbf" points="0.5,-249.5 0.5,-268.5 51.5,-268.5 51.5,-249.5 0.5,-249.5"/>
<text text-anchor="middle" x="26" y="-256.5" font-family="Helvetica,sans-Serif" font-size="10.00">integer</text>
</g>
<!-- Node6&#45;&gt;Node5 -->
<g id="edge6" class="edge"><title>Node6&#45;&gt;Node5</title>
<path fill="none" stroke="#9a32cd" stroke-dasharray="5,2" d="M49.5926,-274.228C71.6229,-288.741 106.342,-310.731 138,-327 148.355,-332.321 159.871,-337.491 170.565,-341.997"/>
<polygon fill="#9a32cd" stroke="#9a32cd" points="51.2405,-271.121 40.9738,-268.505 47.3681,-276.953 51.2405,-271.121"/>
<text text-anchor="middle" x="95" y="-331" font-family="Helvetica,sans-Serif" font-size="10.00"> istag</text>
<text text-anchor="middle" x="95" y="-320" font-family="Helvetica,sans-Serif" font-size="10.00">jstag</text>
</g>
<!-- Node6&#45;&gt;Node1 -->
<g id="edge10" class="edge"><title>Node6&#45;&gt;Node1</title>
<path fill="none" stroke="#9a32cd" stroke-dasharray="5,2" d="M45.37,-243.011C66.1922,-226.044 101.948,-200.292 138,-190 259.304,-155.37 409.875,-221.592 461.575,-247.359"/>
<polygon fill="#9a32cd" stroke="#9a32cd" points="43.0814,-240.362 37.6521,-249.46 47.57,-245.733 43.0814,-240.362"/>
<text text-anchor="middle" x="210" y="-325" font-family="Helvetica,sans-Serif" font-size="10.00"> ind_h</text>
<text text-anchor="middle" x="210" y="-314" font-family="Helvetica,sans-Serif" font-size="10.00">ieu</text>
<text text-anchor="middle" x="210" y="-303" font-family="Helvetica,sans-Serif" font-size="10.00">jeu</text>
<text text-anchor="start" x="182.5" y="-292" font-family="Helvetica,sans-Serif" font-size="10.00">tracer_nest</text>
<text text-anchor="middle" x="210" y="-281" font-family="Helvetica,sans-Serif" font-size="10.00">_timestep</text>
<text text-anchor="middle" x="210" y="-270" font-family="Helvetica,sans-Serif" font-size="10.00">nestbctype</text>
<text text-anchor="middle" x="210" y="-259" font-family="Helvetica,sans-Serif" font-size="10.00">parent_tile</text>
<text text-anchor="middle" x="210" y="-248" font-family="Helvetica,sans-Serif" font-size="10.00">isu</text>
<text text-anchor="middle" x="210" y="-237" font-family="Helvetica,sans-Serif" font-size="10.00">jsu</text>
<text text-anchor="start" x="182.5" y="-226" font-family="Helvetica,sans-Serif" font-size="10.00">refinement</text>
<text text-anchor="middle" x="210" y="-215" font-family="Helvetica,sans-Serif" font-size="10.00">_of_global</text>
<text text-anchor="middle" x="210" y="-204" font-family="Helvetica,sans-Serif" font-size="10.00">nestupdate</text>
<text text-anchor="middle" x="210" y="-193" font-family="Helvetica,sans-Serif" font-size="10.00">...</text>
</g>
<!-- Node7 -->
<g id="node7" class="node"><title>Node7</title>
<polygon fill="white" stroke="#bfbfbf" points="8.5,-74.5 8.5,-93.5 43.5,-93.5 43.5,-74.5 8.5,-74.5"/>
<text text-anchor="middle" x="26" y="-81.5" font-family="Helvetica,sans-Serif" font-size="10.00">real</text>
</g>
<!-- Node7&#45;&gt;Node5 -->
<g id="edge7" class="edge"><title>Node7&#45;&gt;Node5</title>
<path fill="none" stroke="#9a32cd" stroke-dasharray="5,2" d="M45.8092,-100.525C67.603,-120.866 102.725,-157.588 120,-197 143.416,-250.422 102.501,-280.717 138,-327 142.724,-333.158 148.951,-338.066 155.759,-341.974"/>
<polygon fill="#9a32cd" stroke="#9a32cd" points="47.9207,-97.7133 38.1741,-93.5592 43.2029,-102.885 47.9207,-97.7133"/>
<text text-anchor="middle" x="95" y="-277" font-family="Helvetica,sans-Serif" font-size="10.00"> west_t0</text>
<text text-anchor="middle" x="95" y="-266" font-family="Helvetica,sans-Serif" font-size="10.00">east_t0</text>
<text text-anchor="middle" x="95" y="-255" font-family="Helvetica,sans-Serif" font-size="10.00">west_t1</text>
<text text-anchor="middle" x="95" y="-244" font-family="Helvetica,sans-Serif" font-size="10.00">north_t0</text>
<text text-anchor="middle" x="95" y="-233" font-family="Helvetica,sans-Serif" font-size="10.00">east_t1</text>
<text text-anchor="middle" x="95" y="-222" font-family="Helvetica,sans-Serif" font-size="10.00">north_t1</text>
<text text-anchor="middle" x="95" y="-211" font-family="Helvetica,sans-Serif" font-size="10.00">south_t0</text>
<text text-anchor="middle" x="95" y="-200" font-family="Helvetica,sans-Serif" font-size="10.00">south_t1</text>
</g>
<!-- Node7&#45;&gt;Node1 -->
<g id="edge9" class="edge"><title>Node7&#45;&gt;Node1</title>
<path fill="none" stroke="#9a32cd" stroke-dasharray="5,2" d="M53.7793,-84.3549C101.255,-85.7684 202.649,-92.345 282,-122 362.672,-152.149 442.34,-221.808 469.882,-247.369"/>
<polygon fill="#9a32cd" stroke="#9a32cd" points="53.7845,-80.8541 43.7024,-84.1101 53.6144,-87.852 53.7845,-80.8541"/>
<text text-anchor="middle" x="210" y="-169" font-family="Helvetica,sans-Serif" font-size="10.00"> wt_b</text>
<text text-anchor="middle" x="210" y="-158" font-family="Helvetica,sans-Serif" font-size="10.00">wt_u</text>
<text text-anchor="middle" x="210" y="-147" font-family="Helvetica,sans-Serif" font-size="10.00">wt_v</text>
<text text-anchor="middle" x="210" y="-136" font-family="Helvetica,sans-Serif" font-size="10.00">wt_h</text>
<text text-anchor="middle" x="210" y="-125" font-family="Helvetica,sans-Serif" font-size="10.00">s_weight</text>
</g>
<!-- Node8 -->
<g id="node8" class="node"><title>Node8</title>
<polygon fill="white" stroke="#bfbfbf" points="138,-0 138,-30 282,-30 282,-0 138,-0"/>
<text text-anchor="start" x="146" y="-18" font-family="Helvetica,sans-Serif" font-size="10.00">type(nest_domain_type)</text>
<text text-anchor="middle" x="210" y="-7" font-family="Helvetica,sans-Serif" font-size="10.00">, dimension(:), allocatable</text>
</g>
<!-- Node8&#45;&gt;Node1 -->
<g id="edge8" class="edge"><title>Node8&#45;&gt;Node1</title>
<path fill="none" stroke="#9a32cd" stroke-dasharray="5,2" d="M292.401,-11.7183C323.747,-14.2947 358.18,-22.2556 384,-42 454.465,-95.8835 474.448,-212.9 478.901,-247.302"/>
<polygon fill="#9a32cd" stroke="#9a32cd" points="292.554,-8.2209 282.347,-11.0629 292.099,-15.2061 292.554,-8.2209"/>
<text text-anchor="middle" x="342" y="-45" font-family="Helvetica,sans-Serif" font-size="10.00"> nest_domain_all</text>
</g>
</g>
</svg>
