<?xml version="1.0" encoding="UTF-8" standalone="no"?>
<!DOCTYPE svg PUBLIC "-//W3C//DTD SVG 1.1//EN"
 "http://www.w3.org/Graphics/SVG/1.1/DTD/svg11.dtd">
<!-- Generated by graphviz version 2.30.1 (20180420.1509)
 -->
<!-- Title: fv_arrays_mod::fv_flags_type Pages: 1 -->
<svg width="422pt" height="694pt"
 viewBox="0.00 0.00 422.00 693.66" xmlns="http://www.w3.org/2000/svg" xmlns:xlink="http://www.w3.org/1999/xlink">
<g id="graph0" class="graph" transform="scale(1 1) rotate(0) translate(4 689.657)">
<title>fv_arrays_mod::fv_flags_type</title>
<polygon fill="white" stroke="white" points="-4,5 -4,-689.657 419,-689.657 419,5 -4,5"/>
<!-- Node1 -->
<g id="node1" class="node"><title>Node1</title>
<polygon fill="#bfbfbf" stroke="black" points="252.5,-440.157 252.5,-459.157 413.5,-459.157 413.5,-440.157 252.5,-440.157"/>
<text text-anchor="middle" x="333" y="-447.157" font-family="Helvetica,sans-Serif" font-size="10.00">fv_arrays_mod::fv_flags_type</text>
</g>
<!-- Node2 -->
<g id="node2" class="node"><title>Node2</title>
<polygon fill="white" stroke="#bfbfbf" points="31.5,-559.157 31.5,-578.157 80.5,-578.157 80.5,-559.157 31.5,-559.157"/>
<text text-anchor="middle" x="56" y="-566.157" font-family="Helvetica,sans-Serif" font-size="10.00">logical</text>
</g>
<!-- Node2&#45;&gt;Node1 -->
<g id="edge1" class="edge"><title>Node2&#45;&gt;Node1</title>
<path fill="none" stroke="#9a32cd" stroke-dasharray="5,2" d="M90.8229,-568.214C127.75,-566.516 187.78,-560.129 234,-537.657 273.896,-518.26 309.604,-477.725 324.56,-459.229"/>
<polygon fill="#9a32cd" stroke="#9a32cd" points="90.4627,-564.725 80.5984,-568.591 90.7206,-571.721 90.4627,-564.725"/>
<text text-anchor="middle" x="182" y="-677.657" font-family="Helvetica,sans-Serif" font-size="10.00"> phys_hydrostatic</text>
<text text-anchor="middle" x="182" y="-666.657" font-family="Helvetica,sans-Serif" font-size="10.00">remap_t</text>
<text text-anchor="middle" x="182" y="-655.657" font-family="Helvetica,sans-Serif" font-size="10.00">srf_init</text>
<text text-anchor="middle" x="182" y="-644.657" font-family="Helvetica,sans-Serif" font-size="10.00">range_warn</text>
<text text-anchor="middle" x="182" y="-633.657" font-family="Helvetica,sans-Serif" font-size="10.00">ncep_ic</text>
<text text-anchor="middle" x="182" y="-622.657" font-family="Helvetica,sans-Serif" font-size="10.00">reproduce_sum</text>
<text text-anchor="middle" x="182" y="-611.657" font-family="Helvetica,sans-Serif" font-size="10.00">reed_cond_only</text>
<text text-anchor="middle" x="182" y="-600.657" font-family="Helvetica,sans-Serif" font-size="10.00">nudge_dz</text>
<text text-anchor="middle" x="182" y="-589.657" font-family="Helvetica,sans-Serif" font-size="10.00">use_logp</text>
<text text-anchor="middle" x="182" y="-578.657" font-family="Helvetica,sans-Serif" font-size="10.00">external_ic</text>
<text text-anchor="middle" x="182" y="-567.657" font-family="Helvetica,sans-Serif" font-size="10.00">...</text>
</g>
<!-- Node3 -->
<g id="node3" class="node"><title>Node3</title>
<polygon fill="white" stroke="#bfbfbf" points="0.5,-521.157 0.5,-540.157 111.5,-540.157 111.5,-521.157 0.5,-521.157"/>
<text text-anchor="middle" x="56" y="-528.157" font-family="Helvetica,sans-Serif" font-size="10.00">character(len=120)</text>
</g>
<!-- Node3&#45;&gt;Node1 -->
<g id="edge2" class="edge"><title>Node3&#45;&gt;Node1</title>
<path fill="none" stroke="#9a32cd" stroke-dasharray="5,2" d="M121.802,-524.587C155.828,-520.18 197.851,-512.792 234,-500.657 265.093,-490.22 298.373,-470.971 317.046,-459.339"/>
<polygon fill="#9a32cd" stroke="#9a32cd" points="121.008,-521.158 111.514,-525.861 121.868,-528.105 121.008,-521.158"/>
<text text-anchor="middle" x="182" y="-525.657" font-family="Helvetica,sans-Serif" font-size="10.00"> grid_file</text>
</g>
<!-- Node4 -->
<g id="node4" class="node"><title>Node4</title>
<polygon fill="white" stroke="#bfbfbf" points="3.5,-483.157 3.5,-502.157 108.5,-502.157 108.5,-483.157 3.5,-483.157"/>
<text text-anchor="middle" x="56" y="-490.157" font-family="Helvetica,sans-Serif" font-size="10.00">character(len=80)</text>
</g>
<!-- Node4&#45;&gt;Node1 -->
<g id="edge3" class="edge"><title>Node4&#45;&gt;Node1</title>
<path fill="none" stroke="#9a32cd" stroke-dasharray="5,2" d="M119.01,-487.458C153.088,-484.147 196.03,-479.234 234,-472.657 254.664,-469.078 277.488,-463.8 295.908,-459.203"/>
<polygon fill="#9a32cd" stroke="#9a32cd" points="118.358,-484.004 108.734,-488.434 119.02,-490.972 118.358,-484.004"/>
<text text-anchor="middle" x="182" y="-488.657" font-family="Helvetica,sans-Serif" font-size="10.00"> grid_name</text>
</g>
<!-- Node5 -->
<g id="node5" class="node"><title>Node5</title>
<polygon fill="white" stroke="#bfbfbf" points="0.5,-440.157 0.5,-459.157 111.5,-459.157 111.5,-440.157 0.5,-440.157"/>
<text text-anchor="middle" x="56" y="-447.157" font-family="Helvetica,sans-Serif" font-size="10.00">character(len=128)</text>
</g>
<!-- Node5&#45;&gt;Node1 -->
<g id="edge4" class="edge"><title>Node5&#45;&gt;Node1</title>
<path fill="none" stroke="#9a32cd" stroke-dasharray="5,2" d="M121.858,-449.657C160.929,-449.657 210.979,-449.657 252.432,-449.657"/>
<polygon fill="#9a32cd" stroke="#9a32cd" points="121.66,-446.157 111.66,-449.657 121.66,-453.157 121.66,-446.157"/>
<text text-anchor="middle" x="182" y="-463.657" font-family="Helvetica,sans-Serif" font-size="10.00"> res_latlon_dynamics</text>
<text text-anchor="middle" x="182" y="-452.657" font-family="Helvetica,sans-Serif" font-size="10.00">res_latlon_tracers</text>
</g>
<!-- Node6 -->
<g id="node6" class="node"><title>Node6</title>
<polygon fill="white" stroke="#bfbfbf" points="38.5,-296.157 38.5,-315.157 73.5,-315.157 73.5,-296.157 38.5,-296.157"/>
<text text-anchor="middle" x="56" y="-303.157" font-family="Helvetica,sans-Serif" font-size="10.00">real</text>
</g>
<!-- Node6&#45;&gt;Node1 -->
<g id="edge5" class="edge"><title>Node6&#45;&gt;Node1</title>
<path fill="none" stroke="#9a32cd" stroke-dasharray="5,2" d="M83.9515,-302.349C120.412,-299.19 186.361,-298.234 234,-324.657 283.435,-352.077 316.539,-415.738 327.767,-440.015"/>
<polygon fill="#9a32cd" stroke="#9a32cd" points="83.2417,-298.902 73.636,-303.372 83.9326,-305.868 83.2417,-298.902"/>
<text text-anchor="middle" x="182" y="-437.657" font-family="Helvetica,sans-Serif" font-size="10.00"> tau</text>
<text text-anchor="middle" x="182" y="-426.657" font-family="Helvetica,sans-Serif" font-size="10.00">d_ext</text>
<text text-anchor="middle" x="182" y="-415.657" font-family="Helvetica,sans-Serif" font-size="10.00">d_con</text>
<text text-anchor="middle" x="182" y="-404.657" font-family="Helvetica,sans-Serif" font-size="10.00">beta</text>
<text text-anchor="middle" x="182" y="-393.657" font-family="Helvetica,sans-Serif" font-size="10.00">dddmp</text>
<text text-anchor="middle" x="182" y="-382.657" font-family="Helvetica,sans-Serif" font-size="10.00">tau_h2o</text>
<text text-anchor="middle" x="182" y="-371.657" font-family="Helvetica,sans-Serif" font-size="10.00">p_fac</text>
<text text-anchor="middle" x="182" y="-360.657" font-family="Helvetica,sans-Serif" font-size="10.00">w_max</text>
<text text-anchor="middle" x="182" y="-349.657" font-family="Helvetica,sans-Serif" font-size="10.00">consv_te</text>
<text text-anchor="middle" x="182" y="-338.657" font-family="Helvetica,sans-Serif" font-size="10.00">ke_bg</text>
<text text-anchor="middle" x="182" y="-327.657" font-family="Helvetica,sans-Serif" font-size="10.00">...</text>
</g>
<!-- Node7 -->
<g id="node7" class="node"><title>Node7</title>
<polygon fill="white" stroke="#bfbfbf" points="30.5,-152.157 30.5,-171.157 81.5,-171.157 81.5,-152.157 30.5,-152.157"/>
<text text-anchor="middle" x="56" y="-159.157" font-family="Helvetica,sans-Serif" font-size="10.00">integer</text>
</g>
<!-- Node7&#45;&gt;Node1 -->
<g id="edge6" class="edge"><title>Node7&#45;&gt;Node1</title>
<path fill="none" stroke="#9a32cd" stroke-dasharray="5,2" d="M91.9275,-154.142C130.733,-147.922 193.273,-144.496 234,-175.657 323.073,-243.81 331.357,-399.812 331.987,-440.048"/>
<polygon fill="#9a32cd" stroke="#9a32cd" points="90.895,-150.77 81.6498,-155.945 92.104,-157.665 90.895,-150.77"/>
<text text-anchor="middle" x="182" y="-288.657" font-family="Helvetica,sans-Serif" font-size="10.00"> npy</text>
<text text-anchor="middle" x="182" y="-277.657" font-family="Helvetica,sans-Serif" font-size="10.00">m_split</text>
<text text-anchor="middle" x="182" y="-266.657" font-family="Helvetica,sans-Serif" font-size="10.00">kord_tm</text>
<text text-anchor="middle" x="182" y="-255.657" font-family="Helvetica,sans-Serif" font-size="10.00">grid_number</text>
<text text-anchor="middle" x="182" y="-244.657" font-family="Helvetica,sans-Serif" font-size="10.00">dnats</text>
<text text-anchor="middle" x="182" y="-233.657" font-family="Helvetica,sans-Serif" font-size="10.00">npz</text>
<text text-anchor="middle" x="182" y="-222.657" font-family="Helvetica,sans-Serif" font-size="10.00">n_split</text>
<text text-anchor="middle" x="182" y="-211.657" font-family="Helvetica,sans-Serif" font-size="10.00">kord_wz</text>
<text text-anchor="middle" x="182" y="-200.657" font-family="Helvetica,sans-Serif" font-size="10.00">kord_mt</text>
<text text-anchor="middle" x="182" y="-189.657" font-family="Helvetica,sans-Serif" font-size="10.00">ndims</text>
<text text-anchor="middle" x="182" y="-178.657" font-family="Helvetica,sans-Serif" font-size="10.00">...</text>
</g>
<!-- Node8 -->
<g id="node8" class="node"><title>Node8</title>
<polygon fill="white" stroke="#bfbfbf" points="6,-8.15712 6,-27.1571 106,-27.1571 106,-8.15712 6,-8.15712"/>
<text text-anchor="middle" x="56" y="-15.1571" font-family="Helvetica,sans-Serif" font-size="10.00">real(kind=r_grid)</text>
</g>
<!-- Node8&#45;&gt;Node1 -->
<g id="edge7" class="edge"><title>Node8&#45;&gt;Node1</title>
<path fill="none" stroke="#9a32cd" stroke-dasharray="5,2" d="M100.068,-6.00552C139.465,1.85717 197.073,5.9347 234,-24.6571 301.348,-80.4518 326.948,-381.6 331.306,-439.886"/>
<polygon fill="#9a32cd" stroke="#9a32cd" points="99.2594,-2.59932 90.2193,-8.12451 100.732,-9.44272 99.2594,-2.59932"/>
<text text-anchor="middle" x="182" y="-137.657" font-family="Helvetica,sans-Serif" font-size="10.00"> dx_const</text>
<text text-anchor="middle" x="182" y="-126.657" font-family="Helvetica,sans-Serif" font-size="10.00">dy_const</text>
<text text-anchor="middle" x="182" y="-115.657" font-family="Helvetica,sans-Serif" font-size="10.00">stretch_fac</text>
<text text-anchor="middle" x="182" y="-104.657" font-family="Helvetica,sans-Serif" font-size="10.00">deglat_stop</text>
<text text-anchor="middle" x="182" y="-93.6571" font-family="Helvetica,sans-Serif" font-size="10.00">deglon_start</text>
<text text-anchor="middle" x="182" y="-82.6571" font-family="Helvetica,sans-Serif" font-size="10.00">deglat</text>
<text text-anchor="middle" x="182" y="-71.6571" font-family="Helvetica,sans-Serif" font-size="10.00">deglon_stop</text>
<text text-anchor="middle" x="182" y="-60.6571" font-family="Helvetica,sans-Serif" font-size="10.00">target_lon</text>
<text text-anchor="middle" x="182" y="-49.6571" font-family="Helvetica,sans-Serif" font-size="10.00">target_lat</text>
<text text-anchor="middle" x="182" y="-38.6571" font-family="Helvetica,sans-Serif" font-size="10.00">deglat_start</text>
<text text-anchor="middle" x="182" y="-27.6571" font-family="Helvetica,sans-Serif" font-size="10.00">...</text>
</g>
</g>
</svg>
