<?xml version="1.0" encoding="UTF-8" standalone="no"?>
<!DOCTYPE svg PUBLIC "-//W3C//DTD SVG 1.1//EN"
 "http://www.w3.org/Graphics/SVG/1.1/DTD/svg11.dtd">
<!-- Generated by graphviz version 2.30.1 (20180420.1509)
 -->
<!-- Title: fv_arrays_mod::fv_nest_bc_type_4d Pages: 1 -->
<svg width="205pt" height="184pt"
 viewBox="0.00 0.00 205.00 184.00" xmlns="http://www.w3.org/2000/svg" xmlns:xlink="http://www.w3.org/1999/xlink">
<g id="graph0" class="graph" transform="scale(1 1) rotate(0) translate(4 180)">
<title>fv_arrays_mod::fv_nest_bc_type_4d</title>
<polygon fill="white" stroke="white" points="-4,5 -4,-180 202,-180 202,5 -4,5"/>
<!-- Node1 -->
<g id="node1" class="node"><title>Node1</title>
<polygon fill="#bfbfbf" stroke="black" points="30.5,-1 30.5,-31 161.5,-31 161.5,-1 30.5,-1"/>
<text text-anchor="start" x="38.5" y="-19" font-family="Helvetica,sans-Serif" font-size="10.00">fv_arrays_mod::fv_nest</text>
<text text-anchor="middle" x="96" y="-8" font-family="Helvetica,sans-Serif" font-size="10.00">_bc_type_4d</text>
</g>
<!-- Node2 -->
<g id="node2" class="node"><title>Node2</title>
<polygon fill="white" stroke="#bfbfbf" points="-0.5,-156.5 -0.5,-175.5 48.5,-175.5 48.5,-156.5 -0.5,-156.5"/>
<text text-anchor="middle" x="24" y="-163.5" font-family="Helvetica,sans-Serif" font-size="10.00">logical</text>
</g>
<!-- Node2&#45;&gt;Node1 -->
<g id="edge1" class="edge"><title>Node2&#45;&gt;Node1</title>
<path fill="none" stroke="#9a32cd" stroke-dasharray="5,2" d="M22.5862,-146.334C21.6874,-122.073 23.4019,-79.3454 43,-50 48.1771,-42.2481 55.8571,-35.9803 63.7741,-31.0743"/>
<polygon fill="#9a32cd" stroke="#9a32cd" points="19.0931,-146.558 23.1492,-156.346 26.0821,-146.165 19.0931,-146.558"/>
<text text-anchor="middle" x="67.5" y="-97" font-family="Helvetica,sans-Serif" font-size="10.00"> allocated</text>
<text text-anchor="middle" x="67.5" y="-86" font-family="Helvetica,sans-Serif" font-size="10.00">initialized</text>
</g>
<!-- Node3 -->
<g id="node3" class="node"><title>Node3</title>
<polygon fill="white" stroke="#bfbfbf" points="70.5,-156.5 70.5,-175.5 121.5,-175.5 121.5,-156.5 70.5,-156.5"/>
<text text-anchor="middle" x="96" y="-163.5" font-family="Helvetica,sans-Serif" font-size="10.00">integer</text>
</g>
<!-- Node3&#45;&gt;Node1 -->
<g id="edge2" class="edge"><title>Node3&#45;&gt;Node1</title>
<path fill="none" stroke="#9a32cd" stroke-dasharray="5,2" d="M96,-145.798C96,-115.728 96,-58.2001 96,-31.4012"/>
<polygon fill="#9a32cd" stroke="#9a32cd" points="92.5001,-146.185 96,-156.185 99.5001,-146.185 92.5001,-146.185"/>
<text text-anchor="middle" x="110" y="-97" font-family="Helvetica,sans-Serif" font-size="10.00"> istag</text>
<text text-anchor="middle" x="110" y="-86" font-family="Helvetica,sans-Serif" font-size="10.00">jstag</text>
</g>
<!-- Node4 -->
<g id="node4" class="node"><title>Node4</title>
<polygon fill="white" stroke="#bfbfbf" points="139.5,-156.5 139.5,-175.5 174.5,-175.5 174.5,-156.5 139.5,-156.5"/>
<text text-anchor="middle" x="157" y="-163.5" font-family="Helvetica,sans-Serif" font-size="10.00">real</text>
</g>
<!-- Node4&#45;&gt;Node1 -->
<g id="edge3" class="edge"><title>Node4&#45;&gt;Node1</title>
<path fill="none" stroke="#9a32cd" stroke-dasharray="5,2" d="M155.288,-146.276C152.468,-122.566 145.317,-81.0662 128,-50 124.114,-43.0293 118.382,-36.4691 112.838,-31.0623"/>
<polygon fill="#9a32cd" stroke="#9a32cd" points="151.822,-146.784 156.35,-156.362 158.783,-146.051 151.822,-146.784"/>
<text text-anchor="middle" x="175.5" y="-130" font-family="Helvetica,sans-Serif" font-size="10.00"> west_t0</text>
<text text-anchor="middle" x="175.5" y="-119" font-family="Helvetica,sans-Serif" font-size="10.00">east_t0</text>
<text text-anchor="middle" x="175.5" y="-108" font-family="Helvetica,sans-Serif" font-size="10.00">west_t1</text>
<text text-anchor="middle" x="175.5" y="-97" font-family="Helvetica,sans-Serif" font-size="10.00">north_t0</text>
<text text-anchor="middle" x="175.5" y="-86" font-family="Helvetica,sans-Serif" font-size="10.00">east_t1</text>
<text text-anchor="middle" x="175.5" y="-75" font-family="Helvetica,sans-Serif" font-size="10.00">north_t1</text>
<text text-anchor="middle" x="175.5" y="-64" font-family="Helvetica,sans-Serif" font-size="10.00">south_t0</text>
<text text-anchor="middle" x="175.5" y="-53" font-family="Helvetica,sans-Serif" font-size="10.00">south_t1</text>
</g>
</g>
</svg>
