<?xml version="1.0" encoding="UTF-8" standalone="no"?>
<!DOCTYPE svg PUBLIC "-//W3C//DTD SVG 1.1//EN"
 "http://www.w3.org/Graphics/SVG/1.1/DTD/svg11.dtd">
<!-- Generated by graphviz version 2.30.1 (20180420.1509)
 -->
<!-- Title: dycore_typedefs::dycore_diag_type Pages: 1 -->
<!--zoomable 274 -->
<svg id="main" version="1.1" xmlns="http://www.w3.org/2000/svg" xmlns:xlink="http://www.w3.org/1999/xlink" xml:space="preserve" onload="init(evt)">
<style type="text/css"><![CDATA[
.edge:hover path { stroke: red; }
.edge:hover polygon { stroke: red; fill: red; }
]]></style>
<script type="text/javascript"><![CDATA[
var edges = document.getElementsByTagName('g');
if (edges && edges.length) {
  for (var i=0;i<edges.length;i++) {
    if (edges[i].id.substr(0,4)=='edge') {
      edges[i].setAttribute('class','edge');
    }
  }
}
]]></script>
        <defs>
                <circle id="rim" cx="0" cy="0" r="7"/>
                <circle id="rim2" cx="0" cy="0" r="3.5"/>
                <g id="zoomPlus">
                        <use xlink:href="#rim" fill="#404040">
                                <set attributeName="fill" to="#808080" begin="zoomplus.mouseover" end="zoomplus.mouseout"/>
                        </use>
                        <path d="M-4,0h8M0,-4v8" fill="none" stroke="white" stroke-width="1.5" pointer-events="none"/>
                </g>
                <g id="zoomMin">
                        <use xlink:href="#rim" fill="#404040">
                                <set attributeName="fill" to="#808080" begin="zoomminus.mouseover" end="zoomminus.mouseout"/>
                        </use>
                        <path d="M-4,0h8" fill="none" stroke="white" stroke-width="1.5" pointer-events="none"/>
                </g>
                <g id="dirArrow">
                        <path fill="none" stroke="white" stroke-width="1.5" d="M0,-3.0v7 M-2.5,-0.5L0,-3.0L2.5,-0.5"/>
                </g>
               <g id="resetDef">
                       <use xlink:href="#rim2" fill="#404040">
                               <set attributeName="fill" to="#808080" begin="reset.mouseover" end="reset.mouseout"/>
                       </use>
               </g>
        </defs>

<script type="text/javascript">
var viewWidth = 552;
var viewHeight = 274;
var sectionId = 'dynsection-0';
</script>
<script xlink:href="svgpan.js"/>
<svg id="graph" class="graph">
<g id="viewport">
<title>dycore_typedefs::dycore_diag_type</title>
<polygon fill="white" stroke="white" points="-4,5 -4,-270 549,-270 549,5 -4,5"/>
<!-- Node1 -->
<g id="node1" class="node"><title>Node1</title>
<polygon fill="#bfbfbf" stroke="black" points="406.5,-133 406.5,-163 543.5,-163 543.5,-133 406.5,-133"/>
<text text-anchor="start" x="414.5" y="-151" font-family="Helvetica,sans-Serif" font-size="10.00">dycore_typedefs::dycore</text>
<text text-anchor="middle" x="475" y="-140" font-family="Helvetica,sans-Serif" font-size="10.00">_diag_type</text>
</g>
<!-- Node2 -->
<g id="node2" class="node"><title>Node2</title>
<g id="a_node2"><a xlink:href="structdycore__typedefs_1_1var__subtype.html" target="_top" xlink:title="dycore_typedefs::var\l_subtype">
<polygon fill="white" stroke="black" points="176.5,-236 176.5,-266 295.5,-266 295.5,-236 176.5,-236"/>
<text text-anchor="start" x="184.5" y="-254" font-family="Helvetica,sans-Serif" font-size="10.00">dycore_typedefs::var</text>
<text text-anchor="middle" x="236" y="-243" font-family="Helvetica,sans-Serif" font-size="10.00">_subtype</text>
</a>
</g>
</g>
<!-- Node2&#45;&gt;Node1 -->
<g id="edge1" class="edge"><title>Node2&#45;&gt;Node1</title>
<path fill="none" stroke="#9a32cd" stroke-dasharray="5,2" d="M297.269,-232.748C325.338,-223.517 358.886,-211.426 388,-198 410.113,-187.802 433.956,-173.67 450.916,-163.031"/>
<polygon fill="#9a32cd" stroke="#9a32cd" points="296.016,-229.475 287.585,-235.892 298.178,-236.133 296.016,-229.475"/>
<text text-anchor="middle" x="351" y="-229" font-family="Helvetica,sans-Serif" font-size="10.00"> data</text>
</g>
<!-- Node3 -->
<g id="node3" class="node"><title>Node3</title>
<polygon fill="white" stroke="#bfbfbf" points="0,-199.5 0,-218.5 108,-218.5 108,-199.5 0,-199.5"/>
<text text-anchor="middle" x="54" y="-206.5" font-family="Helvetica,sans-Serif" font-size="10.00">real(kind=r8_kind)</text>
</g>
<!-- Node3&#45;&gt;Node2 -->
<g id="edge2" class="edge"><title>Node3&#45;&gt;Node2</title>
<path fill="none" stroke="#9a32cd" stroke-dasharray="5,2" d="M105.633,-220.814C127.586,-225.937 153.432,-231.967 176.227,-237.286"/>
<polygon fill="#9a32cd" stroke="#9a32cd" points="106.379,-217.394 95.8448,-218.53 104.788,-224.211 106.379,-217.394"/>
<text text-anchor="middle" x="142" y="-246" font-family="Helvetica,sans-Serif" font-size="10.00"> var3p</text>
<text text-anchor="middle" x="142" y="-235" font-family="Helvetica,sans-Serif" font-size="10.00">var2p</text>
</g>
<!-- Node3&#45;&gt;Node1 -->
<g id="edge3" class="edge"><title>Node3&#45;&gt;Node1</title>
<path fill="none" stroke="#9a32cd" stroke-dasharray="5,2" d="M118.188,-199.801C195.808,-188.5 326.943,-169.409 406.49,-157.828"/>
<polygon fill="#9a32cd" stroke="#9a32cd" points="117.458,-196.37 108.067,-201.274 118.467,-203.297 117.458,-196.37"/>
<text text-anchor="middle" x="236" y="-217" font-family="Helvetica,sans-Serif" font-size="10.00"> fcst_hour</text>
<text text-anchor="middle" x="236" y="-206" font-family="Helvetica,sans-Serif" font-size="10.00">zhour</text>
<text text-anchor="middle" x="236" y="-195" font-family="Helvetica,sans-Serif" font-size="10.00">cnvfac</text>
</g>
<!-- Node4 -->
<g id="node4" class="node"><title>Node4</title>
<polygon fill="white" stroke="#bfbfbf" points="180.5,-128.5 180.5,-147.5 291.5,-147.5 291.5,-128.5 180.5,-128.5"/>
<text text-anchor="middle" x="236" y="-135.5" font-family="Helvetica,sans-Serif" font-size="10.00">character(len=128)</text>
</g>
<!-- Node4&#45;&gt;Node1 -->
<g id="edge4" class="edge"><title>Node4&#45;&gt;Node1</title>
<path fill="none" stroke="#9a32cd" stroke-dasharray="5,2" d="M301.955,-140.741C334.417,-142.11 373.668,-143.767 406.478,-145.151"/>
<polygon fill="#9a32cd" stroke="#9a32cd" points="301.809,-137.232 291.67,-140.307 301.514,-144.225 301.809,-137.232"/>
<text text-anchor="middle" x="351" y="-148" font-family="Helvetica,sans-Serif" font-size="10.00"> desc</text>
</g>
<!-- Node5 -->
<g id="node5" class="node"><title>Node5</title>
<polygon fill="white" stroke="#bfbfbf" points="183.5,-38.5 183.5,-57.5 288.5,-57.5 288.5,-38.5 183.5,-38.5"/>
<text text-anchor="middle" x="236" y="-45.5" font-family="Helvetica,sans-Serif" font-size="10.00">character(len=32)</text>
</g>
<!-- Node5&#45;&gt;Node1 -->
<g id="edge5" class="edge"><title>Node5&#45;&gt;Node1</title>
<path fill="none" stroke="#9a32cd" stroke-dasharray="5,2" d="M298.782,-43.7902C327.156,-44.2006 360.524,-48.1142 388,-61 422.034,-76.9617 450.117,-112.441 464.209,-132.818"/>
<polygon fill="#9a32cd" stroke="#9a32cd" points="298.575,-40.2902 288.574,-43.7874 298.573,-47.2902 298.575,-40.2902"/>
<text text-anchor="middle" x="351" y="-130" font-family="Helvetica,sans-Serif" font-size="10.00"> unit</text>
<text text-anchor="middle" x="351" y="-119" font-family="Helvetica,sans-Serif" font-size="10.00">output_name</text>
<text text-anchor="middle" x="351" y="-108" font-family="Helvetica,sans-Serif" font-size="10.00">level_type</text>
<text text-anchor="middle" x="351" y="-97" font-family="Helvetica,sans-Serif" font-size="10.00">file_name</text>
<text text-anchor="middle" x="351" y="-86" font-family="Helvetica,sans-Serif" font-size="10.00">type_stat_proc</text>
<text text-anchor="middle" x="351" y="-75" font-family="Helvetica,sans-Serif" font-size="10.00">mod_name</text>
<text text-anchor="middle" x="351" y="-64" font-family="Helvetica,sans-Serif" font-size="10.00">name</text>
</g>
<!-- Node6 -->
<g id="node6" class="node"><title>Node6</title>
<polygon fill="white" stroke="#bfbfbf" points="210.5,-0.5 210.5,-19.5 261.5,-19.5 261.5,-0.5 210.5,-0.5"/>
<text text-anchor="middle" x="236" y="-7.5" font-family="Helvetica,sans-Serif" font-size="10.00">integer</text>
</g>
<!-- Node6&#45;&gt;Node1 -->
<g id="edge6" class="edge"><title>Node6&#45;&gt;Node1</title>
<path fill="none" stroke="#9a32cd" stroke-dasharray="5,2" d="M271.965,-7.11909C304.299,-6.10891 352.567,-8.93641 388,-30 428.965,-54.3525 456.143,-106.575 467.691,-132.601"/>
<polygon fill="#9a32cd" stroke="#9a32cd" points="271.482,-3.63733 261.651,-7.588 271.8,-10.6301 271.482,-3.63733"/>
<text text-anchor="middle" x="351" y="-33" font-family="Helvetica,sans-Serif" font-size="10.00"> level</text>
</g>
</g>
</svg>
        <g id="navigator" transform="translate(0 0)" fill="#404254">
                <rect fill="#f2f5e9" fill-opacity="0.5" stroke="#606060" stroke-width=".5" x="0" y="0" width="60" height="60"/>
                <use id="zoomplus" xlink:href="#zoomPlus" x="17" y="9" onmousedown="handleZoom(evt,'in')"/>
                <use id="zoomminus" xlink:href="#zoomMin" x="42" y="9" onmousedown="handleZoom(evt,'out')"/>
                <use id="reset" xlink:href="#resetDef" x="30" y="36" onmousedown="handleReset()"/>
                <g id="arrowUp" xlink:href="#dirArrow" transform="translate(30 24)" onmousedown="handlePan(0,-1)">
                  <use xlink:href="#rim" fill="#404040">
                        <set attributeName="fill" to="#808080" begin="arrowUp.mouseover" end="arrowUp.mouseout"/>
                  </use>
                  <path fill="none" stroke="white" stroke-width="1.5" d="M0,-3.0v7 M-2.5,-0.5L0,-3.0L2.5,-0.5"/>
                </g>
                <g id="arrowRight" xlink:href="#dirArrow" transform="rotate(90) translate(36 -43)" onmousedown="handlePan(1,0)">
                  <use xlink:href="#rim" fill="#404040">
                        <set attributeName="fill" to="#808080" begin="arrowRight.mouseover" end="arrowRight.mouseout"/>
                  </use>
                  <path fill="none" stroke="white" stroke-width="1.5" d="M0,-3.0v7 M-2.5,-0.5L0,-3.0L2.5,-0.5"/>
                </g>
                <g id="arrowDown" xlink:href="#dirArrow" transform="rotate(180) translate(-30 -48)" onmousedown="handlePan(0,1)">
                  <use xlink:href="#rim" fill="#404040">
                        <set attributeName="fill" to="#808080" begin="arrowDown.mouseover" end="arrowDown.mouseout"/>
                  </use>
                  <path fill="none" stroke="white" stroke-width="1.5" d="M0,-3.0v7 M-2.5,-0.5L0,-3.0L2.5,-0.5"/>
                </g>
                <g id="arrowLeft" xlink:href="#dirArrow" transform="rotate(270) translate(-36 17)" onmousedown="handlePan(-1,0)">
                  <use xlink:href="#rim" fill="#404040">
                        <set attributeName="fill" to="#808080" begin="arrowLeft.mouseover" end="arrowLeft.mouseout"/>
                  </use>
                  <path fill="none" stroke="white" stroke-width="1.5" d="M0,-3.0v7 M-2.5,-0.5L0,-3.0L2.5,-0.5"/>
                </g>
        </g>
        <svg viewBox="0 0 15 15" width="100%" height="30px" preserveAspectRatio="xMaxYMin meet">
         <g id="arrow_out" transform="scale(0.3 0.3)">
          <a xlink:href="structdycore__typedefs_1_1dycore__diag__type__coll__graph_org.svg" target="_base">
           <rect id="button" ry="5" rx="5" y="6" x="6" height="38" width="38"
                fill="#f2f5e9" fill-opacity="0.5" stroke="#606060" stroke-width="1.0"/>
           <path id="arrow"
             d="M 11.500037,31.436501 C 11.940474,20.09759 22.043105,11.32322 32.158766,21.979434 L 37.068811,17.246167 C 37.068811,17.246167 37.088388,32 37.088388,32 L 22.160133,31.978069 C 22.160133,31.978069 26.997745,27.140456 26.997745,27.140456 C 18.528582,18.264221 13.291696,25.230495 11.500037,31.436501 z"
             style="fill:#404040;"/>
          </a>
         </g>
        </svg>
</svg>
